<svg width="110" height="109" viewBox="0 0 110 109" fill="none" xmlns="http://www.w3.org/2000/svg">
<mask id="path-1-inside-1_866_1195" fill="white">
<path fill-rule="evenodd" clip-rule="evenodd" d="M55 109C85.0995 109 109.5 84.5995 109.5 54.5C109.5 24.4005 85.0995 0 55 0C24.9005 0 0.5 24.4005 0.5 54.5C0.5 84.5995 24.9005 109 55 109ZM55.0004 87.0925C73.0011 87.0925 87.5935 72.5001 87.5935 54.4994C87.5935 36.4987 73.0011 21.9062 55.0004 21.9062C36.9997 21.9062 22.4072 36.4987 22.4072 54.4994C22.4072 72.5001 36.9997 87.0925 55.0004 87.0925Z"/>
</mask>
<path d="M109.105 54.5C109.105 84.3814 84.8814 108.605 55 108.605V109.395C85.3176 109.395 109.895 84.8176 109.895 54.5H109.105ZM55 0.394928C84.8814 0.394928 109.105 24.6186 109.105 54.5H109.895C109.895 24.1824 85.3176 -0.394928 55 -0.394928V0.394928ZM0.894928 54.5C0.894928 24.6186 25.1186 0.394928 55 0.394928V-0.394928C24.6824 -0.394928 0.105072 24.1824 0.105072 54.5H0.894928ZM55 108.605C25.1186 108.605 0.894928 84.3814 0.894928 54.5H0.105072C0.105072 84.8176 24.6824 109.395 55 109.395V108.605ZM87.1986 54.4994C87.1986 72.282 72.7829 86.6976 55.0004 86.6976V87.4874C73.2192 87.4874 87.9884 72.7182 87.9884 54.4994H87.1986ZM55.0004 22.3012C72.7829 22.3012 87.1986 36.7168 87.1986 54.4994H87.9884C87.9884 36.2806 73.2192 21.5113 55.0004 21.5113V22.3012ZM22.8022 54.4994C22.8022 36.7168 37.2178 22.3012 55.0004 22.3012V21.5113C36.7816 21.5113 22.0123 36.2806 22.0123 54.4994H22.8022ZM55.0004 86.6976C37.2178 86.6976 22.8022 72.282 22.8022 54.4994H22.0123C22.0123 72.7182 36.7816 87.4874 55.0004 87.4874V86.6976Z" fill="white" mask="url(#path-1-inside-1_866_1195)"/>
<path d="M54.9999 37.123L59.6932 49.8065L72.3767 54.4999L59.6932 59.1932L54.9999 71.8767L50.3065 59.1932L37.623 54.4999L50.3065 49.8065L54.9999 37.123Z" fill="#F4F4F4"/>
<path d="M94.1239 57.3618C93.9679 57.3486 93.8618 57.3772 93.8055 57.4479C93.7489 57.5216 93.7105 57.6786 93.69 57.9188C93.6264 58.6674 93.7221 59.2961 93.9773 59.8049C94.3696 60.586 95.1164 61.0235 96.2176 61.1171C97.2002 61.2007 97.9655 60.9579 98.5135 60.3886C98.9823 59.9006 99.2535 59.2246 99.327 58.3605C99.3453 58.1453 99.3344 57.9967 99.2942 57.9147C99.2538 57.8358 99.154 57.7897 98.9949 57.7761L94.1239 57.3618ZM93.7121 55.4981C93.7198 55.8507 93.7628 56.0837 93.8412 56.1972C93.9226 56.311 94.1443 56.3832 94.5061 56.414L98.7689 56.7766C99.1183 56.8063 99.3473 56.7739 99.4558 56.6795C99.5644 56.585 99.6463 56.361 99.7015 56.0075L99.8793 56.0227L99.6596 58.6056C99.5856 59.4759 99.3795 60.1999 99.0413 60.7776C98.4342 61.8194 97.4678 62.2839 96.1421 62.1711C95.6648 62.1305 95.2192 61.9937 94.8055 61.7605C94.3914 61.5305 94.053 61.2064 93.79 60.7881C93.6241 60.5226 93.5042 60.2516 93.4303 59.9751C93.291 59.47 93.2518 58.8602 93.3125 58.1459L93.539 55.4834L93.7121 55.4981Z" fill="white"/>
<path d="M96.6759 65.5134C96.5783 65.9439 96.3433 66.2871 95.9707 66.5429C95.6012 66.7995 95.1432 66.8658 94.5966 66.742L95.2556 63.8337C94.5403 63.7037 93.988 63.7471 93.5986 63.9638C93.2092 64.1806 92.9695 64.4874 92.8796 64.8843C92.807 65.2049 92.8297 65.4942 92.9478 65.7521C93.0659 66.01 93.2581 66.267 93.5243 66.5231L93.433 66.6709C93.0736 66.4579 92.7681 66.1415 92.5165 65.7218C92.2642 65.3051 92.1945 64.8479 92.3073 64.3502C92.4373 63.7761 92.7548 63.381 93.2596 63.1647C93.7637 62.9515 94.2982 62.9089 94.8631 63.0369C95.4768 63.176 95.9654 63.4777 96.3289 63.942C96.6924 64.4064 96.808 64.9302 96.6759 65.5134ZM96.4017 65.172C96.4806 64.8239 96.3866 64.5233 96.1197 64.2702C95.977 64.1352 95.7852 64.0179 95.5446 63.9184L95.1066 65.8512C95.4196 65.8868 95.6602 65.8803 95.8285 65.8318C96.1311 65.743 96.3222 65.5231 96.4017 65.172Z" fill="white"/>
<path d="M93.2582 67.1674L93.2093 67.3145C92.8479 67.2701 92.5574 67.2756 92.3376 67.3312C91.9357 67.4283 91.668 67.6774 91.5345 68.0785C91.4603 68.3012 91.4629 68.4968 91.5421 68.665C91.6234 68.8373 91.762 68.956 91.9581 69.0213C92.0828 69.0628 92.2155 69.0657 92.3561 69.03C92.4967 68.9943 92.653 68.9012 92.8252 68.7507L93.2765 68.3466C93.5942 68.0465 93.8812 67.8434 94.1376 67.7374C94.394 67.6313 94.6573 67.6233 94.9277 67.7133C95.2603 67.824 95.4941 68.0338 95.6288 68.3427C95.7636 68.6515 95.7712 68.9856 95.6515 69.3451C95.5991 69.5025 95.512 69.6649 95.3903 69.8323C95.2676 70.0026 95.2023 70.0996 95.1944 70.1234C95.1766 70.1769 95.1712 70.218 95.1781 70.2467C95.1851 70.2754 95.2019 70.3041 95.2287 70.3328L95.1931 70.4397L93.9395 70.0571L93.9855 69.9189C94.2934 69.9555 94.5444 69.9499 94.7384 69.9023C95.0968 69.817 95.3338 69.6006 95.4495 69.2531C95.5187 69.0451 95.5093 68.8605 95.4211 68.6992C95.3329 68.5378 95.2027 68.4285 95.0304 68.3711C94.7571 68.2801 94.4453 68.404 94.0949 68.7428L93.5828 69.2256C93.0276 69.7436 92.5213 69.9265 92.0638 69.7742C91.7133 69.6575 91.4707 69.4299 91.3359 69.0913C91.2001 68.7558 91.2029 68.3756 91.3443 67.9508C91.4037 67.7726 91.5006 67.5805 91.6352 67.3745C91.7697 67.1685 91.8439 67.0447 91.8578 67.0032C91.8697 66.9675 91.8667 66.9319 91.8488 66.8962C91.834 66.8616 91.8112 66.8309 91.7805 66.8042L91.8191 66.6883L93.2582 67.1674Z" fill="white"/>
<path d="M95.9502 73.2322C96.0736 73.2861 96.161 73.3754 96.2124 73.5003C96.2638 73.6252 96.262 73.7508 96.2069 73.877C96.1531 74.0004 96.0629 74.0858 95.9364 74.1331C95.8115 74.1845 95.6859 74.1826 95.5597 74.1275C95.4363 74.0737 95.3495 73.9829 95.2994 73.8552C95.2508 73.7315 95.2535 73.608 95.3073 73.4846C95.3624 73.3583 95.4517 73.2709 95.5754 73.2224C95.7019 73.1751 95.8268 73.1784 95.9502 73.2322ZM90.7541 70.3097C90.6489 70.6293 90.616 70.8455 90.6556 70.9584C90.698 71.0726 90.8871 71.2029 91.2229 71.3493L93.2761 72.245C93.4626 72.3264 93.5973 72.3698 93.6804 72.3752C93.8168 72.3835 93.915 72.3188 93.9751 72.1811C93.9889 72.1495 93.9998 72.1167 94.0078 72.0826C94.0146 72.0514 94.0292 71.9553 94.0516 71.7943L94.1851 71.8525L94.1646 72.0639C94.1091 72.6374 94.0798 73.0413 94.0766 73.2756C94.076 73.371 94.0707 73.4302 94.0607 73.4531C94.0381 73.4501 94.0153 73.4436 93.9923 73.4336L90.9018 72.0854C90.5746 71.9427 90.3526 71.8919 90.2355 71.9331C90.1173 71.9771 89.986 72.1333 89.8416 72.4017L89.7211 72.3491L90.6336 70.2572L90.7541 70.3097Z" fill="white"/>
<path d="M88.3696 73.1808C88.1393 73.0537 87.9093 73.0949 87.6794 73.3042C87.448 73.5162 87.2401 73.7894 87.0556 74.1239C86.8046 74.5789 86.6799 74.9929 86.6816 75.3657C86.6806 75.737 86.7953 75.9861 87.0255 76.1132C87.2092 76.2145 87.3947 76.1666 87.582 75.9696C87.6963 75.8467 87.8658 75.5881 88.0906 75.1936C88.1493 75.0937 88.2123 74.989 88.2798 74.8797C88.3446 74.7688 88.4054 74.6683 88.4623 74.5781C88.4983 74.5193 88.563 74.428 88.6562 74.3043C88.7495 74.1805 88.8212 74.0895 88.8712 74.0313C88.8893 73.9984 88.8476 73.8699 88.7459 73.6458C88.6431 73.4174 88.5176 73.2624 88.3696 73.1808ZM90.2171 74.8971C90.4369 74.693 90.6909 74.5793 90.9791 74.5559C91.2658 74.5353 91.5408 74.5976 91.8039 74.7427C92.1247 74.9197 92.3586 75.215 92.5058 75.6287C92.653 76.0424 92.5981 76.4823 92.341 76.9483C92.2306 77.1484 92.0609 77.3427 91.8319 77.531C91.6056 77.7208 91.4313 77.9267 91.3088 78.1488C91.277 78.2063 91.2308 78.2934 91.17 78.4101C91.1104 78.531 91.0663 78.6175 91.0376 78.6696L91.0103 78.7189L90.6773 78.5352L91.0697 77.8238C90.9273 77.8096 90.8061 77.7928 90.706 77.7734C90.5213 77.7323 90.3577 77.6724 90.2151 77.5938C89.9026 77.4214 89.6866 77.1324 89.5671 76.7268C89.4488 76.3254 89.5107 75.9055 89.7526 75.4668C89.7904 75.3983 89.8708 75.2818 89.9938 75.1172C90.0376 75.0377 90.0287 74.8951 89.9669 74.6894C89.9037 74.4865 89.8296 74.3616 89.7446 74.3147C89.6569 74.2663 89.5395 74.3267 89.3926 74.4959C89.2956 74.6069 89.2047 74.7391 89.1201 74.8927C88.7314 75.5972 88.4278 76.0536 88.2092 76.2619C87.852 76.6048 87.461 76.6591 87.036 76.4247C86.6029 76.1857 86.3913 75.7526 86.4013 75.1252C86.4098 74.5006 86.5501 73.9416 86.8223 73.4481C87.0703 72.9986 87.3587 72.6929 87.6876 72.531C88.0137 72.3677 88.2768 72.3412 88.4769 72.4516C88.5756 72.506 88.654 72.5939 88.7121 72.7154C88.766 72.8381 88.8295 73.0537 88.9025 73.3621L88.9954 73.7673L89.0175 73.8439C89.1364 73.745 89.2365 73.6769 89.3179 73.6395C89.4634 73.5768 89.5909 73.5756 89.7006 73.6361C89.802 73.692 89.8873 73.7999 89.9565 73.9596C90.027 74.1236 90.1138 74.4361 90.2171 74.8971ZM89.8683 75.7238C89.7852 75.8745 89.7567 76.0233 89.783 76.1701C89.8239 76.4072 90.0074 76.6157 90.3336 76.7956C90.594 76.9393 90.9244 77.0339 91.3247 77.0796C91.7235 77.1279 92.0084 76.9972 92.1792 76.6875C92.3274 76.4188 92.302 76.1634 92.103 75.9214C91.9975 75.7952 91.846 75.6777 91.6486 75.5688C91.3142 75.3843 90.9694 75.2996 90.6142 75.3146C90.2591 75.3297 90.0105 75.4661 89.8683 75.7238Z" fill="white"/>
<path d="M87.4202 76.9519C87.3144 77.1494 87.2692 77.3075 87.2848 77.4261C87.3011 77.5491 87.4266 77.694 87.6614 77.8608L89.602 79.2402C89.7653 79.3563 89.8911 79.4226 89.9792 79.4392C90.1106 79.4596 90.2298 79.3946 90.3368 79.244C90.3532 79.221 90.3691 79.1959 90.3847 79.1685C90.3985 79.1438 90.4155 79.1117 90.4358 79.0723L90.5698 79.1676C90.526 79.294 90.4292 79.5977 90.2793 80.0788L90.1422 80.523C90.1295 80.5408 90.1158 80.5465 90.1013 80.54C90.0849 80.536 90.0652 80.5259 90.0422 80.5096L89.4796 80.1096C89.5322 80.5004 89.5521 80.7911 89.5395 80.9818C89.523 81.2698 89.4386 81.5209 89.2863 81.7353C89.1629 81.9088 89.0007 82.0316 88.7996 82.1038C88.4098 82.2415 87.9661 82.1336 87.4685 81.7799L85.6809 80.5093C85.4972 80.3787 85.3382 80.3214 85.204 80.3373C85.0697 80.3533 84.9396 80.4471 84.8137 80.6189L84.7066 80.5427L85.8683 78.9082L85.9755 78.9844C85.8686 79.1888 85.8271 79.3553 85.8511 79.4837C85.8776 79.6139 86.021 79.7715 86.2813 79.9565L87.9157 81.1183C88.1351 81.2743 88.3453 81.3622 88.5463 81.3821C88.7498 81.4039 88.9295 81.305 89.0855 81.0855C89.1925 80.935 89.2503 80.7456 89.2589 80.5174C89.2619 80.3889 89.2447 80.2077 89.2074 79.9738L87.0639 78.4502C86.8801 78.3196 86.7274 78.2724 86.6055 78.3088C86.4862 78.3469 86.3615 78.4522 86.2312 78.6246L86.124 78.5484L87.313 76.8757L87.4202 76.9519Z" fill="white"/>
<path d="M83.6357 81.5522C83.7331 81.4378 83.8547 81.3748 84.0003 81.3631C84.1483 81.3535 84.2784 81.3964 84.3904 81.4918C84.5024 81.5872 84.5643 81.7077 84.5759 81.8533C84.5856 82.0014 84.5427 82.1314 84.4473 82.2434C84.3519 82.3554 84.2314 82.4173 84.0857 82.429C83.9401 82.4406 83.8113 82.3988 83.6992 82.3034C83.5872 82.208 83.5242 82.0864 83.5101 81.9387C83.4964 81.7955 83.5383 81.6667 83.6357 81.5522Z" fill="white"/>
<path d="M80.5596 85.9386C80.4603 85.8176 80.3657 85.7615 80.2759 85.7705C80.1836 85.7814 80.0443 85.8633 79.8579 86.0163C79.2771 86.4929 78.8935 87.0002 78.7071 87.5379C78.4211 88.364 78.6286 89.2041 79.3297 90.0584C79.9554 90.8207 80.6633 91.1996 81.4534 91.1952C82.1301 91.1906 82.8036 90.9133 83.474 90.3631C83.641 90.2261 83.7398 90.1146 83.7705 90.0286C83.7988 89.9446 83.7623 89.8409 83.661 89.7175L80.5596 85.9386ZM81.6076 84.3434C81.3604 84.5949 81.2235 84.7883 81.1968 84.9235C81.1721 85.0613 81.275 85.2705 81.5054 85.5512L84.2194 88.8582C84.4419 89.1293 84.6248 89.2708 84.7682 89.2827C84.9117 89.2946 85.1293 89.197 85.421 88.9899L85.5342 89.1279L83.5304 90.7724C82.8552 91.3265 82.1927 91.6839 81.5429 91.8446C80.373 92.1365 79.366 91.7682 78.5219 90.7396C78.218 90.3693 78.0053 89.9547 77.8836 89.4956C77.7596 89.0385 77.7557 88.5698 77.8719 88.0896C77.9464 87.7856 78.0569 87.5106 78.2034 87.2648C78.4682 86.8126 78.8777 86.3591 79.4319 85.9042L81.4974 84.2091L81.6076 84.3434Z" fill="white"/>
<path d="M76.487 93.4473C76.1103 93.6774 75.7004 93.748 75.2572 93.6591C74.8157 93.5729 74.4489 93.2907 74.1568 92.8124L76.7017 91.2581C76.2964 90.6546 75.8804 90.2887 75.4536 90.1605C75.0268 90.0323 74.6397 90.0743 74.2924 90.2864C74.0118 90.4578 73.8202 90.6757 73.7176 90.9401C73.615 91.2046 73.5646 91.5215 73.5664 91.8909L73.3968 91.9285C73.2991 91.5222 73.3131 91.0826 73.4388 90.6097C73.5618 90.1384 73.841 89.7697 74.2765 89.5037C74.7788 89.1969 75.2834 89.1492 75.7904 89.3605C76.2946 89.5735 76.6977 89.9271 76.9996 90.4214C77.3276 90.9584 77.4517 91.5191 77.372 92.1033C77.2923 92.6876 76.9973 93.1356 76.487 93.4473ZM76.5408 93.0127C76.8454 92.8267 76.9954 92.5498 76.9909 92.182C76.9883 91.9855 76.9388 91.7663 76.8424 91.5244L75.1511 92.5574C75.3437 92.8066 75.516 92.9746 75.6681 93.0615C75.9426 93.2167 76.2335 93.2004 76.5408 93.0127Z" fill="white"/>
<path d="M72.8661 92.1735L72.7264 92.2407C72.5068 91.9503 72.3005 91.7455 72.1077 91.6264C71.7581 91.4055 71.393 91.3867 71.0121 91.57C70.8005 91.6718 70.6619 91.8097 70.5963 91.9838C70.5292 92.162 70.5404 92.3442 70.63 92.5304C70.6871 92.6489 70.7773 92.7461 70.9008 92.8222C71.0243 92.8983 71.2 92.9458 71.428 92.9646L72.0322 93.0073C72.4688 93.0265 72.8144 93.0912 73.069 93.2015C73.3236 93.3118 73.5126 93.4953 73.6362 93.752C73.7883 94.0679 73.8003 94.3818 73.6724 94.6935C73.5445 95.0052 73.3098 95.2432 72.9685 95.4075C72.819 95.4795 72.6418 95.53 72.4369 95.5591C72.2292 95.5896 72.1141 95.6103 72.0915 95.6211C72.0407 95.6456 72.0074 95.6703 71.9917 95.6952C71.9759 95.7202 71.967 95.7523 71.965 95.7915L71.8634 95.8403L71.2656 94.674L71.3968 94.6109C71.5849 94.8573 71.7636 95.0337 71.9328 95.1398C72.2435 95.3378 72.5639 95.3573 72.8939 95.1985C73.0914 95.1034 73.2174 94.9681 73.2718 94.7925C73.3263 94.6169 73.3141 94.4472 73.2354 94.2836C73.1105 94.0241 72.8045 93.8865 72.3175 93.8707L71.6143 93.8391C70.8559 93.801 70.3722 93.5648 70.1631 93.1304C70.0029 92.7975 69.9974 92.4648 70.1467 92.1324C70.2931 91.8014 70.568 91.5388 70.9714 91.3446C71.1407 91.2631 71.3461 91.199 71.5876 91.1523C71.8292 91.1055 71.9697 91.0726 72.0092 91.0536C72.043 91.0373 72.0666 91.0104 72.0797 90.9728C72.0943 90.938 72.1004 90.9002 72.0982 90.8596L72.2083 90.8067L72.8661 92.1735Z" fill="white"/>
<path d="M70.4349 98.306C70.4822 98.432 70.4789 98.557 70.4251 98.6808C70.3713 98.8047 70.2799 98.8908 70.1509 98.9392C70.0248 98.9865 69.9008 98.9812 69.7788 98.9233C69.6549 98.8695 69.5688 98.7781 69.5204 98.6491C69.4731 98.5231 69.4778 98.3976 69.5346 98.2726C69.5895 98.1517 69.68 98.0676 69.8061 98.0203C69.9351 97.9719 70.06 97.9752 70.1809 98.0301C70.303 98.088 70.3876 98.1799 70.4349 98.306ZM68.914 92.5416C68.6114 92.6886 68.4333 92.8156 68.3799 92.9227C68.3275 93.0326 68.3656 93.259 68.4943 93.602L69.2813 95.6992C69.3528 95.8898 69.4154 96.0167 69.4693 96.0801C69.5584 96.1838 69.6733 96.2092 69.814 96.1564C69.8462 96.1443 69.8773 96.1293 69.9074 96.1114C69.9345 96.0945 70.0136 96.0381 70.1448 95.942L70.1959 96.0783L70.03 96.2108C69.5797 96.5704 69.2694 96.8306 69.099 96.9915C69.0302 97.0575 68.984 97.0948 68.9606 97.1036C68.947 97.0853 68.9358 97.0644 68.927 97.041L67.7425 93.8841C67.6171 93.5499 67.4989 93.3552 67.3878 93.2999C67.2739 93.2457 67.0703 93.2602 66.7772 93.3434L66.731 93.2203L68.8678 92.4185L68.914 92.5416Z" fill="white"/>
<path d="M65.1759 92.8379C65.1071 92.5841 64.9176 92.4473 64.6073 92.4276C64.2941 92.4087 63.9531 92.4492 63.5844 92.5491C63.0828 92.685 62.6986 92.8832 62.4319 93.1436C62.1643 93.401 62.0649 93.6566 62.1337 93.9105C62.1885 94.1129 62.3519 94.213 62.6237 94.2107C62.7915 94.2074 63.0953 94.1494 63.5351 94.0367C63.6477 94.0094 63.7668 93.982 63.8923 93.9545C64.017 93.9239 64.1316 93.8978 64.236 93.876C64.3033 93.861 64.4138 93.844 64.5676 93.825C64.7214 93.806 64.8366 93.7943 64.9132 93.7897C64.9495 93.7799 65.0128 93.6606 65.1033 93.4317C65.1959 93.199 65.2201 93.0011 65.1759 92.8379ZM65.2266 95.3591C65.5261 95.3752 65.7845 95.4788 66.0017 95.6697C66.2158 95.8614 66.3622 96.1023 66.4408 96.3924C66.5366 96.7459 66.487 97.1194 66.2919 97.5129C66.0969 97.9063 65.7425 98.1726 65.2288 98.3118C65.0082 98.3716 64.7507 98.3847 64.4561 98.351C64.1623 98.3203 63.8931 98.3381 63.6483 98.4044C63.5849 98.4216 63.4901 98.4489 63.364 98.4864C63.2357 98.5276 63.1428 98.556 63.0854 98.5716L63.031 98.5863L62.9315 98.2192L63.7157 98.0067C63.6269 97.8945 63.5547 97.7957 63.4991 97.7102C63.4002 97.5488 63.3295 97.3896 63.2869 97.2325C63.1936 96.888 63.2511 96.5318 63.4596 96.1639C63.6658 95.7999 64.0107 95.5524 64.4942 95.4213C64.5697 95.4009 64.7094 95.3776 64.9132 95.3516C65.0008 95.3278 65.0971 95.2223 65.202 95.0349C65.3039 94.8484 65.3422 94.7082 65.3168 94.6146C65.2906 94.5179 65.1656 94.4755 64.9417 94.4875C64.7946 94.495 64.6364 94.5216 64.4671 94.5675C63.6906 94.7779 63.1514 94.877 62.8496 94.8647C62.3549 94.8463 62.044 94.603 61.9171 94.1346C61.7877 93.6572 61.9519 93.2039 62.4098 92.775C62.8647 92.3468 63.3641 92.059 63.908 91.9116C64.4035 91.7773 64.8238 91.7721 65.1688 91.8959C65.5129 92.0168 65.7149 92.1875 65.7746 92.4081C65.8041 92.5168 65.7954 92.6343 65.7485 92.7606C65.6978 92.8846 65.587 93.0801 65.416 93.347L65.1893 93.6955L65.1497 93.7646C65.3034 93.7813 65.422 93.8059 65.5054 93.8385C65.6517 93.8994 65.7412 93.9903 65.7739 94.1112C65.8042 94.223 65.786 94.3593 65.7193 94.5201C65.6504 94.6847 65.4862 94.9644 65.2266 95.3591ZM64.39 95.6831C64.2238 95.7282 64.097 95.8112 64.0098 95.9321C63.8678 96.1263 63.8455 96.4032 63.943 96.7628C64.0208 97.0498 64.1824 97.3531 64.4279 97.6726C64.6704 97.9928 64.9624 98.1067 65.3039 98.0142C65.6 97.9339 65.7659 97.7381 65.8015 97.4268C65.8188 97.2632 65.798 97.0726 65.739 96.855C65.6391 96.4864 65.4603 96.1797 65.2026 95.9349C64.9449 95.6901 64.674 95.6062 64.39 95.6831Z" fill="white"/>
<path d="M61.8333 94.7683C61.618 94.8302 61.4732 94.9082 61.3991 95.002C61.3224 95.0995 61.3061 95.2905 61.3503 95.5752L61.7155 97.9279C61.7463 98.1259 61.7864 98.2622 61.8361 98.3369C61.9131 98.4453 62.0429 98.4854 62.2254 98.4571C62.2532 98.4527 62.2824 98.4466 62.3128 98.4387C62.3402 98.4313 62.3751 98.4211 62.4174 98.4082L62.4426 98.5707C62.3216 98.6275 62.0364 98.77 61.587 98.9981L61.1732 99.2097C61.1515 99.2131 61.1379 99.2073 61.1324 99.1923C61.1238 99.1778 61.1174 99.1566 61.1131 99.1287L61.0072 98.4466C60.7638 98.7568 60.5694 98.9739 60.4239 99.0979C60.2062 99.287 59.9673 99.4017 59.7075 99.442C59.4971 99.4747 59.2959 99.4441 59.104 99.3504C58.7333 99.1671 58.5012 98.7739 58.4075 98.1706L58.0711 96.0035C58.0365 95.7807 57.9667 95.6268 57.8616 95.5417C57.7565 95.4567 57.5985 95.4289 57.3877 95.4585L57.3675 95.3286L59.349 95.0209L59.3692 95.1509C59.1482 95.2169 59 95.3032 58.9247 95.41C58.8498 95.5198 58.8369 95.7325 58.8859 96.048L59.1935 98.0296C59.2348 98.2956 59.3184 98.5076 59.4443 98.6655C59.5707 98.8264 59.7669 98.8863 60.033 98.8449C60.2155 98.8166 60.3915 98.7259 60.561 98.5729C60.6552 98.4854 60.773 98.3467 60.9146 98.1568L60.5112 95.5581C60.4766 95.3354 60.4038 95.193 60.2928 95.131C60.1823 95.0721 60.0198 95.0562 59.8054 95.0831L59.7852 94.9532L61.8131 94.6384L61.8333 94.7683Z" fill="white"/>
<path d="M55.9086 95.256C56.0585 95.2461 56.1884 95.2894 56.2983 95.3857C56.4084 95.4851 56.4682 95.6083 56.4779 95.7551C56.4875 95.9019 56.4442 96.0303 56.3479 96.1402C56.2484 96.2502 56.1253 96.3101 55.9785 96.3197C55.8316 96.3294 55.7033 96.286 55.5934 96.1897C55.4836 96.0934 55.4238 95.9718 55.4142 95.825C55.4045 95.6782 55.4477 95.5482 55.5439 95.4353C55.6371 95.3256 55.7586 95.2658 55.9086 95.256Z" fill="white"/>
<path d="M50.4444 96.0898C50.4625 95.9344 50.4371 95.8274 50.3682 95.769C50.2962 95.7102 50.1405 95.6669 49.9011 95.6391C49.1547 95.5524 48.5233 95.6288 48.007 95.8682C47.2141 96.2363 46.7539 96.9692 46.6264 98.067C46.5127 99.0466 46.7318 99.819 47.2839 100.384C47.7572 100.868 48.4246 101.16 49.286 101.26C49.5006 101.285 49.6495 101.278 49.7327 101.241C49.8127 101.203 49.862 101.104 49.8804 100.946L50.4444 96.0898ZM52.3199 95.7356C51.9672 95.7325 51.733 95.7683 51.6171 95.8431C51.5009 95.921 51.4219 96.1403 51.38 96.5011L50.8864 100.751C50.8459 101.099 50.8713 101.329 50.9623 101.44C51.0534 101.552 51.2747 101.64 51.6264 101.707L51.6058 101.884L49.0308 101.585C48.1632 101.484 47.4459 101.256 46.8789 100.9C45.8563 100.261 45.4217 99.2807 45.5752 97.9591C45.6305 97.4833 45.781 97.0422 46.0268 96.6358C46.2694 96.229 46.6038 95.9006 47.03 95.6507C47.3005 95.493 47.575 95.3815 47.8537 95.3162C48.3629 95.1925 48.9735 95.172 49.6857 95.2547L52.3399 95.563L52.3199 95.7356Z" fill="white"/>
<path d="M42.2336 98.3717C41.8067 98.2595 41.4717 98.0128 41.2288 97.6317C40.985 97.2536 40.9344 96.7936 41.0769 96.2516L43.9609 97.0097C44.1153 96.2993 44.0908 95.7458 43.8876 95.3492C43.6843 94.9527 43.3858 94.7026 42.9922 94.5992C42.6743 94.5156 42.3844 94.5284 42.1226 94.6376C41.8609 94.7469 41.5974 94.9301 41.3323 95.1874L41.1877 95.0911C41.4129 94.7392 41.7396 94.4447 42.1677 94.2076C42.5928 93.9698 43.0521 93.9157 43.5456 94.0454C44.1149 94.1951 44.4989 94.5258 44.6978 95.0378C44.8936 95.5489 44.9179 96.0846 44.7706 96.6447C44.6107 97.2533 44.2924 97.7313 43.8159 98.0787C43.3394 98.426 42.8119 98.5237 42.2336 98.3717ZM42.5842 98.1094C42.9294 98.2001 43.233 98.1164 43.4951 97.8584C43.6349 97.7203 43.7587 97.5328 43.8663 97.2956L41.9497 96.7918C41.9034 97.1033 41.9016 97.344 41.9444 97.5139C42.0227 97.8194 42.236 98.0178 42.5842 98.1094Z" fill="white"/>
<path d="M40.6489 94.8805L40.5037 94.8266C40.5603 94.4669 40.5645 94.1763 40.5165 93.9548C40.433 93.5498 40.1931 93.2738 39.7968 93.1269C39.5767 93.0452 39.3812 93.0411 39.2103 93.1147C39.0354 93.19 38.912 93.3246 38.8402 93.5183C38.7944 93.6416 38.787 93.7741 38.818 93.9158C38.8489 94.0575 38.9366 94.2169 39.0813 94.3941L39.4699 94.8588C39.7591 95.1865 39.9523 95.4802 40.0496 95.7401C40.1469 95.9999 40.146 96.2633 40.0469 96.5305C39.925 96.8592 39.7074 97.0857 39.3942 97.2099C39.0809 97.3342 38.7467 97.3304 38.3916 97.1987C38.236 97.141 38.0766 97.0484 37.9135 96.9211C37.7474 96.7928 37.6526 96.7242 37.6291 96.7155C37.5763 96.6959 37.5354 96.6891 37.5065 96.695C37.4776 96.701 37.4483 96.7169 37.4187 96.7426L37.3131 96.7034L37.7379 95.4636L37.8744 95.5142C37.8275 95.8207 37.8245 96.0717 37.8655 96.2672C37.9387 96.6283 38.1469 96.8725 38.4903 96.9999C38.6958 97.0761 38.8807 97.0729 39.0449 96.9902C39.2091 96.9076 39.3228 96.7811 39.386 96.6109C39.4862 96.3408 39.3729 96.025 39.0462 95.6634L38.581 95.1352C38.0821 94.5628 37.9165 94.0505 38.0842 93.5985C38.2126 93.2521 38.4483 93.0173 38.7912 92.8941C39.1312 92.7698 39.5111 92.7854 39.9308 92.9412C40.1069 93.0065 40.2956 93.1099 40.4969 93.2513C40.6983 93.3928 40.8195 93.4711 40.8605 93.4864C40.8958 93.4995 40.9315 93.4977 40.9677 93.4811C41.0028 93.4674 41.0343 93.4456 41.062 93.4159L41.1765 93.4583L40.6489 94.8805Z" fill="white"/>
<path d="M34.5515 97.3856C34.4936 97.5071 34.4013 97.5915 34.2748 97.6387C34.1482 97.6859 34.0228 97.6798 33.8984 97.6206C33.7769 97.5626 33.6946 97.4697 33.6516 97.3416C33.6044 97.2151 33.6105 97.0896 33.6698 96.9653C33.7277 96.8438 33.8213 96.7601 33.9507 96.7143C34.0759 96.6699 34.1993 96.6767 34.3208 96.7346C34.4451 96.7939 34.5295 96.8861 34.5738 97.0113C34.6169 97.1393 34.6094 97.2641 34.5515 97.3856ZM37.6464 92.2903C37.3305 92.1744 37.1155 92.1344 37.0013 92.1701C36.8858 92.2087 36.7493 92.3933 36.5917 92.724L35.6277 94.746C35.5402 94.9297 35.4923 95.063 35.484 95.1457C35.4712 95.2818 35.5326 95.3822 35.6682 95.4468C35.6993 95.4617 35.7317 95.4737 35.7655 95.4828C35.7965 95.4906 35.892 95.5084 36.0522 95.5362L35.9895 95.6677L35.779 95.6401C35.2076 95.5654 34.8049 95.5226 34.5709 95.5116C34.4756 95.5078 34.4166 95.5005 34.394 95.4897C34.3978 95.4672 34.4051 95.4447 34.4158 95.4221L35.8668 92.3784C36.0204 92.0562 36.0785 91.836 36.0413 91.7177C36.0012 91.598 35.8495 91.4615 35.5862 91.3082L35.6428 91.1895L37.703 92.1716L37.6464 92.2903Z" fill="white"/>
<path d="M34.8453 89.8019C34.9798 89.576 34.9464 89.3447 34.7448 89.108C34.5406 88.8697 34.2744 88.6528 33.9462 88.4573C33.4998 88.1914 33.0902 88.0531 32.7175 88.0424C32.3465 88.0291 32.0937 88.1354 31.9591 88.3613C31.8517 88.5415 31.8934 88.7285 32.084 88.9223C32.2031 89.0406 32.456 89.2186 32.8428 89.4563C32.9407 89.5182 33.0432 89.5848 33.1503 89.6558C33.2589 89.7242 33.3574 89.7883 33.4457 89.8482C33.5032 89.8861 33.5923 89.9538 33.7129 90.0511C33.8335 90.1485 33.922 90.2231 33.9785 90.275C34.0108 90.2942 34.1406 90.2568 34.368 90.1626C34.5996 90.0674 34.7587 89.9471 34.8453 89.8019ZM33.0686 91.5914C33.2653 91.8179 33.3705 92.0756 33.3843 92.3644C33.3954 92.6516 33.3241 92.9243 33.1703 93.1825C32.9828 93.4972 32.6799 93.7213 32.2615 93.8547C31.8431 93.9881 31.4053 93.9186 30.9481 93.6462C30.7517 93.5292 30.5632 93.3532 30.3826 93.118C30.2004 92.8856 30.0004 92.7045 29.7825 92.5747C29.726 92.541 29.6405 92.4919 29.5259 92.4273C29.4071 92.3638 29.3221 92.3168 29.271 92.2864L29.2226 92.2575L29.4173 91.9307L30.1152 92.3465C30.1341 92.2047 30.1549 92.0841 30.1777 91.9847C30.2249 91.8015 30.2902 91.6399 30.3735 91.5001C30.5562 91.1934 30.8522 90.9871 31.2615 90.8811C31.6665 90.7762 32.0842 90.852 32.5146 91.1083C32.5818 91.1484 32.6956 91.2326 32.8561 91.361C32.9341 91.4074 33.0769 91.4032 33.2845 91.3483C33.4894 91.2918 33.6167 91.2219 33.6664 91.1385C33.7176 91.0525 33.6612 90.9332 33.4969 90.7807C33.3892 90.6801 33.2601 90.5849 33.1094 90.4952C32.4182 90.0834 31.9721 89.7648 31.7711 89.5394C31.4403 89.171 31.399 88.7784 31.6474 88.3615C31.9005 87.9365 32.3405 87.7394 32.9671 87.7702C33.5911 87.7994 34.1452 87.9582 34.6293 88.2466C35.0704 88.5094 35.3664 88.8078 35.5173 89.1418C35.6697 89.4731 35.6875 89.737 35.5705 89.9333C35.5128 90.0301 35.4223 90.1056 35.299 90.1597C35.1746 90.2095 34.9571 90.2657 34.6464 90.3284L34.2383 90.4079L34.161 90.4274C34.2559 90.5495 34.3207 90.6519 34.3553 90.7345C34.4132 90.8819 34.4101 91.0095 34.346 91.1171C34.2868 91.2166 34.1761 91.2983 34.0142 91.3621C33.848 91.4271 33.5328 91.5035 33.0686 91.5914ZM32.254 91.2155C32.106 91.1273 31.9583 91.094 31.8107 91.1154C31.5724 91.1484 31.3579 91.3249 31.1673 91.645C31.015 91.9005 30.9095 92.2275 30.8506 92.6261C30.789 93.0231 30.9102 93.3121 31.2142 93.4931C31.4778 93.6502 31.7338 93.6333 31.9823 93.4424C32.112 93.3411 32.2344 93.1936 32.3498 92.9999C32.5453 92.6718 32.6414 92.33 32.6381 91.9745C32.6348 91.6191 32.5068 91.3661 32.254 91.2155Z" fill="white"/>
<path d="M31.1366 88.7445C30.9427 88.6323 30.7862 88.582 30.6672 88.5936C30.5437 88.6059 30.3947 88.7266 30.2202 88.9557L28.7778 90.85C28.6565 91.0094 28.586 91.1329 28.5666 91.2204C28.5419 91.3511 28.603 91.4724 28.7499 91.5843C28.7724 91.6014 28.797 91.6181 28.8238 91.6346C28.8481 91.6492 28.8796 91.6673 28.9182 91.6888L28.8187 91.8196C28.6938 91.7717 28.3934 91.665 27.9175 91.4993L27.478 91.3477C27.4606 91.3344 27.4554 91.3206 27.4624 91.3063C27.4669 91.29 27.4777 91.2707 27.4947 91.2483L27.913 90.6991C27.5207 90.7388 27.2294 90.7492 27.0392 90.7303C26.752 90.7044 26.5038 90.6118 26.2945 90.4524C26.1252 90.3235 26.0077 90.1573 25.9422 89.954C25.8173 89.5598 25.9398 89.1199 26.3097 88.6342L27.6383 86.8893C27.7749 86.71 27.8374 86.553 27.8258 86.4183C27.8143 86.2836 27.7248 86.1505 27.5573 86.019L27.6369 85.9144L29.2323 87.1292L29.1527 87.2338C28.9519 87.1203 28.7869 87.0734 28.6578 87.0931C28.5267 87.1153 28.3645 87.2534 28.171 87.5075L26.9562 89.1029C26.7931 89.3171 26.6983 89.5243 26.6718 89.7245C26.6434 89.9271 26.7363 90.11 26.9505 90.2731C27.0975 90.385 27.2849 90.449 27.5127 90.4651C27.641 90.4723 27.8226 90.4611 28.0577 90.4315L29.6509 88.3392C29.7874 88.1598 29.8396 88.0087 29.8073 87.8857C29.7731 87.7653 29.6719 87.6371 29.5039 87.5012L29.5835 87.3966L31.2163 88.6399L31.1366 88.7445Z" fill="white"/>
<path d="M26.6719 84.8167C26.783 84.9178 26.8421 85.0413 26.849 85.1873C26.8538 85.3356 26.8066 85.4641 26.7076 85.573C26.6086 85.6818 26.4861 85.7397 26.3402 85.7466C26.1919 85.7514 26.0634 85.7043 25.9545 85.6052C25.8457 85.5062 25.7878 85.3837 25.7809 85.2378C25.774 85.0918 25.8201 84.9644 25.9191 84.8556C26.0181 84.7468 26.1416 84.6877 26.2897 84.6785C26.4333 84.6695 26.5607 84.7156 26.6719 84.8167Z" fill="white"/>
<path d="M22.4051 81.6203C22.5293 81.525 22.5884 81.4324 22.5824 81.3422C22.5745 81.2497 22.4971 81.1077 22.3504 80.9165C21.893 80.3203 21.3987 79.9203 20.8673 79.7163C20.0511 79.4034 19.2046 79.5833 18.3278 80.256C17.5453 80.8563 17.1434 81.5514 17.122 82.3413C17.1043 83.0177 17.3595 83.7 17.8873 84.388C18.0188 84.5594 18.127 84.6619 18.2119 84.6954C18.2949 84.7264 18.3998 84.6933 18.5265 84.5961L22.4051 81.6203ZM23.965 82.7201C23.7218 82.4647 23.533 82.3215 23.3986 82.2904C23.2618 82.2613 23.0493 82.3572 22.7612 82.5783L19.3669 85.1824C19.0888 85.3959 18.9414 85.5741 18.9248 85.717C18.9082 85.86 18.9986 86.0807 19.1959 86.3791L19.0544 86.4877L17.4764 84.431C16.9447 83.738 16.6092 83.0642 16.4699 82.4094C16.2166 81.2306 16.6177 80.2362 17.6734 79.4263C18.0534 79.1347 18.4749 78.9357 18.9377 78.8291C19.3986 78.7202 19.8672 78.7316 20.3432 78.8636C20.6447 78.9479 20.9159 79.0674 21.1568 79.2219C21.6001 79.5014 22.0399 79.9255 22.4763 80.4943L24.1029 82.6143L23.965 82.7201Z" fill="white"/>
<path d="M15.03 77.3008C14.8125 76.9167 14.7555 76.5046 14.859 76.0647C14.9598 75.6263 15.254 75.269 15.7417 74.9929L17.2108 77.5879C17.8275 77.2028 18.2069 76.7991 18.3492 76.3768C18.4914 75.9545 18.4623 75.5662 18.2618 75.2121C18.0998 74.926 17.8884 74.7273 17.6275 74.616C17.3666 74.5047 17.0515 74.4438 16.6823 74.4334L16.6503 74.2626C17.0596 74.1784 17.4985 74.207 17.967 74.3482C18.434 74.4868 18.7932 74.7781 19.0446 75.2222C19.3346 75.7344 19.3656 76.2403 19.1376 76.7399C18.9081 77.2368 18.5413 77.628 18.0373 77.9133C17.4897 78.2234 16.9252 78.3289 16.3439 78.2299C15.7626 78.1309 15.3246 77.8212 15.03 77.3008ZM15.4625 77.3689C15.6384 77.6795 15.9101 77.8386 16.2778 77.8463C16.4743 77.8502 16.6951 77.808 16.94 77.7196L15.9637 75.9951C15.7082 76.1793 15.5345 76.346 15.4427 76.4951C15.2785 76.7644 15.2851 77.0556 15.4625 77.3689Z" fill="white"/>
<path d="M16.4256 73.7366L16.3631 73.5948C16.6607 73.385 16.8722 73.1857 16.9978 72.997C17.2303 72.655 17.2613 72.2907 17.0909 71.9039C16.9962 71.689 16.8629 71.5459 16.6912 71.4745C16.5153 71.4014 16.3328 71.4066 16.1438 71.4899C16.0234 71.5429 15.9232 71.6299 15.843 71.7507C15.7628 71.8716 15.7095 72.0456 15.6831 72.2728L15.6201 72.8753C15.5863 73.311 15.5101 73.6543 15.3913 73.905C15.2726 74.1558 15.0829 74.3386 14.8222 74.4535C14.5013 74.5949 14.1873 74.5964 13.88 74.4581C13.5727 74.3198 13.3427 74.0774 13.1899 73.7307C13.123 73.5789 13.0785 73.4001 13.0562 73.1943C13.0327 72.9857 13.0159 72.87 13.0058 72.8471C12.9831 72.7955 12.9595 72.7614 12.9351 72.7448C12.9107 72.7282 12.8789 72.7182 12.8398 72.7149L12.7944 72.6118L13.9801 72.0534L14.0388 72.1866C13.7861 72.3663 13.6039 72.539 13.4921 72.7046C13.2839 73.0085 13.2537 73.328 13.4014 73.6632C13.4898 73.8637 13.6208 73.9942 13.7945 74.0545C13.9682 74.1148 14.1381 74.1083 14.3043 74.0351C14.5678 73.9189 14.7156 73.6177 14.7477 73.1315L14.8028 72.4298C14.8663 71.6731 15.1186 71.1976 15.5598 71.0031C15.8978 70.8542 16.2305 70.8598 16.5577 71.0201C16.8837 71.1775 17.1369 71.4611 17.3174 71.8708C17.3932 72.0427 17.4504 72.2501 17.489 72.4931C17.5277 72.7361 17.5559 72.8776 17.5735 72.9177C17.5887 72.9521 17.6148 72.9765 17.652 72.9909C17.6863 73.0066 17.7237 73.014 17.7644 73.0132L17.8137 73.125L16.4256 73.7366Z" fill="white"/>
<path d="M10.4015 71.1771C10.2741 71.2205 10.1493 71.2135 10.0271 71.156C9.90492 71.0984 9.82158 71.0045 9.77709 70.8741C9.73361 70.7467 9.74262 70.6229 9.80414 70.5026C9.86168 70.3805 9.95563 70.2971 10.086 70.2526C10.2134 70.2091 10.3387 70.2177 10.4619 70.2782C10.5811 70.3367 10.6625 70.4297 10.706 70.5571C10.7505 70.6875 10.7434 70.8123 10.6849 70.9315C10.6234 71.0517 10.5289 71.1336 10.4015 71.1771ZM16.2089 69.8302C16.0711 69.5233 15.9495 69.3415 15.8442 69.2848C15.7359 69.2291 15.5084 69.2605 15.1617 69.3788L13.0417 70.1023C12.8491 70.168 12.7204 70.2269 12.6554 70.2788C12.5491 70.3647 12.5202 70.4788 12.5687 70.621C12.5798 70.6536 12.5939 70.6852 12.611 70.7158C12.627 70.7434 12.6811 70.8242 12.7731 70.9581L12.6353 71.0052L12.5079 70.8353C12.162 70.3744 11.9113 70.0564 11.7556 69.8813C11.6917 69.8105 11.6557 69.7632 11.6476 69.7395C11.6663 69.7265 11.6875 69.716 11.7112 69.7079L14.9023 68.6188C15.2401 68.5035 15.4383 68.3912 15.4969 68.2819C15.5545 68.1696 15.5462 67.9657 15.4718 67.6702L15.5962 67.6277L16.3334 69.7877L16.2089 69.8302Z" fill="white"/>
<path d="M16.0303 66.0923C16.2861 66.0312 16.4286 65.846 16.4577 65.5365C16.4861 65.2239 16.456 64.8819 16.3674 64.5104C16.2467 64.0049 16.0603 63.6148 15.8081 63.3403C15.559 63.065 15.3065 62.9578 15.0507 63.0189C14.8467 63.0676 14.7417 63.2278 14.7357 63.4996C14.7339 63.6674 14.7827 63.9728 14.8819 64.4158C14.9058 64.5292 14.9295 64.6491 14.9532 64.7754C14.98 64.901 15.0027 65.0163 15.0213 65.1212C15.0342 65.189 15.0479 65.3 15.0621 65.4543C15.0764 65.6086 15.0847 65.7241 15.0869 65.8008C15.0956 65.8374 15.213 65.9043 15.439 66.0016C15.6688 66.1013 15.8659 66.1315 16.0303 66.0923ZM13.5088 66.0664C13.4835 66.3653 13.3722 66.6204 13.1748 66.8316C12.9766 67.0398 12.7314 67.1788 12.439 67.2486C12.0827 67.3336 11.7109 67.2727 11.3236 67.0658C10.9363 66.8588 10.6808 66.4965 10.5573 65.9789C10.5043 65.7565 10.499 65.4987 10.5417 65.2053C10.5813 64.9126 10.5716 64.6429 10.5128 64.3962C10.4975 64.3323 10.4731 64.2367 10.4395 64.1096C10.4022 63.9801 10.3766 63.8864 10.3628 63.8285L10.3497 63.7737L10.7197 63.6854L10.9083 64.4757C11.0231 64.3903 11.1241 64.3212 11.2112 64.2682C11.3755 64.1743 11.5368 64.1084 11.6952 64.0706C12.0423 63.9878 12.3966 64.0562 12.758 64.2757C13.1156 64.4929 13.3525 64.8451 13.4688 65.3324C13.487 65.4085 13.506 65.5488 13.5258 65.7533C13.5469 65.8416 13.6494 65.9411 13.8335 66.0516C14.0169 66.1591 14.1558 66.2016 14.2502 66.1791C14.3476 66.1559 14.3938 66.0322 14.3886 65.8081C14.3856 65.6608 14.3638 65.5018 14.3231 65.3313C14.1363 64.5487 14.0537 64.0067 14.0751 63.7055C14.1085 63.2115 14.3613 62.9082 14.8333 62.7956C15.3144 62.6808 15.7624 62.8587 16.1773 63.3294C16.5914 63.7971 16.8639 64.305 16.9947 64.8531C17.1139 65.3525 17.1063 65.7728 16.9721 66.1138C16.8408 66.4541 16.6641 66.6508 16.4418 66.7038C16.3321 66.73 16.215 66.7177 16.0902 66.667C15.9678 66.6125 15.7758 66.4958 15.5142 66.3168L15.1727 66.0797L15.1049 66.0379C15.0835 66.1911 15.0552 66.3089 15.0202 66.3913C14.9549 66.5356 14.8613 66.6223 14.7395 66.6514C14.6268 66.6783 14.4911 66.6559 14.3324 66.5843C14.1699 66.5105 13.8954 66.3378 13.5088 66.0664ZM13.2103 65.2203C13.1703 65.0528 13.0912 64.9236 12.973 64.8327C12.7832 64.6849 12.5071 64.6542 12.1447 64.7407C11.8554 64.8097 11.5474 64.9621 11.2206 65.1978C10.8931 65.4304 10.7704 65.7188 10.8525 66.0629C10.9238 66.3613 11.1144 66.5331 11.4245 66.5782C11.5875 66.6004 11.7787 66.5854 11.9979 66.5331C12.3694 66.4444 12.6815 66.275 12.934 66.0249C13.1865 65.7747 13.2786 65.5065 13.2103 65.2203Z" fill="white"/>
<path d="M14.1882 62.6503C14.1337 62.4329 14.0608 62.2856 13.9696 62.2083C13.8748 62.1282 13.6845 62.1053 13.3985 62.1397L11.0345 62.4234C10.8356 62.4473 10.698 62.4828 10.6216 62.5298C10.5106 62.603 10.4661 62.7313 10.4881 62.9147C10.4914 62.9427 10.4965 62.9721 10.5034 63.0028C10.5099 63.0304 10.5188 63.0656 10.5302 63.1083L10.3671 63.1279C10.3145 63.0049 10.1819 62.715 9.96938 62.2581L9.77223 61.8371C9.76962 61.8154 9.77589 61.802 9.79106 61.797C9.80586 61.7889 9.82724 61.7832 9.85522 61.7799L10.5406 61.6976C10.239 61.4437 10.0287 61.2419 9.90984 61.0922C9.72842 60.868 9.62204 60.6254 9.59069 60.3643C9.56532 60.1529 9.6028 59.9529 9.70313 59.7643C9.89907 59.4002 10.3001 59.1818 10.9063 59.109L13.0837 58.8477C13.3075 58.8208 13.4637 58.7563 13.5524 58.6542C13.641 58.5521 13.6742 58.3952 13.652 58.1835L13.7825 58.1678L14.0215 60.1588L13.891 60.1744C13.8326 59.9512 13.7514 59.8002 13.6474 59.7212C13.5402 59.6426 13.3281 59.6224 13.011 59.6605L11.0201 59.8995C10.7527 59.9315 10.538 60.0078 10.3759 60.1281C10.2106 60.2489 10.1441 60.4429 10.1762 60.7102C10.1982 60.8936 10.2827 61.0727 10.4298 61.2474C10.514 61.3445 10.6485 61.4671 10.8334 61.6151L13.4445 61.3017C13.6683 61.2748 13.8131 61.207 13.8789 61.0982C13.9415 60.9898 13.9631 60.8279 13.9436 60.6127L14.0741 60.597L14.3187 62.6346L14.1882 62.6503Z" fill="white"/>
<path d="M15.339 50.3989C15.495 50.4122 15.6011 50.3835 15.6574 50.3129C15.7139 50.2391 15.7524 50.0822 15.7729 49.842C15.8365 49.0933 15.7408 48.4646 15.4855 47.9559C15.0932 47.1747 14.3465 46.7373 13.2453 46.6436C12.2627 46.5601 11.4974 46.8029 10.9494 47.3721C10.4805 47.8601 10.2094 48.5361 10.1359 49.4002C10.1176 49.6155 10.1285 49.7641 10.1687 49.8461C10.2091 49.9249 10.3089 49.9711 10.468 49.9846L15.339 50.3989ZM15.7508 52.2626C15.7431 51.9101 15.7001 51.677 15.6217 51.5635C15.5403 51.4498 15.3186 51.3775 14.9568 51.3467L10.694 50.9842C10.3446 50.9545 10.1156 50.9868 10.0071 51.0813C9.89848 51.1757 9.81659 51.3997 9.76138 51.7532L9.58357 51.7381L9.80327 49.1551C9.87729 48.2848 10.0834 47.5608 10.4216 46.9832C11.0286 45.9414 11.9951 45.4768 13.3208 45.5896C13.7981 45.6302 14.2436 45.7671 14.6574 46.0002C15.0715 46.2302 15.4099 46.5544 15.6729 46.9726C15.8388 47.2381 15.9587 47.5091 16.0326 47.7856C16.1719 48.2908 16.2111 48.9005 16.1504 49.6149L15.9239 52.2773L15.7508 52.2626Z" fill="white"/>
<path d="M12.787 42.2474C12.8846 41.8169 13.1196 41.4737 13.4922 41.2178C13.8617 40.9613 14.3197 40.8949 14.8663 41.0187L14.2073 43.9271C14.9226 44.057 15.4749 44.0137 15.8643 43.7969C16.2537 43.5802 16.4933 43.2733 16.5833 42.8764C16.6559 42.5558 16.6332 42.2666 16.5151 42.0087C16.3969 41.7508 16.2048 41.4938 15.9386 41.2376L16.0299 41.0898C16.3893 41.3028 16.6948 41.6192 16.9464 42.039C17.1987 42.4557 17.2684 42.9129 17.1556 43.4106C17.0256 43.9846 16.7081 44.3797 16.2033 44.596C15.6992 44.8092 15.1646 44.8518 14.5998 44.7238C13.986 44.5848 13.4975 44.2831 13.134 43.8187C12.7705 43.3543 12.6549 42.8306 12.787 42.2474ZM13.0612 42.5888C12.9823 42.9369 13.0763 43.2374 13.3432 43.4905C13.4859 43.6256 13.6776 43.7428 13.9183 43.8423L14.3563 41.9096C14.0433 41.874 13.8027 41.8804 13.6344 41.929C13.3318 42.0177 13.1407 42.2376 13.0612 42.5888Z" fill="white"/>
<path d="M16.2046 40.5933L16.2536 40.4463C16.615 40.4907 16.9055 40.4851 17.1253 40.4296C17.5272 40.3324 17.7949 40.0833 17.9284 39.6823C18.0026 39.4595 18 39.264 17.9208 39.0957C17.8395 38.9235 17.7009 38.8047 17.5048 38.7394C17.3801 38.6979 17.2474 38.695 17.1068 38.7307C16.9662 38.7664 16.8099 38.8595 16.6376 39.0101L16.1864 39.4142C15.8687 39.7143 15.5816 39.9173 15.3253 40.0234C15.0689 40.1294 14.8055 40.1374 14.5352 40.0475C14.2025 39.9367 13.9688 39.7269 13.8341 39.4181C13.6993 39.1092 13.6917 38.7751 13.8114 38.4157C13.8638 38.2582 13.9509 38.0958 14.0726 37.9285C14.1953 37.7581 14.2606 37.6611 14.2685 37.6373C14.2863 37.5839 14.2917 37.5428 14.2848 37.5141C14.2778 37.4854 14.261 37.4567 14.2342 37.428L14.2698 37.321L15.5234 37.7037L15.4774 37.8418C15.1695 37.8053 14.9185 37.8108 14.7245 37.8584C14.3661 37.9437 14.1291 38.1601 14.0134 38.5077C13.9442 38.7156 13.9536 38.9002 14.0418 39.0616C14.13 39.2229 14.2602 39.3323 14.4325 39.3896C14.7058 39.4806 15.0176 39.3567 15.3679 39.018L15.8801 38.5352C16.4353 38.0171 16.9416 37.8343 17.3991 37.9866C17.7496 38.1033 17.9922 38.3309 18.127 38.6694C18.2628 39.005 18.26 39.3851 18.1186 39.8099C18.0592 39.9882 17.9623 40.1803 17.8277 40.3862C17.6931 40.5922 17.6189 40.716 17.6051 40.7576C17.5932 40.7932 17.5962 40.8289 17.6141 40.8645C17.6289 40.8991 17.6517 40.9298 17.6824 40.9565L17.6438 41.0724L16.2046 40.5933Z" fill="white"/>
<path d="M13.5126 34.5285C13.3893 34.4747 13.3019 34.3853 13.2505 34.2604C13.1991 34.1355 13.2009 34.01 13.256 33.8837C13.3098 33.7603 13.4 33.675 13.5265 33.6277C13.6514 33.5763 13.7769 33.5781 13.9032 33.6332C14.0266 33.687 14.1134 33.7778 14.1635 33.9056C14.2121 34.0292 14.2094 34.1527 14.1556 34.2761C14.1005 34.4024 14.0112 34.4898 13.8875 34.5383C13.761 34.5856 13.636 34.5823 13.5126 34.5285ZM18.7088 37.451C18.814 37.1314 18.8468 36.9152 18.8073 36.8023C18.7649 36.6882 18.5758 36.5579 18.24 36.4114L16.1868 35.5157C16.0003 35.4344 15.8655 35.391 15.7825 35.3855C15.6461 35.3772 15.5478 35.4419 15.4878 35.5797C15.474 35.6112 15.4631 35.6441 15.4551 35.6781C15.4483 35.7093 15.4337 35.8054 15.4113 35.9664L15.2778 35.9082L15.2983 35.6969C15.3538 35.1233 15.3831 34.7194 15.3863 34.4851C15.3869 34.3897 15.3922 34.3306 15.4022 34.3076C15.4248 34.3106 15.4476 34.3172 15.4706 34.3272L18.5611 35.6754C18.8883 35.8181 19.1103 35.8688 19.2273 35.8276C19.3456 35.7836 19.4769 35.6274 19.6213 35.3591L19.7418 35.4116L18.8293 37.5036L18.7088 37.451Z" fill="white"/>
<path d="M21.0933 34.58C21.3236 34.707 21.5536 34.6659 21.7835 34.4566C22.0149 34.2445 22.2228 33.9713 22.4073 33.6369C22.6583 33.1818 22.783 32.7679 22.7812 32.3951C22.7823 32.0238 22.6676 31.7746 22.4374 31.6476C22.2537 31.5463 22.0682 31.5941 21.8809 31.7911C21.7666 31.914 21.5971 32.1727 21.3723 32.5671C21.3136 32.6671 21.2505 32.7717 21.1831 32.8811C21.1183 32.992 21.0575 33.0925 21.0006 33.1827C20.9646 33.2415 20.8999 33.3327 20.8066 33.4565C20.7134 33.5802 20.6417 33.6712 20.5917 33.7294C20.5736 33.7623 20.6153 33.8908 20.7169 34.1149C20.8198 34.3433 20.9453 34.4983 21.0933 34.58ZM19.2458 32.8636C19.026 33.0677 18.7719 33.1815 18.4837 33.2048C18.1971 33.2255 17.9221 33.1632 17.659 33.018C17.3382 32.8411 17.1043 32.5458 16.957 32.132C16.8098 31.7183 16.8648 31.2784 17.1219 30.8124C17.2322 30.6123 17.4019 30.4181 17.631 30.2298C17.8572 30.04 18.0316 29.834 18.1541 29.612C18.1859 29.5544 18.2321 29.4673 18.2929 29.3506C18.3524 29.2297 18.3966 29.1433 18.4253 29.0912L18.4525 29.0418L18.7856 29.2256L18.3932 29.9369C18.5356 29.9511 18.6568 29.9679 18.7569 29.9874C18.9416 30.0285 19.1052 30.0884 19.2478 30.167C19.5603 30.3394 19.7763 30.6284 19.8958 31.034C20.0141 31.4353 19.9522 31.8553 19.7103 32.2939C19.6725 32.3624 19.5921 32.479 19.4691 32.6436C19.4253 32.7231 19.4342 32.8657 19.496 33.0713C19.5592 33.2743 19.6333 33.3992 19.7183 33.4461C19.806 33.4944 19.9234 33.434 20.0703 33.2648C20.1673 33.1539 20.2581 33.0216 20.3428 32.8681C20.7315 32.1636 21.0351 31.7071 21.2537 31.4988C21.6109 31.1559 22.0019 31.1017 22.4268 31.3361C22.86 31.575 23.0715 32.0082 23.0616 32.6355C23.0531 33.2601 22.9128 33.8192 22.6406 34.3126C22.3926 34.7622 22.1042 35.0679 21.7753 35.2297C21.4492 35.3931 21.1861 35.4196 20.986 35.3092C20.8873 35.2547 20.8089 35.1668 20.7508 35.0453C20.6969 34.9226 20.6334 34.7071 20.5604 34.3987L20.4675 33.9934L20.4454 33.9169C20.3265 34.0158 20.2264 34.0839 20.145 34.1212C19.9995 34.184 19.872 34.1851 19.7623 34.1246C19.6609 34.0687 19.5756 33.9608 19.5064 33.8011C19.4359 33.6371 19.3491 33.3246 19.2458 32.8636ZM19.5946 32.037C19.6777 31.8862 19.7062 31.7374 19.6799 31.5906C19.639 31.3536 19.4555 31.1451 19.1293 30.9651C18.8689 30.8215 18.5385 30.7268 18.1382 30.6812C17.7394 30.6328 17.4545 30.7635 17.2837 31.0733C17.1355 31.3419 17.1609 31.5973 17.3598 31.8394C17.4654 31.9655 17.6169 32.0831 17.8143 32.1919C18.1487 32.3764 18.4935 32.4612 18.8486 32.4461C19.2038 32.431 19.4524 32.2947 19.5946 32.037Z" fill="white"/>
<path d="M22.0427 30.8088C22.1485 30.6113 22.1937 30.4533 22.1781 30.3347C22.1618 30.2117 22.0363 30.0668 21.8015 29.8999L19.8609 28.5205C19.6975 28.4044 19.5718 28.3381 19.4837 28.3216C19.3523 28.3011 19.2331 28.3662 19.1261 28.5167C19.1097 28.5397 19.0938 28.5649 19.0782 28.5922C19.0644 28.617 19.0474 28.649 19.0271 28.6884L18.8931 28.5932C18.9369 28.4668 19.0337 28.163 19.1836 27.6819L19.3207 27.2378C19.3334 27.2199 19.347 27.2142 19.3616 27.2207C19.378 27.2247 19.3977 27.2349 19.4206 27.2512L19.9833 27.6511C19.9307 27.2604 19.9108 26.9696 19.9234 26.7789C19.9399 26.491 20.0243 26.2398 20.1766 26.0255C20.3 25.852 20.4622 25.7291 20.6633 25.657C21.0531 25.5192 21.4968 25.6272 21.9944 25.9809L23.782 27.2514C23.9657 27.382 24.1247 27.4394 24.2589 27.4234C24.3932 27.4074 24.5233 27.3136 24.6492 27.1419L24.7563 27.2181L23.5946 28.8525L23.4874 28.7763C23.5943 28.5719 23.6358 28.4055 23.6118 28.2771C23.5853 28.1468 23.4419 27.9892 23.1816 27.8042L21.5472 26.6425C21.3278 26.4865 21.1176 26.3985 20.9166 26.3786C20.7131 26.3569 20.5334 26.4558 20.3774 26.6752C20.2704 26.8258 20.2126 27.0151 20.204 27.2434C20.201 27.3718 20.2182 27.553 20.2555 27.787L22.399 29.3106C22.5827 29.4412 22.7355 29.4883 22.8574 29.452C22.9766 29.4139 23.1014 29.3086 23.2317 29.1361L23.3388 29.2123L22.1499 30.885L22.0427 30.8088Z" fill="white"/>
<path d="M25.8272 26.2085C25.7298 26.3229 25.6082 26.386 25.4626 26.3976C25.3145 26.4073 25.1845 26.3644 25.0725 26.269C24.9605 26.1736 24.8986 26.0531 24.8869 25.9074C24.8773 25.7594 24.9202 25.6294 25.0156 25.5173C25.111 25.4053 25.2315 25.3435 25.3772 25.3318C25.5228 25.3201 25.6516 25.362 25.7637 25.4574C25.8757 25.5528 25.9387 25.6743 25.9528 25.822C25.9665 25.9653 25.9246 26.0941 25.8272 26.2085Z" fill="white"/>
<path d="M28.9032 21.8222C29.0026 21.9432 29.0971 21.9992 29.187 21.9903C29.2793 21.9793 29.4186 21.8974 29.6049 21.7445C30.1858 21.2678 30.5694 20.7606 30.7558 20.2228C31.0418 19.3968 30.8343 18.5566 30.1332 17.7023C29.5075 16.94 28.7996 16.5611 28.0095 16.5656C27.3328 16.5701 26.6593 16.8475 25.9889 17.3976C25.8219 17.5347 25.7231 17.6462 25.6924 17.7321C25.6641 17.8161 25.7006 17.9198 25.8019 18.0432L28.9032 21.8222ZM27.8552 23.4174C28.1025 23.1659 28.2394 22.9725 28.2661 22.8372C28.2908 22.6995 28.1879 22.4903 27.9575 22.2095L25.2434 18.9025C25.021 18.6314 24.8381 18.49 24.6946 18.4781C24.5512 18.4662 24.3336 18.5638 24.0419 18.7708L23.9286 18.6329L25.9325 16.9883C26.6077 16.4342 27.2702 16.0768 27.92 15.9161C29.0899 15.6243 30.0969 15.9926 30.941 17.0211C31.2449 17.3914 31.4576 17.8061 31.5792 18.2652C31.7033 18.7223 31.7072 19.1909 31.5909 19.6711C31.5165 19.9752 31.406 20.2501 31.2594 20.496C30.9947 20.9482 30.5852 21.4017 30.031 21.8565L27.9655 23.5517L27.8552 23.4174Z" fill="white"/>
<path d="M32.9759 14.3135C33.3526 14.0834 33.7625 14.0128 34.2057 14.1016C34.6472 14.1878 35.014 14.47 35.3061 14.9483L32.7612 16.5026C33.1665 17.1062 33.5825 17.472 34.0093 17.6002C34.4361 17.7284 34.8232 17.6864 35.1705 17.4743C35.4511 17.303 35.6427 17.0851 35.7453 16.8206C35.8479 16.5562 35.8983 16.2393 35.8964 15.8699L36.0661 15.8323C36.1638 16.2385 36.1498 16.6781 36.0241 17.1511C35.9011 17.6224 35.6219 17.991 35.1864 18.257C34.6841 18.5638 34.1795 18.6115 33.6725 18.4002C33.1683 18.1873 32.7652 17.8337 32.4633 17.3394C32.1353 16.8023 32.0112 16.2417 32.0909 15.6574C32.1706 15.0731 32.4656 14.6252 32.9759 14.3135ZM32.9221 14.748C32.6175 14.934 32.4675 15.2109 32.472 15.5787C32.4746 15.7752 32.5241 15.9944 32.6205 16.2363L34.3118 15.2034C34.1192 14.9542 33.9469 14.7861 33.7948 14.6992C33.5203 14.5441 33.2294 14.5603 32.9221 14.748Z" fill="white"/>
<path d="M36.5968 15.5873L36.7365 15.5201C36.9561 15.8105 37.1624 16.0152 37.3552 16.1343C37.7048 16.3553 38.0699 16.3741 38.4508 16.1908C38.6624 16.089 38.801 15.951 38.8666 15.777C38.9337 15.5988 38.9225 15.4165 38.8328 15.2304C38.7758 15.1119 38.6856 15.0146 38.5621 14.9385C38.4386 14.8624 38.2629 14.815 38.0349 14.7961L37.4307 14.7534C36.9941 14.7342 36.6485 14.6695 36.3939 14.5592C36.1393 14.449 35.9502 14.2655 35.8267 14.0088C35.6746 13.6928 35.6626 13.379 35.7905 13.0672C35.9184 12.7555 36.1531 12.5175 36.4944 12.3532C36.6439 12.2813 36.8211 12.2307 37.026 12.2016C37.2337 12.1711 37.3488 12.1505 37.3714 12.1396C37.4222 12.1152 37.4554 12.0905 37.4712 12.0655C37.487 12.0405 37.4959 12.0085 37.4979 11.9693L37.5994 11.9204L38.1973 13.0868L38.0661 13.1499C37.878 12.9034 37.6993 12.7271 37.5301 12.6209C37.2194 12.423 36.899 12.4034 36.569 12.5623C36.3715 12.6573 36.2455 12.7927 36.1911 12.9683C36.1366 13.1439 36.1487 13.3135 36.2275 13.4771C36.3524 13.7366 36.6584 13.8743 37.1454 13.89L37.8486 13.9217C38.607 13.9597 39.0907 14.1959 39.2998 14.6304C39.46 14.9633 39.4655 15.2959 39.3162 15.6283C39.1698 15.9594 38.8949 16.222 38.4915 16.4161C38.3222 16.4976 38.1168 16.5617 37.8753 16.6085C37.6337 16.6552 37.4932 16.6881 37.4537 16.7071C37.4198 16.7234 37.3963 16.7504 37.3832 16.788C37.3686 16.8228 37.3625 16.8605 37.3647 16.9011L37.2546 16.9541L36.5968 15.5873Z" fill="white"/>
<path d="M39.028 9.45478C38.9807 9.32874 38.9839 9.20378 39.0378 9.07992C39.0916 8.95606 39.183 8.86993 39.312 8.82154C39.438 8.77424 39.5621 8.77954 39.6841 8.83741C39.808 8.89125 39.8941 8.98265 39.9425 9.11163C39.9898 9.23767 39.9851 9.36317 39.9283 9.48813C39.8733 9.60906 39.7829 9.69318 39.6568 9.74047C39.5278 9.78886 39.4029 9.78559 39.282 9.73065C39.1599 9.67278 39.0753 9.58082 39.028 9.45478ZM40.5489 15.2191C40.8515 15.0721 41.0295 14.9451 41.083 14.8381C41.1354 14.7282 41.0972 14.5017 40.9686 14.1588L40.1816 12.0615C40.1101 11.871 40.0474 11.744 39.9936 11.6806C39.9045 11.5769 39.7896 11.5515 39.6489 11.6043C39.6167 11.6164 39.5855 11.6314 39.5555 11.6494C39.5284 11.6662 39.4493 11.7227 39.3181 11.8187L39.2669 11.6824L39.4329 11.5499C39.8832 11.1904 40.1935 10.9301 40.3638 10.7693C40.4327 10.7033 40.4789 10.6659 40.5023 10.6571C40.5159 10.6754 40.5271 10.6963 40.5359 10.7197L41.7204 13.8766C41.8458 14.2108 41.964 14.4055 42.075 14.4608C42.189 14.5151 42.3926 14.5005 42.6857 14.4173L42.7319 14.5404L40.595 15.3422L40.5489 15.2191Z" fill="white"/>
<path d="M44.287 14.9228C44.3558 15.1767 44.5453 15.3134 44.8556 15.3332C45.1688 15.3521 45.5098 15.3116 45.8784 15.2117C46.3801 15.0757 46.7642 14.8775 47.031 14.6171C47.2986 14.3597 47.398 14.1041 47.3292 13.8503C47.2743 13.6478 47.111 13.5477 46.8391 13.55C46.6714 13.5533 46.3676 13.6113 45.9278 13.724C45.8152 13.7513 45.6961 13.7787 45.5706 13.8062C45.4459 13.8368 45.3313 13.863 45.2269 13.8848C45.1596 13.8998 45.0491 13.9168 44.8953 13.9357C44.7415 13.9547 44.6263 13.9665 44.5497 13.971C44.5134 13.9808 44.4501 14.1002 44.3596 14.329C44.267 14.5617 44.2428 14.7597 44.287 14.9228ZM44.2363 12.4016C43.9367 12.3855 43.6784 12.282 43.4612 12.0911C43.2471 11.8993 43.1007 11.6584 43.0221 11.3684C42.9263 11.0148 42.9759 10.6413 43.1709 10.2479C43.366 9.85443 43.7204 9.58811 44.2341 9.4489C44.4546 9.38912 44.7122 9.37608 45.0068 9.40978C45.3006 9.44046 45.5698 9.42264 45.8146 9.35631C45.878 9.33911 45.9728 9.31181 46.0989 9.27439C46.2272 9.23314 46.3201 9.20473 46.3775 9.18917L46.4319 9.17443L46.5314 9.54157L45.7472 9.75407C45.836 9.86625 45.9082 9.96507 45.9638 10.0506C46.0627 10.2119 46.1334 10.3711 46.176 10.5283C46.2693 10.8727 46.2118 11.2289 46.0033 11.5968C45.7971 11.9609 45.4522 12.2084 44.9687 12.3394C44.8932 12.3599 44.7535 12.3831 44.5497 12.4092C44.4621 12.4329 44.3658 12.5385 44.2609 12.7258C44.159 12.9124 44.1207 13.0525 44.1461 13.1462C44.1723 13.2429 44.2973 13.2852 44.5211 13.2732C44.6683 13.2658 44.8265 13.2391 44.9958 13.1933C45.7723 12.9828 46.3115 12.8837 46.6133 12.896C47.108 12.9144 47.4189 13.1578 47.5458 13.6261C47.6752 14.1036 47.5109 14.5568 47.0531 14.9858C46.5982 15.414 46.0988 15.7017 45.5549 15.8491C45.0593 15.9834 44.6391 15.9887 44.2941 15.8648C43.95 15.744 43.748 15.5733 43.6883 15.3527C43.6588 15.2439 43.6675 15.1264 43.7144 15.0002C43.7651 14.8761 43.8759 14.6807 44.0469 14.4138L44.2736 14.0653L44.3132 13.9962C44.1595 13.9794 44.0409 13.9548 43.9575 13.9223C43.8112 13.8613 43.7217 13.7704 43.6889 13.6496C43.6586 13.5378 43.6769 13.4015 43.7436 13.2407C43.8125 13.076 43.9767 12.7964 44.2363 12.4016ZM45.0729 12.0776C45.2391 12.0326 45.3658 11.9496 45.4531 11.8286C45.5951 11.6345 45.6174 11.3576 45.5199 10.998C45.4421 10.7109 45.2805 10.4077 45.035 10.0882C44.7925 9.76791 44.5005 9.65403 44.159 9.74657C43.8629 9.82682 43.697 10.0226 43.6614 10.3339C43.6441 10.4975 43.6649 10.6881 43.7239 10.9057C43.8238 11.2744 44.0026 11.5811 44.2603 11.8259C44.518 12.0707 44.7889 12.1546 45.0729 12.0776Z" fill="white"/>
<path d="M47.6296 12.9924C47.8449 12.9305 47.9896 12.8526 48.0638 12.7587C48.1405 12.6612 48.1568 12.4702 48.1126 12.1856L47.7474 9.83283C47.7166 9.63484 47.6764 9.4985 47.6268 9.42383C47.5498 9.3154 47.42 9.27535 47.2375 9.30369C47.2097 9.30801 47.1805 9.31412 47.15 9.32202C47.1227 9.32943 47.0878 9.3396 47.0455 9.35251L47.0203 9.19009C47.1413 9.13327 47.4265 8.99078 47.8759 8.76261L48.2897 8.55103C48.3114 8.54767 48.325 8.55349 48.3305 8.56847C48.339 8.58298 48.3455 8.60416 48.3498 8.632L48.4557 9.31416C48.699 9.00391 48.8935 8.7868 49.039 8.66283C49.2567 8.47378 49.4955 8.35908 49.7554 8.31874C49.9658 8.28608 50.167 8.31662 50.3589 8.41038C50.7296 8.59363 50.9617 8.98689 51.0554 9.59016L51.3918 11.7573C51.4264 11.98 51.4962 12.1339 51.6013 12.219C51.7064 12.3041 51.8644 12.3318 52.0752 12.3023L52.0954 12.4322L50.1139 12.7398L50.0937 12.6099C50.3147 12.5439 50.4629 12.4575 50.5382 12.3508C50.613 12.2409 50.626 12.0283 50.577 11.7127L50.2693 9.73119C50.228 9.46513 50.1444 9.25317 50.0185 9.09529C49.8922 8.93432 49.696 8.87449 49.4299 8.91579C49.2474 8.94413 49.0714 9.03482 48.9019 9.18787C48.8077 9.27535 48.6898 9.41405 48.5482 9.60395L48.9517 12.2026C48.9863 12.4254 49.0591 12.5677 49.1701 12.6297C49.2806 12.6886 49.4431 12.7046 49.6575 12.6776L49.6777 12.8075L47.6498 13.1224L47.6296 12.9924Z" fill="white"/>
<path d="M53.5543 12.5047C53.4044 12.5146 53.2744 12.4714 53.1646 12.375C53.0545 12.2756 52.9947 12.1525 52.985 12.0056C52.9754 11.8588 53.0187 11.7305 53.115 11.6206C53.2145 11.5105 53.3376 11.4507 53.4844 11.441C53.6313 11.4314 53.7596 11.4747 53.8695 11.571C53.9793 11.6674 54.0391 11.7889 54.0487 11.9358C54.0584 12.0826 54.0151 12.2125 53.919 12.3255C53.8258 12.4351 53.7043 12.4949 53.5543 12.5047Z" fill="white"/>
<path d="M59.0185 11.6709C59.0004 11.8264 59.0258 11.9333 59.0947 11.9918C59.1667 12.0506 59.3224 12.0939 59.5618 12.1217C60.3082 12.2084 60.9395 12.132 61.4559 11.8925C62.2488 11.5245 62.7089 10.7915 62.8365 9.69377C62.9502 8.71417 62.7311 7.94174 62.179 7.37648C61.7056 6.89286 61.0383 6.60102 60.1768 6.50097C59.9623 6.47604 59.8134 6.48239 59.7302 6.52001C59.6502 6.55799 59.6009 6.65628 59.5825 6.81488L59.0185 11.6709ZM57.143 12.0251C57.4957 12.0282 57.7299 11.9924 57.8457 11.9176C57.9619 11.8397 58.041 11.6204 58.0829 11.2597L58.5765 7.01006C58.6169 6.66176 58.5916 6.43189 58.5006 6.32046C58.4095 6.20902 58.1882 6.12028 57.8365 6.05422L57.8571 5.87696L60.4321 6.17603C61.2997 6.27681 62.017 6.5051 62.584 6.86092C63.6066 7.49974 64.0412 8.48 63.8876 9.80168C63.8324 10.2775 63.6819 10.7186 63.4361 11.125C63.1934 11.5317 62.859 11.8601 62.4329 12.11C62.1624 12.2677 61.8879 12.3792 61.6092 12.4446C61.1 12.5682 60.4894 12.5887 59.7772 12.506L57.123 12.1977L57.143 12.0251Z" fill="white"/>
<path d="M67.2293 9.38906C67.6562 9.50128 67.9911 9.74795 68.2341 10.129C68.4779 10.5071 68.5285 10.9671 68.386 11.5091L65.502 10.751C65.3476 11.4615 65.372 12.015 65.5753 12.4115C65.7786 12.8081 66.0771 13.0581 66.4707 13.1616C66.7886 13.2451 67.0785 13.2323 67.3403 13.1231C67.602 13.0139 67.8655 12.8306 68.1306 12.5734L68.2752 12.6696C68.05 13.0215 67.7233 13.316 67.2952 13.5531C66.8701 13.791 66.4108 13.8451 65.9173 13.7153C65.348 13.5657 64.964 13.2349 64.7651 12.723C64.5693 12.2118 64.545 11.6762 64.6922 11.116C64.8522 10.5074 65.1705 10.0294 65.647 9.68206C66.1235 9.33471 66.6509 9.23704 67.2293 9.38906ZM66.8787 9.65137C66.5335 9.56063 66.2299 9.6443 65.9678 9.90236C65.828 10.0404 65.7042 10.228 65.5965 10.4651L67.5132 10.9689C67.5595 10.6574 67.5612 10.4167 67.5185 10.2468C67.4402 9.94139 67.2269 9.7429 66.8787 9.65137Z" fill="white"/>
<path d="M68.8139 12.8803L68.9592 12.9342C68.9026 13.2938 68.8983 13.5844 68.9464 13.8059C69.0299 14.2109 69.2698 14.4869 69.6661 14.6339C69.8862 14.7155 70.0817 14.7196 70.2526 14.6461C70.4275 14.5707 70.5508 14.4362 70.6227 14.2424C70.6684 14.1192 70.6759 13.9867 70.6449 13.845C70.614 13.7033 70.5262 13.5438 70.3816 13.3666L69.993 12.9019C69.7038 12.5742 69.5106 12.2805 69.4133 12.0207C69.316 11.7609 69.3169 11.4974 69.416 11.2303C69.5379 10.9015 69.7555 10.675 70.0687 10.5508C70.382 10.4266 70.7162 10.4303 71.0713 10.5621C71.2269 10.6198 71.3863 10.7123 71.5494 10.8396C71.7155 10.968 71.8103 11.0365 71.8337 11.0453C71.8866 11.0649 71.9275 11.0717 71.9564 11.0657C71.9853 11.0597 72.0146 11.0439 72.0442 11.0181L72.1498 11.0573L71.725 12.2972L71.5885 12.2465C71.6354 11.94 71.6383 11.689 71.5973 11.4935C71.5242 11.1325 71.316 10.8882 70.9725 10.7609C70.7671 10.6846 70.5822 10.6879 70.418 10.7705C70.2538 10.8532 70.1401 10.9796 70.0769 11.1499C69.9767 11.4199 70.09 11.7358 70.4167 12.0974L70.8819 12.6256C71.3808 13.198 71.5464 13.7102 71.3787 14.1622C71.2503 14.5086 71.0146 14.7434 70.6717 14.8667C70.3317 14.991 69.9518 14.9753 69.5321 14.8196C69.356 14.7543 69.1672 14.6509 68.9659 14.5094C68.7646 14.368 68.6434 14.2896 68.6023 14.2744C68.5671 14.2613 68.5314 14.2631 68.4952 14.2797C68.4601 14.2934 68.4286 14.3151 68.4009 14.3449L68.2864 14.3024L68.8139 12.8803Z" fill="white"/>
<path d="M74.9114 10.3751C74.9693 10.2536 75.0616 10.1692 75.1881 10.122C75.3147 10.0749 75.4401 10.0809 75.5645 10.1402C75.686 10.1981 75.7682 10.2911 75.8113 10.4191C75.8585 10.5456 75.8524 10.6711 75.7931 10.7954C75.7352 10.917 75.6416 11.0006 75.5122 11.0465C75.387 11.0909 75.2636 11.0841 75.1421 11.0261C75.0178 10.9669 74.9334 10.8746 74.889 10.7494C74.846 10.6214 74.8535 10.4966 74.9114 10.3751ZM71.8165 15.4704C72.1324 15.5863 72.3474 15.6264 72.4615 15.5906C72.577 15.552 72.7136 15.3674 72.8712 15.0368L73.8352 13.0147C73.9227 12.831 73.9706 12.6978 73.9789 12.615C73.9917 12.4789 73.9303 12.3786 73.7947 12.3139C73.7636 12.2991 73.7312 12.2871 73.6974 12.2779C73.6664 12.2701 73.5709 12.2523 73.4107 12.2245L73.4733 12.0931L73.6839 12.1206C74.2553 12.1953 74.658 12.2382 74.892 12.2492C74.9873 12.253 75.0463 12.2603 75.0689 12.271C75.0651 12.2935 75.0578 12.3161 75.0471 12.3387L73.5961 15.3823C73.4425 15.7045 73.3844 15.9247 73.4216 16.0431C73.4617 16.1628 73.6134 16.2992 73.8767 16.4525L73.8201 16.5712L71.7599 15.5891L71.8165 15.4704Z" fill="white"/>
<path d="M74.6176 17.9588C74.483 18.1848 74.5165 18.4161 74.7181 18.6528C74.9223 18.891 75.1885 19.1079 75.5167 19.3034C75.9631 19.5694 76.3727 19.7077 76.7454 19.7183C77.1164 19.7317 77.3692 19.6253 77.5038 19.3994C77.6112 19.2192 77.5695 19.0322 77.3788 18.8385C77.2598 18.7202 77.0069 18.5422 76.6201 18.3045C76.5222 18.2425 76.4197 18.176 76.3126 18.1049C76.2039 18.0365 76.1055 17.9724 76.0172 17.9125C75.9597 17.8746 75.8706 17.807 75.75 17.7096C75.6294 17.6123 75.5409 17.5377 75.4843 17.4858C75.4521 17.4665 75.3222 17.504 75.0949 17.5981C74.8632 17.6934 74.7042 17.8136 74.6176 17.9588ZM76.3943 16.1693C76.1976 15.9428 76.0924 15.6852 76.0786 15.3963C76.0675 15.1091 76.1388 14.8364 76.2926 14.5782C76.4801 14.2635 76.783 14.0395 77.2014 13.9061C77.6198 13.7727 78.0576 13.8421 78.5148 14.1145C78.7112 14.2315 78.8996 14.4076 79.0803 14.6427C79.2625 14.8751 79.4625 15.0563 79.6804 15.186C79.7369 15.2197 79.8224 15.2688 79.9369 15.3334C80.0558 15.3969 80.1408 15.4439 80.1919 15.4744L80.2403 15.5032L80.0456 15.83L79.3477 15.4142C79.3288 15.556 79.308 15.6766 79.2852 15.776C79.238 15.9593 79.1727 16.1208 79.0894 16.2607C78.9067 16.5673 78.6107 16.7736 78.2014 16.8796C77.7964 16.9845 77.3787 16.9088 76.9483 16.6524C76.8811 16.6123 76.7672 16.5281 76.6068 16.3998C76.5288 16.3533 76.386 16.3575 76.1784 16.4124C75.9735 16.4689 75.8462 16.5388 75.7965 16.6222C75.7452 16.7083 75.8017 16.8276 75.966 16.9801C76.0737 17.0807 76.2028 17.1758 76.3535 17.2656C77.0447 17.6773 77.4908 17.9959 77.6918 18.2214C78.0226 18.5897 78.0639 18.9823 77.8155 19.3992C77.5624 19.8242 77.1224 20.0213 76.4958 19.9905C75.8718 19.9614 75.3177 19.8026 74.8335 19.5141C74.3924 19.2514 74.0965 18.953 73.9456 18.619C73.7932 18.2876 73.7754 18.0238 73.8924 17.8274C73.9501 17.7306 74.0406 17.6551 74.1639 17.6011C74.2883 17.5513 74.5058 17.495 74.8165 17.4323L75.2246 17.3529L75.3018 17.3333C75.207 17.2112 75.1422 17.1088 75.1076 17.0263C75.0497 16.8788 75.0528 16.7513 75.1168 16.6437C75.1761 16.5442 75.2867 16.4625 75.4487 16.3986C75.6149 16.3337 75.9301 16.2572 76.3943 16.1693ZM77.2089 16.5453C77.3568 16.6334 77.5046 16.6668 77.6522 16.6453C77.8905 16.6124 78.105 16.4359 78.2956 16.1158C78.4478 15.8603 78.5534 15.5332 78.6123 15.1346C78.6738 14.7377 78.5527 14.4487 78.2487 14.2676C77.9851 14.1106 77.7291 14.1275 77.4806 14.3183C77.3509 14.4197 77.2284 14.5672 77.1131 14.7608C76.9176 15.089 76.8215 15.4308 76.8248 15.7862C76.828 16.1416 76.9561 16.3947 77.2089 16.5453Z" fill="white"/>
<path d="M78.3263 19.0162C78.5202 19.1285 78.6767 19.1788 78.7957 19.1671C78.9192 19.1549 79.0681 19.0342 79.2426 18.805L80.6851 16.9107C80.8064 16.7513 80.8768 16.6279 80.8963 16.5403C80.921 16.4096 80.8599 16.2883 80.7129 16.1764C80.6905 16.1594 80.6659 16.1426 80.6391 16.1261C80.6148 16.1116 80.5833 16.0935 80.5446 16.0719L80.6442 15.9411C80.7691 15.989 81.0695 16.0958 81.5454 16.2614L81.9848 16.413C82.0023 16.4263 82.0075 16.4401 82.0005 16.4545C81.996 16.4707 81.9852 16.49 81.9681 16.5125L81.5499 17.0617C81.9422 17.022 82.2334 17.0116 82.4237 17.0305C82.7109 17.0564 82.9591 17.149 83.1683 17.3083C83.3377 17.4373 83.4552 17.6034 83.5207 17.8068C83.6455 18.2009 83.5231 18.6409 83.1532 19.1266L81.8246 20.8714C81.688 21.0507 81.6255 21.2078 81.6371 21.3425C81.6486 21.4772 81.7381 21.6103 81.9056 21.7417L81.8259 21.8464L80.2306 20.6315L80.3102 20.5269C80.511 20.6405 80.676 20.6874 80.8051 20.6677C80.9362 20.6455 81.0984 20.5073 81.2919 20.2533L82.5067 18.6579C82.6698 18.4437 82.7646 18.2365 82.7911 18.0363C82.8195 17.8336 82.7266 17.6507 82.5124 17.4876C82.3654 17.3757 82.178 17.3117 81.9502 17.2957C81.8219 17.2885 81.6402 17.2997 81.4052 17.3293L79.812 19.4216C79.6755 19.6009 79.6233 19.752 79.6556 19.875C79.6898 19.9955 79.7909 20.1236 79.959 20.2595L79.8794 20.3641L78.2466 19.1209L78.3263 19.0162Z" fill="white"/>
<path d="M82.791 22.944C82.6799 22.8429 82.6208 22.7194 82.6139 22.5734C82.6091 22.4252 82.6562 22.2966 82.7553 22.1878C82.8543 22.0789 82.9768 22.0211 83.1227 22.0142C83.271 22.0094 83.3995 22.0565 83.5084 22.1555C83.6172 22.2545 83.6751 22.377 83.682 22.523C83.6889 22.6689 83.6428 22.7963 83.5438 22.9051C83.4448 23.014 83.3213 23.073 83.1732 23.0822C83.0296 23.0912 82.9022 23.0452 82.791 22.944Z" fill="white"/>
<path d="M87.0578 26.1404C86.9336 26.2357 86.8745 26.3284 86.8805 26.4185C86.8884 26.5111 86.9657 26.653 87.1125 26.8443C87.5699 27.4404 88.0642 27.8405 88.5956 28.0444C89.4118 28.3573 90.2583 28.1775 91.1351 27.5047C91.9176 26.9044 92.3195 26.2093 92.3409 25.4195C92.3586 24.743 92.1034 24.0608 91.5755 23.3727C91.444 23.2013 91.3359 23.0989 91.2509 23.0654C91.168 23.0343 91.0631 23.0674 90.9364 23.1646L87.0578 26.1404ZM85.4979 25.0407C85.7411 25.296 85.9299 25.4392 86.0643 25.4703C86.2011 25.4995 86.4136 25.4035 86.7017 25.1825L90.0959 22.5783C90.3741 22.3649 90.5215 22.1867 90.5381 22.0437C90.5547 21.9008 90.4643 21.6801 90.267 21.3817L90.4085 21.273L91.9865 23.3297C92.5182 24.0227 92.8537 24.6966 92.993 25.3513C93.2463 26.5301 92.8452 27.5245 91.7895 28.3345C91.4095 28.626 90.988 28.8251 90.5252 28.9316C90.0642 29.0406 89.5957 29.0291 89.1196 28.8972C88.8182 28.8128 88.547 28.6934 88.3061 28.5388C87.8628 28.2594 87.423 27.8353 86.9865 27.2664L85.36 25.1464L85.4979 25.0407Z" fill="white"/>
<path d="M94.4329 30.4599C94.6504 30.8441 94.7074 31.2561 94.6039 31.6961C94.5031 32.1345 94.2089 32.4917 93.7212 32.7678L92.252 30.1728C91.6354 30.5579 91.256 30.9616 91.1137 31.3839C90.9714 31.8063 91.0006 32.1945 91.2011 32.5487C91.3631 32.8347 91.5745 33.0334 91.8354 33.1448C92.0963 33.2561 92.4114 33.3169 92.7806 33.3273L92.8125 33.4981C92.4033 33.5823 91.9644 33.5538 91.4959 33.4125C91.0289 33.274 90.6697 32.9826 90.4183 32.5386C90.1283 32.0264 90.0973 31.5205 90.3253 31.0208C90.5548 30.5239 90.9216 30.1328 91.4256 29.8474C91.9732 29.5374 92.5377 29.4319 93.119 29.5309C93.7003 29.6299 94.1383 29.9396 94.4329 30.4599ZM94.0004 30.3918C93.8245 30.0812 93.5528 29.9221 93.185 29.9144C92.9886 29.9105 92.7678 29.9528 92.5228 30.0411L93.4992 31.7656C93.7547 31.5814 93.9283 31.4148 94.0202 31.2656C94.1844 30.9964 94.1778 30.7051 94.0004 30.3918Z" fill="white"/>
<path d="M93.0373 34.0241L93.0998 34.1659C92.8022 34.3757 92.5907 34.575 92.4651 34.7638C92.2326 35.1057 92.2016 35.4701 92.372 35.8568C92.4667 36.0717 92.5999 36.2148 92.7717 36.2863C92.9476 36.3593 93.13 36.3542 93.3191 36.2708C93.4395 36.2178 93.5397 36.1309 93.6199 36.01C93.7 35.8891 93.7534 35.7151 93.7798 35.4879L93.8428 34.8854C93.8766 34.4497 93.9528 34.1065 94.0715 33.8557C94.1903 33.605 94.38 33.4222 94.6407 33.3073C94.9616 33.1659 95.2756 33.1643 95.5829 33.3026C95.8902 33.4409 96.1202 33.6834 96.273 34.03C96.3399 34.1819 96.3844 34.3607 96.4067 34.5664C96.4302 34.775 96.447 34.8908 96.4571 34.9137C96.4798 34.9653 96.5034 34.9993 96.5278 35.0159C96.5522 35.0326 96.584 35.0425 96.6231 35.0458L96.6685 35.1489L95.4828 35.7074L95.4241 35.5742C95.6768 35.3944 95.859 35.2217 95.9707 35.0562C96.179 34.7523 96.2092 34.4327 96.0615 34.0976C95.9731 33.897 95.8421 33.7666 95.6684 33.7063C95.4947 33.646 95.3248 33.6524 95.1586 33.7256C94.8951 33.8418 94.7472 34.143 94.7152 34.6293L94.6601 35.331C94.5966 36.0876 94.3443 36.5632 93.9031 36.7576C93.5651 36.9066 93.2324 36.9009 92.9052 36.7406C92.5792 36.5832 92.326 36.2996 92.1454 35.89C92.0697 35.7181 92.0125 35.5106 91.9738 35.2677C91.9352 35.0247 91.907 34.8831 91.8894 34.843C91.8742 34.8086 91.8481 34.7842 91.8109 34.7698C91.7766 34.7541 91.7391 34.7467 91.6985 34.7475L91.6492 34.6358L93.0373 34.0241Z" fill="white"/>
<path d="M99.0614 36.5837C99.1888 36.5402 99.3136 36.5472 99.4358 36.6048C99.558 36.6623 99.6413 36.7563 99.6858 36.8866C99.7293 37.014 99.7203 37.1379 99.6588 37.2581C99.6012 37.3803 99.5073 37.4636 99.3769 37.5081C99.2495 37.5516 99.1242 37.5431 99.001 37.4826C98.8818 37.424 98.8004 37.3311 98.7569 37.2037C98.7124 37.0733 98.7195 36.9485 98.778 36.8293C98.8395 36.709 98.934 36.6272 99.0614 36.5837ZM93.2539 37.9305C93.3918 38.2375 93.5134 38.4193 93.6187 38.4759C93.727 38.5316 93.9545 38.5003 94.3012 38.382L96.4212 37.6584C96.6138 37.5927 96.7425 37.5339 96.8075 37.4819C96.9138 37.396 96.9427 37.282 96.8942 37.1397C96.883 37.1071 96.869 37.0756 96.8519 37.045C96.8359 37.0174 96.7818 36.9366 96.6898 36.8026L96.8276 36.7556L96.955 36.9254C97.3009 37.3863 97.5516 37.7043 97.7073 37.8794C97.7712 37.9503 97.8072 37.9975 97.8153 38.0212C97.7966 38.0342 97.7753 38.0448 97.7516 38.0529L94.5606 39.142C94.2228 39.2572 94.0246 39.3695 93.966 39.4789C93.9084 39.5911 93.9167 39.795 93.9911 40.0905L93.8667 40.133L93.1295 37.973L93.2539 37.9305Z" fill="white"/>
<path d="M93.4326 41.6685C93.1768 41.7295 93.0343 41.9148 93.0052 42.2243C92.9768 42.5368 93.0069 42.8789 93.0955 43.2504C93.2161 43.7559 93.4026 44.1459 93.6548 44.4205C93.9039 44.6958 94.1564 44.8029 94.4122 44.7419C94.6162 44.6932 94.7212 44.5329 94.7272 44.2611C94.729 44.0933 94.6802 43.7879 94.581 43.3449C94.5571 43.2315 94.5333 43.1117 94.5096 42.9854C94.4829 42.8598 94.4602 42.7445 94.4416 42.6395C94.4287 42.5718 94.415 42.4608 94.4007 42.3065C94.3865 42.1522 94.3782 42.0366 94.376 41.9599C94.3673 41.9234 94.2499 41.8564 94.0239 41.7591C93.7941 41.6594 93.597 41.6292 93.4326 41.6685ZM95.9541 41.6944C95.9794 41.3955 96.0907 41.1404 96.2881 40.9291C96.4863 40.7209 96.7315 40.5819 97.0239 40.5122C97.3802 40.4271 97.752 40.4881 98.1393 40.695C98.5266 40.9019 98.7821 41.2642 98.9056 41.7819C98.9586 42.0042 98.9638 42.2621 98.9212 42.5555C98.8816 42.8482 98.8912 43.1178 98.9501 43.3645C98.9654 43.4284 98.9898 43.524 99.0233 43.6512C99.0607 43.7807 99.0863 43.8744 99.1001 43.9322L99.1131 43.987L98.7431 44.0753L98.5546 43.2851C98.4398 43.3704 98.3388 43.4396 98.2516 43.4925C98.0874 43.5865 97.9261 43.6523 97.7677 43.6901C97.4205 43.7729 97.0663 43.7046 96.7049 43.485C96.3473 43.2678 96.1104 42.9156 95.9941 42.4284C95.9759 42.3522 95.9569 42.2119 95.9371 42.0074C95.916 41.9191 95.8134 41.8197 95.6294 41.7091C95.446 41.6016 95.3071 41.5591 95.2127 41.5816C95.1152 41.6049 95.0691 41.7285 95.0743 41.9526C95.0773 42.1 95.0991 42.2589 95.1398 42.4294C95.3266 43.2121 95.4092 43.754 95.3877 44.0552C95.3543 44.5492 95.1016 44.8525 94.6296 44.9652C94.1485 45.08 93.7005 44.902 93.2856 44.4313C92.8714 43.9637 92.599 43.4558 92.4682 42.9076C92.349 42.4082 92.3566 41.988 92.4908 41.647C92.622 41.3066 92.7988 41.11 93.0211 41.0569C93.1307 41.0308 93.2479 41.043 93.3727 41.0937C93.4951 41.1482 93.6871 41.2649 93.9487 41.4439L94.2901 41.6811L94.358 41.7228C94.3794 41.5697 94.4076 41.4519 94.4427 41.3695C94.508 41.2251 94.6016 41.1384 94.7234 41.1094C94.8361 41.0825 94.9718 41.1048 95.1305 41.1764C95.2929 41.2503 95.5675 41.4229 95.9541 41.6944ZM96.2526 42.5405C96.2926 42.708 96.3717 42.8372 96.4899 42.928C96.6797 43.0759 96.9558 43.1065 97.3181 43.0201C97.6074 42.951 97.9155 42.7987 98.2423 42.563C98.5698 42.3303 98.6925 42.042 98.6103 41.6978C98.5391 41.3994 98.3485 41.2277 98.0384 41.1826C97.8754 41.1603 97.6842 41.1753 97.465 41.2277C97.0934 41.3163 96.7814 41.4857 96.5289 41.7359C96.2764 41.986 96.1843 42.2542 96.2526 42.5405Z" fill="white"/>
<path d="M95.2747 45.1105C95.3292 45.3278 95.402 45.4751 95.4933 45.5525C95.5881 45.6325 95.7784 45.6554 96.0644 45.6211L98.4284 45.3373C98.6273 45.3134 98.7649 45.278 98.8413 45.231C98.9523 45.1577 98.9968 45.0294 98.9748 44.846C98.9714 44.818 98.9663 44.7887 98.9595 44.758C98.953 44.7304 98.9441 44.6952 98.9326 44.6524L99.0958 44.6328C99.1484 44.7558 99.281 45.0457 99.4935 45.5027L99.6907 45.9236C99.6933 45.9454 99.687 45.9587 99.6718 45.9637C99.657 45.9718 99.6356 45.9775 99.6077 45.9809L98.9223 46.0632C99.2239 46.317 99.4342 46.5188 99.5531 46.6685C99.7345 46.8927 99.8409 47.1353 99.8722 47.3964C99.8976 47.6078 99.8601 47.8078 99.7598 47.9964C99.5638 48.3605 99.1628 48.5789 98.5566 48.6517L96.3792 48.9131C96.1554 48.94 95.9992 49.0044 95.9105 49.1065C95.8219 49.2086 95.7887 49.3655 95.8109 49.5773L95.6804 49.5929L95.4414 47.602L95.5719 47.5863C95.6302 47.8095 95.7114 47.9606 95.8155 48.0395C95.9227 48.1181 96.1348 48.1384 96.4519 48.1003L98.4428 47.8613C98.7102 47.8292 98.9249 47.753 99.087 47.6326C99.2523 47.5119 99.3188 47.3178 99.2867 47.0505C99.2647 46.8671 99.1802 46.6881 99.0331 46.5134C98.9489 46.4163 98.8143 46.2937 98.6294 46.1456L96.0184 46.4591C95.7946 46.4859 95.6498 46.5538 95.584 46.6625C95.5213 46.771 95.4998 46.9328 95.5193 47.148L95.3888 47.1637L95.1442 45.1261L95.2747 45.1105Z" fill="white"/>
</svg>
