<svg width="196" height="235" viewBox="0 0 196 235" fill="none" xmlns="http://www.w3.org/2000/svg">
<path d="M129.081 234.25L195.25 234.25L195.25 146.598C195.25 92.6626 151.653 48.75 98 48.75C44.3468 48.75 0.75 92.6626 0.75 146.598L0.75 234.25L66.919 234.25L66.919 146.598C66.919 129.319 80.8925 115.293 98 115.293C115.111 115.293 129.081 129.319 129.081 146.598L129.081 234.25Z" stroke="#232323" stroke-width="1.5"/>
<path d="M129.081 210.25L195.25 210.25L195.25 122.598C195.25 68.6626 151.653 24.75 98 24.75C44.3468 24.75 0.75 68.6626 0.75 122.598L0.75 210.25L66.919 210.25L66.919 122.598C66.919 105.319 80.8925 91.293 98 91.293C115.111 91.293 129.081 105.319 129.081 122.598L129.081 210.25Z" stroke="#232323" stroke-width="1.5"/>
<path d="M129.081 186.25L195.25 186.25L195.25 98.598C195.25 44.6626 151.653 0.75 98 0.75C44.3468 0.75 0.75 44.6626 0.75 98.598L0.75 186.25L66.919 186.25L66.919 98.598C66.919 81.3191 80.8925 67.293 98 67.293C115.111 67.293 129.081 81.3191 129.081 98.598L129.081 186.25Z" stroke="#232323" stroke-width="1.5"/>
</svg>
