<svg width="395" height="93" viewBox="0 0 395 93" fill="none" xmlns="http://www.w3.org/2000/svg">
<g filter="url(#filter0_dd_866_1255)">
<rect x="8.5" y="8.5" width="378" height="76" rx="38" stroke="black" shape-rendering="crispEdges"/>
<path d="M52.42 53.78V56H42.82V53.78H46.336V43.664C46.336 43.264 46.348 42.852 46.372 42.428L43.876 44.516C43.732 44.628 43.588 44.7 43.444 44.732C43.308 44.756 43.176 44.756 43.048 44.732C42.928 44.708 42.82 44.668 42.724 44.612C42.628 44.548 42.556 44.48 42.508 44.408L41.572 43.124L46.864 38.624H49.3V53.78H52.42ZM66.3419 53.78V56H56.7419V53.78H60.2579V43.664C60.2579 43.264 60.2699 42.852 60.2939 42.428L57.7979 44.516C57.6539 44.628 57.5099 44.7 57.3659 44.732C57.2299 44.756 57.0979 44.756 56.9699 44.732C56.8499 44.708 56.7419 44.668 56.6459 44.612C56.5499 44.548 56.4779 44.48 56.4299 44.408L55.4939 43.124L60.7859 38.624H63.2219V53.78H66.3419ZM69.1398 43.484C69.2598 42.652 69.4918 41.924 69.8358 41.3C70.1798 40.668 70.6078 40.144 71.1198 39.728C71.6398 39.304 72.2318 38.988 72.8958 38.78C73.5678 38.564 74.2878 38.456 75.0558 38.456C75.8558 38.456 76.5758 38.572 77.2158 38.804C77.8638 39.028 78.4158 39.344 78.8718 39.752C79.3278 40.152 79.6758 40.624 79.9158 41.168C80.1638 41.712 80.2878 42.3 80.2878 42.932C80.2878 43.484 80.2238 43.972 80.0958 44.396C79.9758 44.812 79.7998 45.176 79.5678 45.488C79.3358 45.8 79.0478 46.064 78.7038 46.28C78.3598 46.496 77.9718 46.676 77.5398 46.82C78.5798 47.148 79.3558 47.648 79.8678 48.32C80.3798 48.992 80.6358 49.836 80.6358 50.852C80.6358 51.716 80.4758 52.48 80.1558 53.144C79.8358 53.808 79.4038 54.368 78.8598 54.824C78.3158 55.272 77.6838 55.612 76.9638 55.844C76.2518 56.076 75.4958 56.192 74.6958 56.192C73.8238 56.192 73.0638 56.092 72.4158 55.892C71.7678 55.692 71.2038 55.396 70.7238 55.004C70.2438 54.612 69.8358 54.132 69.4998 53.564C69.1638 52.996 68.8758 52.34 68.6357 51.596L69.9438 51.056C70.2878 50.912 70.6078 50.876 70.9038 50.948C71.2078 51.012 71.4278 51.172 71.5638 51.428C71.7078 51.708 71.8638 51.984 72.0318 52.256C72.2078 52.528 72.4158 52.772 72.6558 52.988C72.8958 53.196 73.1758 53.368 73.4958 53.504C73.8238 53.632 74.2118 53.696 74.6598 53.696C75.1638 53.696 75.6038 53.616 75.9798 53.456C76.3558 53.288 76.6678 53.072 76.9158 52.808C77.1718 52.544 77.3598 52.252 77.4798 51.932C77.6078 51.604 77.6718 51.276 77.6718 50.948C77.6718 50.532 77.6278 50.156 77.5398 49.82C77.4518 49.476 77.2678 49.184 76.9878 48.944C76.7078 48.704 76.3038 48.516 75.7758 48.38C75.2558 48.244 74.5558 48.176 73.6758 48.176V46.064C74.4038 46.056 75.0078 45.988 75.4878 45.86C75.9678 45.732 76.3478 45.556 76.6278 45.332C76.9158 45.1 77.1158 44.824 77.2278 44.504C77.3398 44.184 77.3958 43.832 77.3958 43.448C77.3958 42.632 77.1678 42.012 76.7118 41.588C76.2558 41.164 75.6478 40.952 74.8878 40.952C74.5358 40.952 74.2118 41.004 73.9158 41.108C73.6198 41.204 73.3518 41.344 73.1118 41.528C72.8798 41.704 72.6838 41.912 72.5238 42.152C72.3638 42.392 72.2438 42.656 72.1638 42.944C72.0278 43.312 71.8478 43.556 71.6238 43.676C71.4078 43.796 71.0998 43.824 70.6998 43.76L69.1398 43.484ZM94.5816 49.04H89.9256V53.984H87.5136V49.04H82.8816V46.844H87.5136V41.924H89.9256V46.844H94.5816V49.04Z" fill="#222327"/>
<path d="M179.772 53.24C180.092 53.24 180.344 53.332 180.528 53.516C180.72 53.692 180.816 53.928 180.816 54.224V56H168.912V55.016C168.912 54.816 168.952 54.608 169.032 54.392C169.12 54.168 169.256 53.968 169.44 53.792L174.708 48.512C175.148 48.064 175.54 47.636 175.884 47.228C176.236 46.82 176.528 46.416 176.76 46.016C176.992 45.616 177.168 45.212 177.288 44.804C177.416 44.388 177.48 43.952 177.48 43.496C177.48 43.08 177.42 42.716 177.3 42.404C177.18 42.084 177.008 41.816 176.784 41.6C176.568 41.384 176.304 41.224 175.992 41.12C175.688 41.008 175.344 40.952 174.96 40.952C174.608 40.952 174.28 41.004 173.976 41.108C173.68 41.204 173.416 41.344 173.184 41.528C172.952 41.704 172.756 41.912 172.596 42.152C172.436 42.392 172.316 42.656 172.236 42.944C172.1 43.312 171.924 43.556 171.708 43.676C171.492 43.796 171.18 43.824 170.772 43.76L169.212 43.484C169.332 42.652 169.564 41.924 169.908 41.3C170.252 40.668 170.68 40.144 171.192 39.728C171.712 39.304 172.304 38.988 172.968 38.78C173.64 38.564 174.36 38.456 175.128 38.456C175.928 38.456 176.66 38.576 177.324 38.816C177.988 39.048 178.556 39.38 179.028 39.812C179.5 40.244 179.868 40.764 180.132 41.372C180.396 41.98 180.528 42.656 180.528 43.4C180.528 44.04 180.432 44.632 180.24 45.176C180.056 45.72 179.804 46.24 179.484 46.736C179.172 47.232 178.804 47.712 178.38 48.176C177.956 48.64 177.512 49.112 177.048 49.592L173.136 53.588C173.512 53.476 173.884 53.392 174.252 53.336C174.628 53.272 174.984 53.24 175.32 53.24H179.772ZM195.026 38.648V39.932C195.026 40.316 194.986 40.628 194.906 40.868C194.826 41.1 194.746 41.296 194.666 41.456L188.09 54.992C187.954 55.272 187.762 55.512 187.514 55.712C187.266 55.904 186.934 56 186.518 56H184.37L191.078 42.74C191.23 42.468 191.378 42.22 191.522 41.996C191.674 41.764 191.842 41.544 192.026 41.336H183.722C183.538 41.336 183.378 41.268 183.242 41.132C183.106 40.996 183.038 40.836 183.038 40.652V38.648H195.026ZM204.388 49.46V43.784C204.388 43.248 204.424 42.656 204.496 42.008L199.108 49.46H204.388ZM209.152 49.46V51.176C209.152 51.336 209.1 51.476 208.996 51.596C208.892 51.708 208.744 51.764 208.552 51.764H206.968V56H204.388V51.764H197.068C196.868 51.764 196.692 51.704 196.54 51.584C196.388 51.456 196.292 51.3 196.252 51.116L195.94 49.616L204.16 38.636H206.968V49.46H209.152ZM214.926 45.92H215.682C215.986 45.92 216.238 45.88 216.438 45.8C216.638 45.712 216.81 45.576 216.954 45.392L221.742 39.332C221.942 39.076 222.15 38.9 222.366 38.804C222.59 38.7 222.87 38.648 223.206 38.648H225.99L220.146 45.86C219.802 46.3 219.446 46.612 219.078 46.796C219.342 46.892 219.578 47.028 219.786 47.204C220.002 47.372 220.206 47.596 220.398 47.876L226.422 56H223.578C223.194 56 222.906 55.948 222.714 55.844C222.53 55.732 222.374 55.572 222.246 55.364L217.338 48.956C217.186 48.74 217.01 48.588 216.81 48.5C216.61 48.412 216.322 48.368 215.946 48.368H214.926V56H211.698V38.648H214.926V45.92Z" fill="#222327"/>
<path d="M311.42 53.78V56H301.82V53.78H305.336V43.664C305.336 43.264 305.348 42.852 305.372 42.428L302.876 44.516C302.732 44.628 302.588 44.7 302.444 44.732C302.308 44.756 302.176 44.756 302.048 44.732C301.928 44.708 301.82 44.668 301.724 44.612C301.628 44.548 301.556 44.48 301.508 44.408L300.572 43.124L305.864 38.624H308.3V53.78H311.42ZM326.026 38.648V39.932C326.026 40.316 325.986 40.628 325.906 40.868C325.826 41.1 325.746 41.296 325.666 41.456L319.09 54.992C318.954 55.272 318.762 55.512 318.514 55.712C318.266 55.904 317.934 56 317.518 56H315.37L322.078 42.74C322.23 42.468 322.378 42.22 322.522 41.996C322.674 41.764 322.842 41.544 323.026 41.336H314.722C314.538 41.336 314.378 41.268 314.242 41.132C314.106 40.996 314.038 40.836 314.038 40.652V38.648H326.026ZM330.804 43.856C330.804 44.824 331.052 45.564 331.548 46.076C332.052 46.58 332.764 46.832 333.684 46.832C334.164 46.832 334.592 46.756 334.968 46.604C335.344 46.452 335.66 46.244 335.916 45.98C336.172 45.716 336.364 45.404 336.492 45.044C336.628 44.684 336.696 44.296 336.696 43.88C336.696 43.408 336.624 42.988 336.48 42.62C336.336 42.244 336.132 41.928 335.868 41.672C335.604 41.416 335.288 41.22 334.92 41.084C334.56 40.948 334.164 40.88 333.732 40.88C333.284 40.88 332.88 40.956 332.52 41.108C332.16 41.252 331.852 41.456 331.596 41.72C331.34 41.984 331.144 42.3 331.008 42.668C330.872 43.028 330.804 43.424 330.804 43.856ZM334.74 49.268C334.876 49.1 335.004 48.936 335.124 48.776C335.244 48.616 335.36 48.456 335.472 48.296C335.072 48.552 334.632 48.748 334.152 48.884C333.672 49.012 333.168 49.076 332.64 49.076C332.04 49.076 331.452 48.972 330.876 48.764C330.3 48.556 329.788 48.244 329.34 47.828C328.892 47.404 328.528 46.884 328.248 46.268C327.976 45.644 327.84 44.916 327.84 44.084C327.84 43.308 327.984 42.58 328.272 41.9C328.56 41.22 328.964 40.624 329.484 40.112C330.004 39.6 330.628 39.196 331.356 38.9C332.084 38.604 332.888 38.456 333.768 38.456C334.656 38.456 335.452 38.596 336.156 38.876C336.868 39.156 337.472 39.548 337.968 40.052C338.472 40.556 338.856 41.16 339.12 41.864C339.392 42.568 339.528 43.34 339.528 44.18C339.528 44.716 339.48 45.224 339.384 45.704C339.296 46.184 339.168 46.648 339 47.096C338.832 47.536 338.628 47.968 338.388 48.392C338.148 48.816 337.88 49.236 337.584 49.652L333.612 55.316C333.476 55.508 333.272 55.672 333 55.808C332.728 55.936 332.42 56 332.076 56H329.352L334.74 49.268ZM353.582 49.04H348.926V53.984H346.514V49.04H341.882V46.844H346.514V41.924H348.926V46.844H353.582V49.04Z" fill="#222327"/>
</g>
<defs>
<filter id="filter0_dd_866_1255" x="0" y="0" width="395" height="93" filterUnits="userSpaceOnUse" color-interpolation-filters="sRGB">
<feFlood flood-opacity="0" result="BackgroundImageFix"/>
<feColorMatrix in="SourceAlpha" type="matrix" values="0 0 0 0 0 0 0 0 0 0 0 0 0 0 0 0 0 0 127 0" result="hardAlpha"/>
<feOffset dx="8" dy="8"/>
<feComposite in2="hardAlpha" operator="out"/>
<feColorMatrix type="matrix" values="0 0 0 0 0.137255 0 0 0 0 0.137255 0 0 0 0 0.137255 0 0 0 1 0"/>
<feBlend mode="normal" in2="BackgroundImageFix" result="effect1_dropShadow_866_1255"/>
<feColorMatrix in="SourceAlpha" type="matrix" values="0 0 0 0 0 0 0 0 0 0 0 0 0 0 0 0 0 0 127 0" result="hardAlpha"/>
<feOffset dx="-8" dy="-8"/>
<feComposite in2="hardAlpha" operator="out"/>
<feColorMatrix type="matrix" values="0 0 0 0 0 0 0 0 0 0 0 0 0 0 0 0 0 0 1 0"/>
<feBlend mode="normal" in2="effect1_dropShadow_866_1255" result="effect2_dropShadow_866_1255"/>
<feBlend mode="normal" in="SourceGraphic" in2="effect2_dropShadow_866_1255" result="shape"/>
</filter>
</defs>
</svg>
