<svg width="310" height="238" viewBox="0 0 310 238" fill="none" xmlns="http://www.w3.org/2000/svg">
<g filter="url(#filter0_ii_860_385)">
<rect width="310" height="238" rx="16" fill="url(#paint0_linear_860_385)" fill-opacity="0.25"/>
<rect x="0.5" y="0.5" width="309" height="237" rx="15.5" stroke="url(#paint1_linear_860_385)"/>
<g clip-path="url(#clip0_860_385)">
<path d="M37.9998 47.0265L46.2398 51.9998L44.0532 42.6265L51.3332 36.3198L41.7465 35.5065L37.9998 26.6665L34.2532 35.5065L24.6665 36.3198L31.9465 42.6265L29.7598 51.9998L37.9998 47.0265Z" fill="white" fill-opacity="0.9"/>
</g>
<path d="M23.08 81H33.16V83.52H29.44V95H26.8V83.52H23.08V81ZM35.9861 92.6H39.3461V87.48H36.2261V85.08H41.8661V92.6H44.7461V95H35.9861V92.6ZM42.4861 82.14C42.4861 82.4067 42.4328 82.66 42.3261 82.9C42.2328 83.1267 42.0994 83.3267 41.9261 83.5C41.7528 83.66 41.5461 83.7933 41.3061 83.9C41.0794 83.9933 40.8394 84.04 40.5861 84.04C40.3194 84.04 40.0728 83.9933 39.8461 83.9C39.6194 83.7933 39.4194 83.66 39.2461 83.5C39.0728 83.3267 38.9328 83.1267 38.8261 82.9C38.7328 82.66 38.6861 82.4067 38.6861 82.14C38.6861 81.8733 38.7328 81.6267 38.8261 81.4C38.9328 81.16 39.0728 80.96 39.2461 80.8C39.4194 80.6267 39.6194 80.4933 39.8461 80.4C40.0728 80.2933 40.3194 80.24 40.5861 80.24C40.8394 80.24 41.0794 80.2933 41.3061 80.4C41.5461 80.4933 41.7528 80.6267 41.9261 80.8C42.0994 80.96 42.2328 81.16 42.3261 81.4C42.4328 81.6267 42.4861 81.8733 42.4861 82.14ZM47.7722 85.08H50.7122V81H53.2322V85.08H56.8122V87.48H53.2322V92C53.2322 92.4 53.4122 92.6 53.7722 92.6H56.4522V95H52.2522C51.7989 95 51.4255 94.8533 51.1322 94.56C50.8522 94.2667 50.7122 93.8933 50.7122 93.44V87.48H47.7722V85.08ZM60.2383 92.6H63.7183V83.4H60.3583V81H66.2383V92.6H69.4783V95H60.2383V92.6ZM74.7644 90.86C74.7777 91.1533 74.8444 91.4267 74.9644 91.68C75.0977 91.92 75.271 92.1333 75.4844 92.32C75.711 92.4933 75.9644 92.6333 76.2444 92.74C76.5377 92.8333 76.8444 92.88 77.1644 92.88C77.791 92.88 78.271 92.7733 78.6044 92.56C78.9377 92.3333 79.1777 92.0667 79.3244 91.76L81.4844 92.96C81.3644 93.2133 81.1977 93.48 80.9844 93.76C80.771 94.0267 80.491 94.2733 80.1444 94.5C79.811 94.7267 79.3977 94.9133 78.9044 95.06C78.4244 95.2067 77.8577 95.28 77.2044 95.28C76.4577 95.28 75.7777 95.16 75.1644 94.92C74.551 94.68 74.0177 94.3333 73.5644 93.88C73.1244 93.4267 72.7777 92.8733 72.5244 92.22C72.2844 91.5667 72.1644 90.8267 72.1644 90V89.88C72.1644 89.12 72.291 88.4267 72.5444 87.8C72.811 87.1733 73.171 86.64 73.6244 86.2C74.0777 85.76 74.6044 85.42 75.2044 85.18C75.8177 84.9267 76.471 84.8 77.1644 84.8C78.0177 84.8 78.751 84.9533 79.3644 85.26C79.9777 85.5533 80.4844 85.9333 80.8844 86.4C81.2844 86.8533 81.5777 87.36 81.7644 87.92C81.951 88.4667 82.0444 89 82.0444 89.52V90.86H74.7644ZM77.1444 87.08C76.5044 87.08 75.9844 87.2467 75.5844 87.58C75.1844 87.9 74.9244 88.2733 74.8044 88.7H79.4844C79.4044 88.2333 79.151 87.8467 78.7244 87.54C78.311 87.2333 77.7844 87.08 77.1444 87.08Z" fill="white"/>
<path d="M23.392 124.8H24.736V134.752H30.592V136H23.392V124.8ZM40.6769 132.128C40.6769 132.789 40.5649 133.376 40.3409 133.888C40.1275 134.389 39.8395 134.816 39.4769 135.168C39.1142 135.509 38.6875 135.771 38.1969 135.952C37.7169 136.133 37.2155 136.224 36.6929 136.224C36.1595 136.224 35.6529 136.133 35.1729 135.952C34.6929 135.771 34.2715 135.509 33.9089 135.168C33.5462 134.816 33.2529 134.389 33.0289 133.888C32.8155 133.376 32.7089 132.789 32.7089 132.128V131.936C32.7089 131.285 32.8155 130.709 33.0289 130.208C33.2529 129.696 33.5462 129.264 33.9089 128.912C34.2822 128.56 34.7089 128.293 35.1889 128.112C35.6689 127.931 36.1702 127.84 36.6929 127.84C37.2155 127.84 37.7169 127.931 38.1969 128.112C38.6769 128.293 39.0982 128.56 39.4609 128.912C39.8342 129.264 40.1275 129.696 40.3409 130.208C40.5649 130.709 40.6769 131.285 40.6769 131.936V132.128ZM36.6929 135.04C37.0769 135.04 37.4289 134.976 37.7489 134.848C38.0795 134.709 38.3675 134.512 38.6129 134.256C38.8582 134 39.0502 133.696 39.1889 133.344C39.3275 132.981 39.3969 132.576 39.3969 132.128V131.936C39.3969 131.509 39.3275 131.12 39.1889 130.768C39.0502 130.405 38.8582 130.096 38.6129 129.84C38.3675 129.584 38.0795 129.387 37.7489 129.248C37.4182 129.099 37.0662 129.024 36.6929 129.024C36.3195 129.024 35.9675 129.099 35.6369 129.248C35.3062 129.387 35.0182 129.584 34.7729 129.84C34.5275 130.096 34.3355 130.405 34.1969 130.768C34.0582 131.12 33.9889 131.509 33.9889 131.936V132.128C33.9889 132.576 34.0582 132.981 34.1969 133.344C34.3355 133.696 34.5275 134 34.7729 134.256C35.0182 134.512 35.3009 134.709 35.6209 134.848C35.9515 134.976 36.3089 135.04 36.6929 135.04ZM42.5378 128.064H45.4178V129.12H45.6098C45.8124 128.683 46.1004 128.363 46.4738 128.16C46.8471 127.947 47.2738 127.84 47.7538 127.84C48.5538 127.84 49.1991 128.101 49.6898 128.624C50.1804 129.147 50.4418 129.909 50.4738 130.912L49.1618 131.104C49.1618 130.368 48.9858 129.84 48.6338 129.52C48.2818 129.189 47.8498 129.024 47.3378 129.024C47.0071 129.024 46.7191 129.088 46.4738 129.216C46.2391 129.344 46.0418 129.52 45.8818 129.744C45.7218 129.968 45.6044 130.229 45.5298 130.528C45.4551 130.827 45.4178 131.147 45.4178 131.488V134.848H47.4338V136H42.3458V134.848H44.1698V129.216H42.5378V128.064ZM53.6946 132.416C53.7266 133.205 53.972 133.84 54.4306 134.32C54.8893 134.8 55.5293 135.04 56.3506 135.04C56.724 135.04 57.0493 134.997 57.3266 134.912C57.604 134.827 57.8386 134.709 58.0306 134.56C58.2333 134.411 58.3933 134.24 58.5106 134.048C58.6386 133.845 58.74 133.632 58.8146 133.408L59.9986 133.728C59.7746 134.464 59.3586 135.067 58.7506 135.536C58.1533 135.995 57.3426 136.224 56.3186 136.224C55.7533 136.224 55.2306 136.128 54.7506 135.936C54.2813 135.733 53.876 135.451 53.5346 135.088C53.1933 134.725 52.9266 134.293 52.7346 133.792C52.5426 133.291 52.4466 132.736 52.4466 132.128V131.744C52.4466 131.189 52.5426 130.672 52.7346 130.192C52.9373 129.712 53.2146 129.301 53.5666 128.96C53.9186 128.608 54.3293 128.336 54.7986 128.144C55.2786 127.941 55.796 127.84 56.3506 127.84C57.0013 127.84 57.5613 127.963 58.0306 128.208C58.5106 128.443 58.9 128.736 59.1986 129.088C59.508 129.44 59.732 129.824 59.8706 130.24C60.02 130.656 60.0946 131.04 60.0946 131.392V132.416H53.6946ZM56.3506 129.024C55.9986 129.024 55.668 129.083 55.3586 129.2C55.06 129.307 54.7933 129.461 54.5586 129.664C54.3346 129.867 54.148 130.107 53.9986 130.384C53.86 130.651 53.7693 130.944 53.7266 131.264H58.8466C58.8253 130.923 58.74 130.613 58.5906 130.336C58.452 130.059 58.2653 129.824 58.0306 129.632C57.8066 129.44 57.5453 129.291 57.2466 129.184C56.9586 129.077 56.66 129.024 56.3506 129.024ZM70.2115 136H68.9635V130.304C68.9635 129.931 68.8782 129.627 68.7075 129.392C68.5368 129.147 68.2648 129.024 67.8915 129.024C67.5395 129.024 67.2515 129.157 67.0275 129.424C66.8142 129.68 66.7075 130.08 66.7075 130.624V136H65.4595V130.24C65.4595 129.888 65.3635 129.6 65.1715 129.376C64.9795 129.141 64.7235 129.024 64.4035 129.024C64.0195 129.024 63.7208 129.163 63.5075 129.44C63.3048 129.717 63.2035 130.08 63.2035 130.528V136H61.9555V128.064H63.2035V128.928H63.3955C63.5342 128.555 63.7368 128.283 64.0035 128.112C64.2702 127.931 64.5848 127.84 64.9475 127.84C65.3315 127.84 65.6462 127.941 65.8915 128.144C66.1475 128.347 66.3235 128.608 66.4195 128.928H66.6115C66.9742 128.203 67.5502 127.84 68.3395 127.84C68.9368 127.84 69.3955 128.032 69.7155 128.416C70.0462 128.789 70.2115 129.28 70.2115 129.888V136ZM84.6373 125.696C84.6373 125.387 84.7439 125.125 84.9573 124.912C85.1813 124.688 85.4479 124.576 85.7573 124.576C86.0666 124.576 86.3279 124.688 86.5413 124.912C86.7653 125.125 86.8773 125.387 86.8773 125.696C86.8773 126.005 86.7653 126.272 86.5413 126.496C86.3279 126.709 86.0666 126.816 85.7573 126.816C85.4479 126.816 85.1813 126.709 84.9573 126.496C84.7439 126.272 84.6373 126.005 84.6373 125.696ZM82.3653 134.848H85.1493V129.216H82.6533V128.064H86.3973V134.848H88.9893V136H82.3653V134.848ZM92.9301 139.2H91.6821V128.064H92.9301V129.312H93.1221C93.3995 128.832 93.7835 128.469 94.2741 128.224C94.7648 127.968 95.2981 127.84 95.8741 127.84C96.3648 127.84 96.8288 127.931 97.2661 128.112C97.7035 128.293 98.0875 128.555 98.4181 128.896C98.7595 129.237 99.0261 129.659 99.2181 130.16C99.4208 130.661 99.5221 131.232 99.5221 131.872V132.192C99.5221 132.843 99.4261 133.419 99.2341 133.92C99.0421 134.421 98.7755 134.843 98.4341 135.184C98.1035 135.525 97.7141 135.787 97.2661 135.968C96.8181 136.139 96.3435 136.224 95.8421 136.224C95.5861 136.224 95.3248 136.192 95.0581 136.128C94.7915 136.075 94.5355 135.989 94.2901 135.872C94.0555 135.744 93.8368 135.595 93.6341 135.424C93.4315 135.243 93.2608 135.029 93.1221 134.784H92.9301V139.2ZM95.5861 135.04C95.9701 135.04 96.3221 134.976 96.6421 134.848C96.9621 134.709 97.2395 134.517 97.4741 134.272C97.7195 134.027 97.9061 133.728 98.0341 133.376C98.1728 133.024 98.2421 132.629 98.2421 132.192V131.872C98.2421 131.445 98.1728 131.061 98.0341 130.72C97.9061 130.368 97.7195 130.069 97.4741 129.824C97.2395 129.568 96.9568 129.371 96.6261 129.232C96.3061 129.093 95.9595 129.024 95.5861 129.024C95.2128 129.024 94.8661 129.099 94.5461 129.248C94.2261 129.387 93.9435 129.584 93.6981 129.84C93.4635 130.096 93.2768 130.405 93.1381 130.768C92.9995 131.12 92.9301 131.509 92.9301 131.936V132.128C92.9301 132.565 92.9995 132.965 93.1381 133.328C93.2768 133.68 93.4635 133.984 93.6981 134.24C93.9435 134.496 94.2261 134.693 94.5461 134.832C94.8661 134.971 95.2128 135.04 95.5861 135.04ZM103.415 130.112C103.415 130.496 103.575 130.789 103.895 130.992C104.226 131.195 104.823 131.328 105.687 131.392C106.615 131.467 107.319 131.691 107.799 132.064C108.29 132.427 108.535 132.96 108.535 133.664V133.76C108.535 134.144 108.455 134.491 108.295 134.8C108.146 135.099 107.932 135.355 107.655 135.568C107.388 135.781 107.058 135.941 106.663 136.048C106.279 136.165 105.858 136.224 105.399 136.224C104.78 136.224 104.247 136.144 103.799 135.984C103.362 135.813 102.994 135.595 102.695 135.328C102.407 135.051 102.188 134.741 102.039 134.4C101.89 134.048 101.804 133.696 101.783 133.344L102.967 133.056C103.02 133.664 103.255 134.155 103.671 134.528C104.087 134.891 104.642 135.072 105.335 135.072C105.922 135.072 106.391 134.96 106.743 134.736C107.106 134.501 107.287 134.176 107.287 133.76C107.287 133.312 107.111 132.992 106.759 132.8C106.407 132.608 105.836 132.485 105.047 132.432C104.13 132.368 103.426 132.155 102.935 131.792C102.444 131.429 102.199 130.901 102.199 130.208V130.112C102.199 129.739 102.279 129.413 102.439 129.136C102.599 128.848 102.812 128.608 103.079 128.416C103.356 128.224 103.666 128.08 104.007 127.984C104.348 127.888 104.706 127.84 105.079 127.84C105.602 127.84 106.06 127.915 106.455 128.064C106.85 128.203 107.18 128.389 107.447 128.624C107.714 128.848 107.916 129.109 108.055 129.408C108.204 129.707 108.3 130.005 108.343 130.304L107.159 130.592C107.106 130.08 106.898 129.68 106.535 129.392C106.183 129.104 105.719 128.96 105.143 128.96C104.919 128.96 104.7 128.987 104.487 129.04C104.284 129.083 104.103 129.152 103.943 129.248C103.783 129.344 103.655 129.467 103.559 129.616C103.463 129.755 103.415 129.92 103.415 130.112ZM117.228 128.064H118.476V136H117.228V134.56H117.036C116.78 135.072 116.444 135.477 116.028 135.776C115.612 136.075 115.084 136.224 114.444 136.224C114.007 136.224 113.601 136.149 113.228 136C112.865 135.861 112.551 135.648 112.284 135.36C112.028 135.072 111.825 134.715 111.676 134.288C111.537 133.861 111.468 133.365 111.468 132.8V128.064H112.716V132.64C112.716 133.472 112.887 134.08 113.228 134.464C113.569 134.848 114.092 135.04 114.796 135.04C115.553 135.04 116.145 134.784 116.572 134.272C117.009 133.749 117.228 133.056 117.228 132.192V128.064ZM128.993 136H127.745V130.304C127.745 129.931 127.659 129.627 127.489 129.392C127.318 129.147 127.046 129.024 126.673 129.024C126.321 129.024 126.033 129.157 125.809 129.424C125.595 129.68 125.489 130.08 125.489 130.624V136H124.241V130.24C124.241 129.888 124.145 129.6 123.953 129.376C123.761 129.141 123.505 129.024 123.185 129.024C122.801 129.024 122.502 129.163 122.289 129.44C122.086 129.717 121.985 130.08 121.985 130.528V136H120.737V128.064H121.985V128.928H122.177C122.315 128.555 122.518 128.283 122.785 128.112C123.051 127.931 123.366 127.84 123.729 127.84C124.113 127.84 124.427 127.941 124.673 128.144C124.929 128.347 125.105 128.608 125.201 128.928H125.393C125.755 128.203 126.331 127.84 127.121 127.84C127.718 127.84 128.177 128.032 128.497 128.416C128.827 128.789 128.993 129.28 128.993 129.888V136ZM147.099 134.784H146.907C146.779 135.029 146.613 135.243 146.411 135.424C146.219 135.605 146.005 135.755 145.771 135.872C145.547 135.989 145.307 136.075 145.051 136.128C144.795 136.192 144.549 136.224 144.315 136.224C143.781 136.224 143.285 136.133 142.827 135.952C142.368 135.771 141.963 135.509 141.611 135.168C141.269 134.827 140.997 134.405 140.795 133.904C140.603 133.392 140.507 132.811 140.507 132.16V131.904C140.507 131.264 140.608 130.693 140.811 130.192C141.013 129.68 141.285 129.253 141.627 128.912C141.968 128.56 142.368 128.293 142.827 128.112C143.285 127.931 143.771 127.84 144.283 127.84C144.827 127.84 145.333 127.963 145.803 128.208C146.283 128.443 146.651 128.811 146.907 129.312H147.099V124.8H148.347V136H147.099V134.784ZM144.443 135.04C144.816 135.04 145.163 134.971 145.483 134.832C145.803 134.693 146.08 134.496 146.315 134.24C146.56 133.984 146.752 133.68 146.891 133.328C147.029 132.965 147.099 132.565 147.099 132.128V131.936C147.099 131.509 147.029 131.12 146.891 130.768C146.752 130.405 146.56 130.096 146.315 129.84C146.08 129.584 145.797 129.387 145.467 129.248C145.147 129.099 144.805 129.024 144.443 129.024C144.069 129.024 143.717 129.093 143.387 129.232C143.067 129.371 142.784 129.568 142.539 129.824C142.304 130.08 142.117 130.384 141.979 130.736C141.851 131.088 141.787 131.477 141.787 131.904V132.16C141.787 132.608 141.851 133.008 141.979 133.36C142.117 133.712 142.304 134.016 142.539 134.272C142.784 134.517 143.067 134.709 143.387 134.848C143.707 134.976 144.059 135.04 144.443 135.04ZM158.239 132.128C158.239 132.789 158.127 133.376 157.903 133.888C157.69 134.389 157.402 134.816 157.039 135.168C156.677 135.509 156.25 135.771 155.759 135.952C155.279 136.133 154.778 136.224 154.255 136.224C153.722 136.224 153.215 136.133 152.735 135.952C152.255 135.771 151.834 135.509 151.471 135.168C151.109 134.816 150.815 134.389 150.591 133.888C150.378 133.376 150.271 132.789 150.271 132.128V131.936C150.271 131.285 150.378 130.709 150.591 130.208C150.815 129.696 151.109 129.264 151.471 128.912C151.845 128.56 152.271 128.293 152.751 128.112C153.231 127.931 153.733 127.84 154.255 127.84C154.778 127.84 155.279 127.931 155.759 128.112C156.239 128.293 156.661 128.56 157.023 128.912C157.397 129.264 157.69 129.696 157.903 130.208C158.127 130.709 158.239 131.285 158.239 131.936V132.128ZM154.255 135.04C154.639 135.04 154.991 134.976 155.311 134.848C155.642 134.709 155.93 134.512 156.175 134.256C156.421 134 156.613 133.696 156.751 133.344C156.89 132.981 156.959 132.576 156.959 132.128V131.936C156.959 131.509 156.89 131.12 156.751 130.768C156.613 130.405 156.421 130.096 156.175 129.84C155.93 129.584 155.642 129.387 155.311 129.248C154.981 129.099 154.629 129.024 154.255 129.024C153.882 129.024 153.53 129.099 153.199 129.248C152.869 129.387 152.581 129.584 152.335 129.84C152.09 130.096 151.898 130.405 151.759 130.768C151.621 131.12 151.551 131.509 151.551 131.936V132.128C151.551 132.576 151.621 132.981 151.759 133.344C151.898 133.696 152.09 134 152.335 134.256C152.581 134.512 152.863 134.709 153.183 134.848C153.514 134.976 153.871 135.04 154.255 135.04ZM160.548 134.848H163.428V125.952H160.644V124.8H164.676V134.848H167.556V136H160.548V134.848ZM177.833 132.128C177.833 132.789 177.721 133.376 177.497 133.888C177.284 134.389 176.996 134.816 176.633 135.168C176.27 135.509 175.844 135.771 175.353 135.952C174.873 136.133 174.372 136.224 173.849 136.224C173.316 136.224 172.809 136.133 172.329 135.952C171.849 135.771 171.428 135.509 171.065 135.168C170.702 134.816 170.409 134.389 170.185 133.888C169.972 133.376 169.865 132.789 169.865 132.128V131.936C169.865 131.285 169.972 130.709 170.185 130.208C170.409 129.696 170.702 129.264 171.065 128.912C171.438 128.56 171.865 128.293 172.345 128.112C172.825 127.931 173.326 127.84 173.849 127.84C174.372 127.84 174.873 127.931 175.353 128.112C175.833 128.293 176.254 128.56 176.617 128.912C176.99 129.264 177.284 129.696 177.497 130.208C177.721 130.709 177.833 131.285 177.833 131.936V132.128ZM173.849 135.04C174.233 135.04 174.585 134.976 174.905 134.848C175.236 134.709 175.524 134.512 175.769 134.256C176.014 134 176.206 133.696 176.345 133.344C176.484 132.981 176.553 132.576 176.553 132.128V131.936C176.553 131.509 176.484 131.12 176.345 130.768C176.206 130.405 176.014 130.096 175.769 129.84C175.524 129.584 175.236 129.387 174.905 129.248C174.574 129.099 174.222 129.024 173.849 129.024C173.476 129.024 173.124 129.099 172.793 129.248C172.462 129.387 172.174 129.584 171.929 129.84C171.684 130.096 171.492 130.405 171.353 130.768C171.214 131.12 171.145 131.509 171.145 131.936V132.128C171.145 132.576 171.214 132.981 171.353 133.344C171.492 133.696 171.684 134 171.929 134.256C172.174 134.512 172.457 134.709 172.777 134.848C173.108 134.976 173.465 135.04 173.849 135.04ZM179.694 128.064H182.574V129.12H182.766C182.969 128.683 183.257 128.363 183.63 128.16C184.003 127.947 184.43 127.84 184.91 127.84C185.71 127.84 186.355 128.101 186.846 128.624C187.337 129.147 187.598 129.909 187.63 130.912L186.318 131.104C186.318 130.368 186.142 129.84 185.79 129.52C185.438 129.189 185.006 129.024 184.494 129.024C184.163 129.024 183.875 129.088 183.63 129.216C183.395 129.344 183.198 129.52 183.038 129.744C182.878 129.968 182.761 130.229 182.686 130.528C182.611 130.827 182.574 131.147 182.574 131.488V134.848H184.59V136H179.502V134.848H181.326V129.216H179.694V128.064ZM201.384 130.112C201.384 130.496 201.544 130.789 201.864 130.992C202.194 131.195 202.792 131.328 203.656 131.392C204.584 131.467 205.288 131.691 205.768 132.064C206.258 132.427 206.504 132.96 206.504 133.664V133.76C206.504 134.144 206.424 134.491 206.264 134.8C206.114 135.099 205.901 135.355 205.624 135.568C205.357 135.781 205.026 135.941 204.632 136.048C204.248 136.165 203.826 136.224 203.368 136.224C202.749 136.224 202.216 136.144 201.768 135.984C201.33 135.813 200.962 135.595 200.664 135.328C200.376 135.051 200.157 134.741 200.008 134.4C199.858 134.048 199.773 133.696 199.752 133.344L200.936 133.056C200.989 133.664 201.224 134.155 201.64 134.528C202.056 134.891 202.61 135.072 203.304 135.072C203.89 135.072 204.36 134.96 204.712 134.736C205.074 134.501 205.256 134.176 205.256 133.76C205.256 133.312 205.08 132.992 204.728 132.8C204.376 132.608 203.805 132.485 203.016 132.432C202.098 132.368 201.394 132.155 200.904 131.792C200.413 131.429 200.168 130.901 200.168 130.208V130.112C200.168 129.739 200.248 129.413 200.408 129.136C200.568 128.848 200.781 128.608 201.048 128.416C201.325 128.224 201.634 128.08 201.976 127.984C202.317 127.888 202.674 127.84 203.048 127.84C203.57 127.84 204.029 127.915 204.424 128.064C204.818 128.203 205.149 128.389 205.416 128.624C205.682 128.848 205.885 129.109 206.024 129.408C206.173 129.707 206.269 130.005 206.312 130.304L205.128 130.592C205.074 130.08 204.866 129.68 204.504 129.392C204.152 129.104 203.688 128.96 203.112 128.96C202.888 128.96 202.669 128.987 202.456 129.04C202.253 129.083 202.072 129.152 201.912 129.248C201.752 129.344 201.624 129.467 201.528 129.616C201.432 129.755 201.384 129.92 201.384 130.112ZM211.997 125.696C211.997 125.387 212.103 125.125 212.317 124.912C212.541 124.688 212.807 124.576 213.117 124.576C213.426 124.576 213.687 124.688 213.901 124.912C214.125 125.125 214.237 125.387 214.237 125.696C214.237 126.005 214.125 126.272 213.901 126.496C213.687 126.709 213.426 126.816 213.117 126.816C212.807 126.816 212.541 126.709 212.317 126.496C212.103 126.272 211.997 126.005 211.997 125.696ZM209.725 134.848H212.509V129.216H210.013V128.064H213.757V134.848H216.349V136H209.725V134.848ZM219.058 128.064H221.554V124.8H222.802V128.064H225.874V129.216H222.802V134.368C222.802 134.688 222.946 134.848 223.234 134.848H225.49V136H222.786C222.423 136 222.124 135.883 221.89 135.648C221.666 135.413 221.554 135.115 221.554 134.752V129.216H219.058V128.064ZM244.683 134.656H244.491C244.235 135.189 243.878 135.584 243.419 135.84C242.971 136.096 242.497 136.224 241.995 136.224C241.473 136.224 240.987 136.139 240.539 135.968C240.091 135.787 239.697 135.525 239.355 135.184C239.025 134.832 238.763 134.405 238.571 133.904C238.379 133.403 238.283 132.821 238.283 132.16V131.904C238.283 131.253 238.379 130.677 238.571 130.176C238.763 129.675 239.025 129.253 239.355 128.912C239.697 128.56 240.091 128.293 240.539 128.112C240.987 127.931 241.462 127.84 241.963 127.84C242.507 127.84 242.998 127.963 243.435 128.208C243.883 128.443 244.235 128.811 244.491 129.312H244.683V128.064H245.931V134.368C245.931 134.688 246.075 134.848 246.363 134.848H246.763V136H245.915C245.553 136 245.254 135.883 245.019 135.648C244.795 135.413 244.683 135.115 244.683 134.752V134.656ZM242.123 135.04C242.497 135.04 242.838 134.971 243.147 134.832C243.467 134.693 243.739 134.496 243.963 134.24C244.187 133.984 244.363 133.68 244.491 133.328C244.619 132.965 244.683 132.565 244.683 132.128V131.936C244.683 131.509 244.619 131.12 244.491 130.768C244.363 130.405 244.182 130.096 243.947 129.84C243.723 129.584 243.451 129.387 243.131 129.248C242.822 129.099 242.486 129.024 242.123 129.024C241.75 129.024 241.409 129.093 241.099 129.232C240.79 129.371 240.518 129.568 240.283 129.824C240.059 130.069 239.883 130.373 239.755 130.736C239.627 131.088 239.563 131.477 239.563 131.904V132.16C239.563 133.067 239.798 133.776 240.267 134.288C240.747 134.789 241.366 135.04 242.123 135.04ZM256.352 136H255.104V130.304C255.104 129.931 255.019 129.627 254.848 129.392C254.677 129.147 254.405 129.024 254.032 129.024C253.68 129.024 253.392 129.157 253.168 129.424C252.955 129.68 252.848 130.08 252.848 130.624V136H251.6V130.24C251.6 129.888 251.504 129.6 251.312 129.376C251.12 129.141 250.864 129.024 250.544 129.024C250.16 129.024 249.861 129.163 249.648 129.44C249.445 129.717 249.344 130.08 249.344 130.528V136H248.096V128.064H249.344V128.928H249.536C249.675 128.555 249.877 128.283 250.144 128.112C250.411 127.931 250.725 127.84 251.088 127.84C251.472 127.84 251.787 127.941 252.032 128.144C252.288 128.347 252.464 128.608 252.56 128.928H252.752C253.115 128.203 253.691 127.84 254.48 127.84C255.077 127.84 255.536 128.032 255.856 128.416C256.187 128.789 256.352 129.28 256.352 129.888V136ZM259.429 132.416C259.461 133.205 259.706 133.84 260.165 134.32C260.624 134.8 261.264 135.04 262.085 135.04C262.458 135.04 262.784 134.997 263.061 134.912C263.338 134.827 263.573 134.709 263.765 134.56C263.968 134.411 264.128 134.24 264.245 134.048C264.373 133.845 264.474 133.632 264.549 133.408L265.733 133.728C265.509 134.464 265.093 135.067 264.485 135.536C263.888 135.995 263.077 136.224 262.053 136.224C261.488 136.224 260.965 136.128 260.485 135.936C260.016 135.733 259.61 135.451 259.269 135.088C258.928 134.725 258.661 134.293 258.469 133.792C258.277 133.291 258.181 132.736 258.181 132.128V131.744C258.181 131.189 258.277 130.672 258.469 130.192C258.672 129.712 258.949 129.301 259.301 128.96C259.653 128.608 260.064 128.336 260.533 128.144C261.013 127.941 261.53 127.84 262.085 127.84C262.736 127.84 263.296 127.963 263.765 128.208C264.245 128.443 264.634 128.736 264.933 129.088C265.242 129.44 265.466 129.824 265.605 130.24C265.754 130.656 265.829 131.04 265.829 131.392V132.416H259.429ZM262.085 129.024C261.733 129.024 261.402 129.083 261.093 129.2C260.794 129.307 260.528 129.461 260.293 129.664C260.069 129.867 259.882 130.107 259.733 130.384C259.594 130.651 259.504 130.944 259.461 131.264H264.581C264.56 130.923 264.474 130.613 264.325 130.336C264.186 130.059 264 129.824 263.765 129.632C263.541 129.44 263.28 129.291 262.981 129.184C262.693 129.077 262.394 129.024 262.085 129.024ZM268.042 128.064H270.538V124.8H271.786V128.064H274.858V129.216H271.786V134.368C271.786 134.688 271.93 134.848 272.218 134.848H274.474V136H271.77C271.407 136 271.109 135.883 270.874 135.648C270.65 135.413 270.538 135.115 270.538 134.752V129.216H268.042V128.064ZM280.495 135.104C280.495 134.795 280.601 134.533 280.815 134.32C281.039 134.096 281.305 133.984 281.615 133.984C281.924 133.984 282.185 134.096 282.399 134.32C282.623 134.533 282.735 134.795 282.735 135.104V136.672C282.735 137.035 282.617 137.333 282.383 137.568C282.159 137.803 281.865 137.92 281.503 137.92H280.687V137.056H281.439C281.727 137.056 281.871 136.896 281.871 136.576V136.176C281.785 136.208 281.695 136.224 281.599 136.224C281.3 136.224 281.039 136.117 280.815 135.904C280.601 135.68 280.495 135.413 280.495 135.104ZM30.816 157.184C30.7307 157.621 30.5813 158.027 30.368 158.4C30.1653 158.773 29.904 159.099 29.584 159.376C29.264 159.643 28.8907 159.851 28.464 160C28.0373 160.149 27.5627 160.224 27.04 160.224C26.4853 160.224 25.9573 160.133 25.456 159.952C24.9653 159.771 24.5333 159.509 24.16 159.168C23.7867 158.816 23.488 158.389 23.264 157.888C23.0507 157.387 22.944 156.811 22.944 156.16V155.968C22.944 155.328 23.0507 154.752 23.264 154.24C23.488 153.728 23.7867 153.296 24.16 152.944C24.5333 152.592 24.9653 152.32 25.456 152.128C25.9573 151.936 26.4853 151.84 27.04 151.84C27.5413 151.84 28.0053 151.915 28.432 152.064C28.8587 152.213 29.232 152.427 29.552 152.704C29.8827 152.971 30.1493 153.291 30.352 153.664C30.5653 154.037 30.7093 154.443 30.784 154.88L29.536 155.168C29.504 154.891 29.424 154.624 29.296 154.368C29.1787 154.101 29.0133 153.872 28.8 153.68C28.5973 153.477 28.3467 153.317 28.048 153.2C27.7493 153.083 27.4027 153.024 27.008 153.024C26.624 153.024 26.2613 153.099 25.92 153.248C25.5893 153.387 25.296 153.589 25.04 153.856C24.784 154.112 24.5813 154.421 24.432 154.784C24.2933 155.147 24.224 155.541 24.224 155.968V156.16C24.224 156.608 24.2933 157.013 24.432 157.376C24.5813 157.728 24.784 158.027 25.04 158.272C25.296 158.517 25.5947 158.709 25.936 158.848C26.2773 158.976 26.6453 159.04 27.04 159.04C27.4347 159.04 27.776 158.981 28.064 158.864C28.3627 158.736 28.6133 158.576 28.816 158.384C29.0293 158.181 29.1947 157.952 29.312 157.696C29.44 157.44 29.5253 157.173 29.568 156.896L30.816 157.184ZM40.6769 156.128C40.6769 156.789 40.5649 157.376 40.3409 157.888C40.1275 158.389 39.8395 158.816 39.4769 159.168C39.1142 159.509 38.6875 159.771 38.1969 159.952C37.7169 160.133 37.2155 160.224 36.6929 160.224C36.1595 160.224 35.6529 160.133 35.1729 159.952C34.6929 159.771 34.2715 159.509 33.9089 159.168C33.5462 158.816 33.2529 158.389 33.0289 157.888C32.8155 157.376 32.7089 156.789 32.7089 156.128V155.936C32.7089 155.285 32.8155 154.709 33.0289 154.208C33.2529 153.696 33.5462 153.264 33.9089 152.912C34.2822 152.56 34.7089 152.293 35.1889 152.112C35.6689 151.931 36.1702 151.84 36.6929 151.84C37.2155 151.84 37.7169 151.931 38.1969 152.112C38.6769 152.293 39.0982 152.56 39.4609 152.912C39.8342 153.264 40.1275 153.696 40.3409 154.208C40.5649 154.709 40.6769 155.285 40.6769 155.936V156.128ZM36.6929 159.04C37.0769 159.04 37.4289 158.976 37.7489 158.848C38.0795 158.709 38.3675 158.512 38.6129 158.256C38.8582 158 39.0502 157.696 39.1889 157.344C39.3275 156.981 39.3969 156.576 39.3969 156.128V155.936C39.3969 155.509 39.3275 155.12 39.1889 154.768C39.0502 154.405 38.8582 154.096 38.6129 153.84C38.3675 153.584 38.0795 153.387 37.7489 153.248C37.4182 153.099 37.0662 153.024 36.6929 153.024C36.3195 153.024 35.9675 153.099 35.6369 153.248C35.3062 153.387 35.0182 153.584 34.7729 153.84C34.5275 154.096 34.3355 154.405 34.1969 154.768C34.0582 155.12 33.9889 155.509 33.9889 155.936V156.128C33.9889 156.576 34.0582 156.981 34.1969 157.344C34.3355 157.696 34.5275 158 34.7729 158.256C35.0182 158.512 35.3009 158.709 35.6209 158.848C35.9515 158.976 36.3089 159.04 36.6929 159.04ZM44.2338 160H42.9858V152.064H44.2338V153.408H44.4258C44.9164 152.363 45.7698 151.84 46.9858 151.84C47.9031 151.84 48.6338 152.128 49.1778 152.704C49.7218 153.269 49.9938 154.123 49.9938 155.264V160H48.7458V155.52C48.7458 154.688 48.5591 154.064 48.1858 153.648C47.8124 153.232 47.3058 153.024 46.6658 153.024C45.9084 153.024 45.3111 153.285 44.8738 153.808C44.4471 154.32 44.2338 155.008 44.2338 155.872V160ZM54.4306 154.112C54.4306 154.496 54.5906 154.789 54.9106 154.992C55.2413 155.195 55.8386 155.328 56.7026 155.392C57.6306 155.467 58.3346 155.691 58.8146 156.064C59.3053 156.427 59.5506 156.96 59.5506 157.664V157.76C59.5506 158.144 59.4706 158.491 59.3106 158.8C59.1613 159.099 58.948 159.355 58.6706 159.568C58.404 159.781 58.0733 159.941 57.6786 160.048C57.2946 160.165 56.8733 160.224 56.4146 160.224C55.796 160.224 55.2626 160.144 54.8146 159.984C54.3773 159.813 54.0093 159.595 53.7106 159.328C53.4226 159.051 53.204 158.741 53.0546 158.4C52.9053 158.048 52.82 157.696 52.7986 157.344L53.9826 157.056C54.036 157.664 54.2706 158.155 54.6866 158.528C55.1026 158.891 55.6573 159.072 56.3506 159.072C56.9373 159.072 57.4066 158.96 57.7586 158.736C58.1213 158.501 58.3026 158.176 58.3026 157.76C58.3026 157.312 58.1266 156.992 57.7746 156.8C57.4226 156.608 56.852 156.485 56.0626 156.432C55.1453 156.368 54.4413 156.155 53.9506 155.792C53.46 155.429 53.2146 154.901 53.2146 154.208V154.112C53.2146 153.739 53.2946 153.413 53.4546 153.136C53.6146 152.848 53.828 152.608 54.0946 152.416C54.372 152.224 54.6813 152.08 55.0226 151.984C55.364 151.888 55.7213 151.84 56.0946 151.84C56.6173 151.84 57.076 151.915 57.4706 152.064C57.8653 152.203 58.196 152.389 58.4626 152.624C58.7293 152.848 58.932 153.109 59.0706 153.408C59.22 153.707 59.316 154.005 59.3586 154.304L58.1746 154.592C58.1213 154.08 57.9133 153.68 57.5506 153.392C57.1986 153.104 56.7346 152.96 56.1586 152.96C55.9346 152.96 55.716 152.987 55.5026 153.04C55.3 153.083 55.1186 153.152 54.9586 153.248C54.7986 153.344 54.6706 153.467 54.5746 153.616C54.4786 153.755 54.4306 153.92 54.4306 154.112ZM63.4915 156.416C63.5235 157.205 63.7688 157.84 64.2275 158.32C64.6862 158.8 65.3262 159.04 66.1475 159.04C66.5208 159.04 66.8462 158.997 67.1235 158.912C67.4008 158.827 67.6355 158.709 67.8275 158.56C68.0302 158.411 68.1902 158.24 68.3075 158.048C68.4355 157.845 68.5368 157.632 68.6115 157.408L69.7955 157.728C69.5715 158.464 69.1555 159.067 68.5475 159.536C67.9502 159.995 67.1395 160.224 66.1155 160.224C65.5502 160.224 65.0275 160.128 64.5475 159.936C64.0782 159.733 63.6728 159.451 63.3315 159.088C62.9902 158.725 62.7235 158.293 62.5315 157.792C62.3395 157.291 62.2435 156.736 62.2435 156.128V155.744C62.2435 155.189 62.3395 154.672 62.5315 154.192C62.7342 153.712 63.0115 153.301 63.3635 152.96C63.7155 152.608 64.1262 152.336 64.5955 152.144C65.0755 151.941 65.5928 151.84 66.1475 151.84C66.7982 151.84 67.3582 151.963 67.8275 152.208C68.3075 152.443 68.6968 152.736 68.9955 153.088C69.3048 153.44 69.5288 153.824 69.6675 154.24C69.8168 154.656 69.8915 155.04 69.8915 155.392V156.416H63.4915ZM66.1475 153.024C65.7955 153.024 65.4648 153.083 65.1555 153.2C64.8568 153.307 64.5902 153.461 64.3555 153.664C64.1315 153.867 63.9448 154.107 63.7955 154.384C63.6568 154.651 63.5662 154.944 63.5235 155.264H68.6435C68.6222 154.923 68.5368 154.613 68.3875 154.336C68.2488 154.059 68.0622 153.824 67.8275 153.632C67.6035 153.44 67.3422 153.291 67.0435 153.184C66.7555 153.077 66.4568 153.024 66.1475 153.024ZM79.8004 157.184C79.715 157.621 79.5657 158.027 79.3524 158.4C79.1497 158.773 78.8884 159.099 78.5684 159.376C78.2484 159.643 77.875 159.851 77.4484 160C77.0217 160.149 76.547 160.224 76.0244 160.224C75.4697 160.224 74.9417 160.133 74.4404 159.952C73.9497 159.771 73.5177 159.509 73.1444 159.168C72.771 158.816 72.4724 158.389 72.2484 157.888C72.035 157.387 71.9284 156.811 71.9284 156.16V155.968C71.9284 155.328 72.035 154.752 72.2484 154.24C72.4724 153.728 72.771 153.296 73.1444 152.944C73.5177 152.592 73.9497 152.32 74.4404 152.128C74.9417 151.936 75.4697 151.84 76.0244 151.84C76.5257 151.84 76.9897 151.915 77.4164 152.064C77.843 152.213 78.2164 152.427 78.5364 152.704C78.867 152.971 79.1337 153.291 79.3364 153.664C79.5497 154.037 79.6937 154.443 79.7684 154.88L78.5204 155.168C78.4884 154.891 78.4084 154.624 78.2804 154.368C78.163 154.101 77.9977 153.872 77.7844 153.68C77.5817 153.477 77.331 153.317 77.0324 153.2C76.7337 153.083 76.387 153.024 75.9924 153.024C75.6084 153.024 75.2457 153.099 74.9044 153.248C74.5737 153.387 74.2804 153.589 74.0244 153.856C73.7684 154.112 73.5657 154.421 73.4164 154.784C73.2777 155.147 73.2084 155.541 73.2084 155.968V156.16C73.2084 156.608 73.2777 157.013 73.4164 157.376C73.5657 157.728 73.7684 158.027 74.0244 158.272C74.2804 158.517 74.579 158.709 74.9204 158.848C75.2617 158.976 75.6297 159.04 76.0244 159.04C76.419 159.04 76.7604 158.981 77.0484 158.864C77.347 158.736 77.5977 158.576 77.8004 158.384C78.0137 158.181 78.179 157.952 78.2964 157.696C78.4244 157.44 78.5097 157.173 78.5524 156.896L79.8004 157.184ZM81.9013 152.064H84.3973V148.8H85.6453V152.064H88.7173V153.216H85.6453V158.368C85.6453 158.688 85.7893 158.848 86.0773 158.848H88.3333V160H85.6293C85.2666 160 84.9679 159.883 84.7333 159.648C84.5093 159.413 84.3973 159.115 84.3973 158.752V153.216H81.9013V152.064ZM92.8821 156.416C92.9141 157.205 93.1595 157.84 93.6181 158.32C94.0768 158.8 94.7168 159.04 95.5381 159.04C95.9115 159.04 96.2368 158.997 96.5141 158.912C96.7915 158.827 97.0261 158.709 97.2181 158.56C97.4208 158.411 97.5808 158.24 97.6981 158.048C97.8261 157.845 97.9275 157.632 98.0021 157.408L99.1861 157.728C98.9621 158.464 98.5461 159.067 97.9381 159.536C97.3408 159.995 96.5301 160.224 95.5061 160.224C94.9408 160.224 94.4181 160.128 93.9381 159.936C93.4688 159.733 93.0635 159.451 92.7221 159.088C92.3808 158.725 92.1141 158.293 91.9221 157.792C91.7301 157.291 91.6341 156.736 91.6341 156.128V155.744C91.6341 155.189 91.7301 154.672 91.9221 154.192C92.1248 153.712 92.4021 153.301 92.7541 152.96C93.1061 152.608 93.5168 152.336 93.9861 152.144C94.4661 151.941 94.9835 151.84 95.5381 151.84C96.1888 151.84 96.7488 151.963 97.2181 152.208C97.6981 152.443 98.0875 152.736 98.3861 153.088C98.6955 153.44 98.9195 153.824 99.0581 154.24C99.2075 154.656 99.2821 155.04 99.2821 155.392V156.416H92.8821ZM95.5381 153.024C95.1861 153.024 94.8555 153.083 94.5461 153.2C94.2475 153.307 93.9808 153.461 93.7461 153.664C93.5221 153.867 93.3355 154.107 93.1861 154.384C93.0475 154.651 92.9568 154.944 92.9141 155.264H98.0341C98.0128 154.923 97.9275 154.613 97.7781 154.336C97.6395 154.059 97.4528 153.824 97.2181 153.632C96.9941 153.44 96.7328 153.291 96.4341 153.184C96.1461 153.077 95.8475 153.024 95.5381 153.024ZM101.495 152.064H103.991V148.8H105.239V152.064H108.311V153.216H105.239V158.368C105.239 158.688 105.383 158.848 105.671 158.848H107.927V160H105.223C104.86 160 104.562 159.883 104.327 159.648C104.103 159.413 103.991 159.115 103.991 158.752V153.216H101.495V152.064ZM117.228 152.064H118.476V160H117.228V158.56H117.036C116.78 159.072 116.444 159.477 116.028 159.776C115.612 160.075 115.084 160.224 114.444 160.224C114.007 160.224 113.601 160.149 113.228 160C112.865 159.861 112.551 159.648 112.284 159.36C112.028 159.072 111.825 158.715 111.676 158.288C111.537 157.861 111.468 157.365 111.468 156.8V152.064H112.716V156.64C112.716 157.472 112.887 158.08 113.228 158.464C113.569 158.848 114.092 159.04 114.796 159.04C115.553 159.04 116.145 158.784 116.572 158.272C117.009 157.749 117.228 157.056 117.228 156.192V152.064ZM120.913 152.064H123.793V153.12H123.985C124.187 152.683 124.475 152.363 124.849 152.16C125.222 151.947 125.649 151.84 126.129 151.84C126.929 151.84 127.574 152.101 128.065 152.624C128.555 153.147 128.817 153.909 128.849 154.912L127.537 155.104C127.537 154.368 127.361 153.84 127.009 153.52C126.657 153.189 126.225 153.024 125.713 153.024C125.382 153.024 125.094 153.088 124.849 153.216C124.614 153.344 124.417 153.52 124.257 153.744C124.097 153.968 123.979 154.229 123.905 154.528C123.83 154.827 123.793 155.147 123.793 155.488V158.848H125.809V160H120.721V158.848H122.545V153.216H120.913V152.064ZM146.715 158.656H146.523C146.267 159.189 145.909 159.584 145.451 159.84C145.003 160.096 144.528 160.224 144.027 160.224C143.504 160.224 143.019 160.139 142.571 159.968C142.123 159.787 141.728 159.525 141.387 159.184C141.056 158.832 140.795 158.405 140.603 157.904C140.411 157.403 140.315 156.821 140.315 156.16V155.904C140.315 155.253 140.411 154.677 140.603 154.176C140.795 153.675 141.056 153.253 141.387 152.912C141.728 152.56 142.123 152.293 142.571 152.112C143.019 151.931 143.493 151.84 143.995 151.84C144.539 151.84 145.029 151.963 145.467 152.208C145.915 152.443 146.267 152.811 146.523 153.312H146.715V152.064H147.963V158.368C147.963 158.688 148.107 158.848 148.395 158.848H148.795V160H147.947C147.584 160 147.285 159.883 147.051 159.648C146.827 159.413 146.715 159.115 146.715 158.752V158.656ZM144.155 159.04C144.528 159.04 144.869 158.971 145.179 158.832C145.499 158.693 145.771 158.496 145.995 158.24C146.219 157.984 146.395 157.68 146.523 157.328C146.651 156.965 146.715 156.565 146.715 156.128V155.936C146.715 155.509 146.651 155.12 146.523 154.768C146.395 154.405 146.213 154.096 145.979 153.84C145.755 153.584 145.483 153.387 145.163 153.248C144.853 153.099 144.517 153.024 144.155 153.024C143.781 153.024 143.44 153.093 143.131 153.232C142.821 153.371 142.549 153.568 142.315 153.824C142.091 154.069 141.915 154.373 141.787 154.736C141.659 155.088 141.595 155.477 141.595 155.904V156.16C141.595 157.067 141.829 157.776 142.299 158.288C142.779 158.789 143.397 159.04 144.155 159.04ZM156.895 158.784H156.703C156.575 159.029 156.41 159.243 156.207 159.424C156.015 159.605 155.802 159.755 155.567 159.872C155.343 159.989 155.103 160.075 154.847 160.128C154.591 160.192 154.346 160.224 154.111 160.224C153.578 160.224 153.082 160.133 152.623 159.952C152.165 159.771 151.759 159.509 151.407 159.168C151.066 158.827 150.794 158.405 150.591 157.904C150.399 157.392 150.303 156.811 150.303 156.16V155.904C150.303 155.264 150.405 154.693 150.607 154.192C150.81 153.68 151.082 153.253 151.423 152.912C151.765 152.56 152.165 152.293 152.623 152.112C153.082 151.931 153.567 151.84 154.079 151.84C154.623 151.84 155.13 151.963 155.599 152.208C156.079 152.443 156.447 152.811 156.703 153.312H156.895V148.8H158.143V160H156.895V158.784ZM154.239 159.04C154.613 159.04 154.959 158.971 155.279 158.832C155.599 158.693 155.877 158.496 156.111 158.24C156.357 157.984 156.549 157.68 156.687 157.328C156.826 156.965 156.895 156.565 156.895 156.128V155.936C156.895 155.509 156.826 155.12 156.687 154.768C156.549 154.405 156.357 154.096 156.111 153.84C155.877 153.584 155.594 153.387 155.263 153.248C154.943 153.099 154.602 153.024 154.239 153.024C153.866 153.024 153.514 153.093 153.183 153.232C152.863 153.371 152.581 153.568 152.335 153.824C152.101 154.08 151.914 154.384 151.775 154.736C151.647 155.088 151.583 155.477 151.583 155.904V156.16C151.583 156.608 151.647 157.008 151.775 157.36C151.914 157.712 152.101 158.016 152.335 158.272C152.581 158.517 152.863 158.709 153.183 158.848C153.503 158.976 153.855 159.04 154.239 159.04ZM163.012 149.696C163.012 149.387 163.119 149.125 163.332 148.912C163.556 148.688 163.823 148.576 164.132 148.576C164.442 148.576 164.703 148.688 164.916 148.912C165.14 149.125 165.252 149.387 165.252 149.696C165.252 150.005 165.14 150.272 164.916 150.496C164.703 150.709 164.442 150.816 164.132 150.816C163.823 150.816 163.556 150.709 163.332 150.496C163.119 150.272 163.012 150.005 163.012 149.696ZM160.74 158.848H163.524V153.216H161.028V152.064H164.772V158.848H167.364V160H160.74V158.848ZM171.305 163.2H170.057V152.064H171.305V153.312H171.497C171.774 152.832 172.158 152.469 172.649 152.224C173.14 151.968 173.673 151.84 174.249 151.84C174.74 151.84 175.204 151.931 175.641 152.112C176.078 152.293 176.462 152.555 176.793 152.896C177.134 153.237 177.401 153.659 177.593 154.16C177.796 154.661 177.897 155.232 177.897 155.872V156.192C177.897 156.843 177.801 157.419 177.609 157.92C177.417 158.421 177.15 158.843 176.809 159.184C176.478 159.525 176.089 159.787 175.641 159.968C175.193 160.139 174.718 160.224 174.217 160.224C173.961 160.224 173.7 160.192 173.433 160.128C173.166 160.075 172.91 159.989 172.665 159.872C172.43 159.744 172.212 159.595 172.009 159.424C171.806 159.243 171.636 159.029 171.497 158.784H171.305V163.2ZM173.961 159.04C174.345 159.04 174.697 158.976 175.017 158.848C175.337 158.709 175.614 158.517 175.849 158.272C176.094 158.027 176.281 157.728 176.409 157.376C176.548 157.024 176.617 156.629 176.617 156.192V155.872C176.617 155.445 176.548 155.061 176.409 154.72C176.281 154.368 176.094 154.069 175.849 153.824C175.614 153.568 175.332 153.371 175.001 153.232C174.681 153.093 174.334 153.024 173.961 153.024C173.588 153.024 173.241 153.099 172.921 153.248C172.601 153.387 172.318 153.584 172.073 153.84C171.838 154.096 171.652 154.405 171.513 154.768C171.374 155.12 171.305 155.509 171.305 155.936V156.128C171.305 156.565 171.374 156.965 171.513 157.328C171.652 157.68 171.838 157.984 172.073 158.24C172.318 158.496 172.601 158.693 172.921 158.832C173.241 158.971 173.588 159.04 173.961 159.04ZM182.606 149.696C182.606 149.387 182.713 149.125 182.926 148.912C183.15 148.688 183.417 148.576 183.726 148.576C184.035 148.576 184.297 148.688 184.51 148.912C184.734 149.125 184.846 149.387 184.846 149.696C184.846 150.005 184.734 150.272 184.51 150.496C184.297 150.709 184.035 150.816 183.726 150.816C183.417 150.816 183.15 150.709 182.926 150.496C182.713 150.272 182.606 150.005 182.606 149.696ZM180.334 158.848H183.118V153.216H180.622V152.064H184.366V158.848H186.958V160H180.334V158.848ZM191.587 154.112C191.587 154.496 191.747 154.789 192.067 154.992C192.398 155.195 192.995 155.328 193.859 155.392C194.787 155.467 195.491 155.691 195.971 156.064C196.462 156.427 196.707 156.96 196.707 157.664V157.76C196.707 158.144 196.627 158.491 196.467 158.8C196.318 159.099 196.104 159.355 195.827 159.568C195.56 159.781 195.23 159.941 194.835 160.048C194.451 160.165 194.03 160.224 193.571 160.224C192.952 160.224 192.419 160.144 191.971 159.984C191.534 159.813 191.166 159.595 190.867 159.328C190.579 159.051 190.36 158.741 190.211 158.4C190.062 158.048 189.976 157.696 189.955 157.344L191.139 157.056C191.192 157.664 191.427 158.155 191.843 158.528C192.259 158.891 192.814 159.072 193.507 159.072C194.094 159.072 194.563 158.96 194.915 158.736C195.278 158.501 195.459 158.176 195.459 157.76C195.459 157.312 195.283 156.992 194.931 156.8C194.579 156.608 194.008 156.485 193.219 156.432C192.302 156.368 191.598 156.155 191.107 155.792C190.616 155.429 190.371 154.901 190.371 154.208V154.112C190.371 153.739 190.451 153.413 190.611 153.136C190.771 152.848 190.984 152.608 191.251 152.416C191.528 152.224 191.838 152.08 192.179 151.984C192.52 151.888 192.878 151.84 193.251 151.84C193.774 151.84 194.232 151.915 194.627 152.064C195.022 152.203 195.352 152.389 195.619 152.624C195.886 152.848 196.088 153.109 196.227 153.408C196.376 153.707 196.472 154.005 196.515 154.304L195.331 154.592C195.278 154.08 195.07 153.68 194.707 153.392C194.355 153.104 193.891 152.96 193.315 152.96C193.091 152.96 192.872 152.987 192.659 153.04C192.456 153.083 192.275 153.152 192.115 153.248C191.955 153.344 191.827 153.467 191.731 153.616C191.635 153.755 191.587 153.92 191.587 154.112ZM207.16 157.184C207.074 157.621 206.925 158.027 206.712 158.4C206.509 158.773 206.248 159.099 205.928 159.376C205.608 159.643 205.234 159.851 204.808 160C204.381 160.149 203.906 160.224 203.384 160.224C202.829 160.224 202.301 160.133 201.8 159.952C201.309 159.771 200.877 159.509 200.504 159.168C200.13 158.816 199.832 158.389 199.608 157.888C199.394 157.387 199.288 156.811 199.288 156.16V155.968C199.288 155.328 199.394 154.752 199.608 154.24C199.832 153.728 200.13 153.296 200.504 152.944C200.877 152.592 201.309 152.32 201.8 152.128C202.301 151.936 202.829 151.84 203.384 151.84C203.885 151.84 204.349 151.915 204.776 152.064C205.202 152.213 205.576 152.427 205.896 152.704C206.226 152.971 206.493 153.291 206.696 153.664C206.909 154.037 207.053 154.443 207.128 154.88L205.88 155.168C205.848 154.891 205.768 154.624 205.64 154.368C205.522 154.101 205.357 153.872 205.144 153.68C204.941 153.477 204.69 153.317 204.392 153.2C204.093 153.083 203.746 153.024 203.352 153.024C202.968 153.024 202.605 153.099 202.264 153.248C201.933 153.387 201.64 153.589 201.384 153.856C201.128 154.112 200.925 154.421 200.776 154.784C200.637 155.147 200.568 155.541 200.568 155.968V156.16C200.568 156.608 200.637 157.013 200.776 157.376C200.925 157.728 201.128 158.027 201.384 158.272C201.64 158.517 201.938 158.709 202.28 158.848C202.621 158.976 202.989 159.04 203.384 159.04C203.778 159.04 204.12 158.981 204.408 158.864C204.706 158.736 204.957 158.576 205.16 158.384C205.373 158.181 205.538 157.952 205.656 157.696C205.784 157.44 205.869 157.173 205.912 156.896L207.16 157.184ZM211.997 149.696C211.997 149.387 212.103 149.125 212.317 148.912C212.541 148.688 212.807 148.576 213.117 148.576C213.426 148.576 213.687 148.688 213.901 148.912C214.125 149.125 214.237 149.387 214.237 149.696C214.237 150.005 214.125 150.272 213.901 150.496C213.687 150.709 213.426 150.816 213.117 150.816C212.807 150.816 212.541 150.709 212.317 150.496C212.103 150.272 211.997 150.005 211.997 149.696ZM209.725 158.848H212.509V153.216H210.013V152.064H213.757V158.848H216.349V160H209.725V158.848ZM220.578 160H219.33V152.064H220.578V153.408H220.77C221.26 152.363 222.114 151.84 223.33 151.84C224.247 151.84 224.978 152.128 225.522 152.704C226.066 153.269 226.338 154.123 226.338 155.264V160H225.09V155.52C225.09 154.688 224.903 154.064 224.53 153.648C224.156 153.232 223.65 153.024 223.01 153.024C222.252 153.024 221.655 153.285 221.218 153.808C220.791 154.32 220.578 155.008 220.578 155.872V160ZM235.158 158.784H234.966C234.71 159.264 234.358 159.627 233.91 159.872C233.473 160.107 232.993 160.224 232.47 160.224C231.937 160.224 231.436 160.133 230.966 159.952C230.497 159.771 230.081 159.509 229.718 159.168C229.366 158.827 229.084 158.405 228.87 157.904C228.668 157.392 228.566 156.811 228.566 156.16V155.904C228.566 155.264 228.673 154.693 228.886 154.192C229.1 153.68 229.382 153.253 229.734 152.912C230.086 152.56 230.497 152.293 230.966 152.112C231.436 151.931 231.926 151.84 232.438 151.84C233.014 151.84 233.516 151.968 233.942 152.224C234.38 152.469 234.721 152.832 234.966 153.312H235.158V152.064H236.406V161.952C236.406 162.315 236.289 162.613 236.054 162.848C235.83 163.083 235.537 163.2 235.174 163.2H230.006V162.048H234.726C235.014 162.048 235.158 161.888 235.158 161.568V158.784ZM232.502 159.04C232.876 159.04 233.222 158.971 233.542 158.832C233.862 158.693 234.14 158.496 234.374 158.24C234.62 157.984 234.812 157.68 234.95 157.328C235.089 156.965 235.158 156.565 235.158 156.128V155.936C235.158 155.509 235.089 155.12 234.95 154.768C234.812 154.405 234.62 154.096 234.374 153.84C234.14 153.584 233.857 153.387 233.526 153.248C233.206 153.099 232.865 153.024 232.502 153.024C232.129 153.024 231.777 153.093 231.446 153.232C231.126 153.371 230.844 153.568 230.598 153.824C230.364 154.08 230.177 154.384 230.038 154.736C229.91 155.088 229.846 155.477 229.846 155.904V156.16C229.846 156.608 229.91 157.008 230.038 157.36C230.177 157.712 230.364 158.016 230.598 158.272C230.844 158.517 231.126 158.709 231.446 158.848C231.766 158.976 232.118 159.04 232.502 159.04ZM24.304 180.416C24.336 181.205 24.5813 181.84 25.04 182.32C25.4987 182.8 26.1387 183.04 26.96 183.04C27.3333 183.04 27.6587 182.997 27.936 182.912C28.2133 182.827 28.448 182.709 28.64 182.56C28.8427 182.411 29.0027 182.24 29.12 182.048C29.248 181.845 29.3493 181.632 29.424 181.408L30.608 181.728C30.384 182.464 29.968 183.067 29.36 183.536C28.7627 183.995 27.952 184.224 26.928 184.224C26.3627 184.224 25.84 184.128 25.36 183.936C24.8907 183.733 24.4853 183.451 24.144 183.088C23.8027 182.725 23.536 182.293 23.344 181.792C23.152 181.291 23.056 180.736 23.056 180.128V179.744C23.056 179.189 23.152 178.672 23.344 178.192C23.5467 177.712 23.824 177.301 24.176 176.96C24.528 176.608 24.9387 176.336 25.408 176.144C25.888 175.941 26.4053 175.84 26.96 175.84C27.6107 175.84 28.1707 175.963 28.64 176.208C29.12 176.443 29.5093 176.736 29.808 177.088C30.1173 177.44 30.3413 177.824 30.48 178.24C30.6293 178.656 30.704 179.04 30.704 179.392V180.416H24.304ZM26.96 177.024C26.608 177.024 26.2773 177.083 25.968 177.2C25.6693 177.307 25.4027 177.461 25.168 177.664C24.944 177.867 24.7573 178.107 24.608 178.384C24.4693 178.651 24.3787 178.944 24.336 179.264H29.456C29.4347 178.923 29.3493 178.613 29.2 178.336C29.0613 178.059 28.8747 177.824 28.64 177.632C28.416 177.44 28.1547 177.291 27.856 177.184C27.568 177.077 27.2693 177.024 26.96 177.024ZM33.1889 182.848H36.0689V173.952H33.2849V172.8H37.3169V182.848H40.1969V184H33.1889V182.848ZM45.4498 173.696C45.4498 173.387 45.5564 173.125 45.7698 172.912C45.9938 172.688 46.2604 172.576 46.5698 172.576C46.8791 172.576 47.1404 172.688 47.3538 172.912C47.5778 173.125 47.6898 173.387 47.6898 173.696C47.6898 174.005 47.5778 174.272 47.3538 174.496C47.1404 174.709 46.8791 174.816 46.5698 174.816C46.2604 174.816 45.9938 174.709 45.7698 174.496C45.5564 174.272 45.4498 174.005 45.4498 173.696ZM43.1778 182.848H45.9618V177.216H43.4658V176.064H47.2098V182.848H49.8018V184H43.1778V182.848ZM52.5106 176.064H55.0066V172.8H56.2546V176.064H59.3266V177.216H56.2546V182.368C56.2546 182.688 56.3986 182.848 56.6866 182.848H58.9426V184H56.2386C55.876 184 55.5773 183.883 55.3426 183.648C55.1186 183.413 55.0066 183.115 55.0066 182.752V177.216H52.5106V176.064ZM64.9635 183.104C64.9635 182.795 65.0702 182.533 65.2835 182.32C65.5075 182.096 65.7742 181.984 66.0835 181.984C66.3928 181.984 66.6542 182.096 66.8675 182.32C67.0915 182.533 67.2035 182.795 67.2035 183.104C67.2035 183.413 67.0915 183.68 66.8675 183.904C66.6542 184.117 66.3928 184.224 66.0835 184.224C65.7742 184.224 65.5075 184.117 65.2835 183.904C65.0702 183.68 64.9635 183.413 64.9635 183.104ZM85.7413 182.976C86.1999 182.976 86.5893 182.901 86.9093 182.752C87.2399 182.592 87.5066 182.384 87.7093 182.128C87.9226 181.861 88.0773 181.563 88.1733 181.232C88.2799 180.891 88.3333 180.533 88.3333 180.16V179.968H89.6773V180.16C89.6773 180.725 89.5919 181.259 89.4213 181.76C89.2506 182.251 88.9999 182.683 88.6693 183.056C88.3386 183.419 87.9279 183.707 87.4373 183.92C86.9466 184.123 86.3813 184.224 85.7413 184.224C84.5039 184.224 83.5386 183.835 82.8453 183.056C82.1519 182.277 81.8053 181.141 81.8053 179.648V177.152C81.8053 175.701 82.1519 174.576 82.8453 173.776C83.5386 172.976 84.5039 172.576 85.7413 172.576C86.3813 172.576 86.9466 172.683 87.4373 172.896C87.9279 173.099 88.3386 173.387 88.6693 173.76C88.9999 174.123 89.2506 174.555 89.4213 175.056C89.5919 175.547 89.6773 176.075 89.6773 176.64V176.832H88.3333V176.64C88.3226 176.277 88.2639 175.925 88.1573 175.584C88.0613 175.243 87.9066 174.944 87.6933 174.688C87.4906 174.421 87.2293 174.213 86.9093 174.064C86.5893 173.904 86.1999 173.824 85.7413 173.824C84.8773 173.824 84.2266 174.139 83.7893 174.768C83.3626 175.397 83.1493 176.224 83.1493 177.248V179.552C83.1493 180.651 83.3626 181.499 83.7893 182.096C84.2266 182.683 84.8773 182.976 85.7413 182.976ZM97.6341 176.064H98.8821V184H97.6341V182.56H97.4421C97.1861 183.072 96.8501 183.477 96.4341 183.776C96.0181 184.075 95.4901 184.224 94.8501 184.224C94.4128 184.224 94.0075 184.149 93.6341 184C93.2715 183.861 92.9568 183.648 92.6901 183.36C92.4341 183.072 92.2315 182.715 92.0821 182.288C91.9435 181.861 91.8741 181.365 91.8741 180.8V176.064H93.1221V180.64C93.1221 181.472 93.2928 182.08 93.6341 182.464C93.9755 182.848 94.4981 183.04 95.2021 183.04C95.9595 183.04 96.5515 182.784 96.9781 182.272C97.4155 181.749 97.6341 181.056 97.6341 180.192V176.064ZM101.319 176.064H104.199V177.12H104.391C104.594 176.683 104.882 176.363 105.255 176.16C105.628 175.947 106.055 175.84 106.535 175.84C107.335 175.84 107.98 176.101 108.471 176.624C108.962 177.147 109.223 177.909 109.255 178.912L107.943 179.104C107.943 178.368 107.767 177.84 107.415 177.52C107.063 177.189 106.631 177.024 106.119 177.024C105.788 177.024 105.5 177.088 105.255 177.216C105.02 177.344 104.823 177.52 104.663 177.744C104.503 177.968 104.386 178.229 104.311 178.528C104.236 178.827 104.199 179.147 104.199 179.488V182.848H106.215V184H101.127V182.848H102.951V177.216H101.319V176.064ZM113.212 178.112C113.212 178.496 113.372 178.789 113.692 178.992C114.023 179.195 114.62 179.328 115.484 179.392C116.412 179.467 117.116 179.691 117.596 180.064C118.087 180.427 118.332 180.96 118.332 181.664V181.76C118.332 182.144 118.252 182.491 118.092 182.8C117.943 183.099 117.729 183.355 117.452 183.568C117.185 183.781 116.855 183.941 116.46 184.048C116.076 184.165 115.655 184.224 115.196 184.224C114.577 184.224 114.044 184.144 113.596 183.984C113.159 183.813 112.791 183.595 112.492 183.328C112.204 183.051 111.985 182.741 111.836 182.4C111.687 182.048 111.601 181.696 111.58 181.344L112.764 181.056C112.817 181.664 113.052 182.155 113.468 182.528C113.884 182.891 114.439 183.072 115.132 183.072C115.719 183.072 116.188 182.96 116.54 182.736C116.903 182.501 117.084 182.176 117.084 181.76C117.084 181.312 116.908 180.992 116.556 180.8C116.204 180.608 115.633 180.485 114.844 180.432C113.927 180.368 113.223 180.155 112.732 179.792C112.241 179.429 111.996 178.901 111.996 178.208V178.112C111.996 177.739 112.076 177.413 112.236 177.136C112.396 176.848 112.609 176.608 112.876 176.416C113.153 176.224 113.463 176.08 113.804 175.984C114.145 175.888 114.503 175.84 114.876 175.84C115.399 175.84 115.857 175.915 116.252 176.064C116.647 176.203 116.977 176.389 117.244 176.624C117.511 176.848 117.713 177.109 117.852 177.408C118.001 177.707 118.097 178.005 118.14 178.304L116.956 178.592C116.903 178.08 116.695 177.68 116.332 177.392C115.98 177.104 115.516 176.96 114.94 176.96C114.716 176.96 114.497 176.987 114.284 177.04C114.081 177.083 113.9 177.152 113.74 177.248C113.58 177.344 113.452 177.467 113.356 177.616C113.26 177.755 113.212 177.92 113.212 178.112ZM127.025 176.064H128.273V184H127.025V182.56H126.833C126.577 183.072 126.241 183.477 125.825 183.776C125.409 184.075 124.881 184.224 124.241 184.224C123.803 184.224 123.398 184.149 123.025 184C122.662 183.861 122.347 183.648 122.081 183.36C121.825 183.072 121.622 182.715 121.473 182.288C121.334 181.861 121.265 181.365 121.265 180.8V176.064H122.513V180.64C122.513 181.472 122.683 182.08 123.025 182.464C123.366 182.848 123.889 183.04 124.593 183.04C125.35 183.04 125.942 182.784 126.369 182.272C126.806 181.749 127.025 181.056 127.025 180.192V176.064ZM132.806 178.112C132.806 178.496 132.966 178.789 133.286 178.992C133.616 179.195 134.214 179.328 135.078 179.392C136.006 179.467 136.71 179.691 137.19 180.064C137.68 180.427 137.926 180.96 137.926 181.664V181.76C137.926 182.144 137.846 182.491 137.686 182.8C137.536 183.099 137.323 183.355 137.046 183.568C136.779 183.781 136.448 183.941 136.054 184.048C135.67 184.165 135.248 184.224 134.79 184.224C134.171 184.224 133.638 184.144 133.19 183.984C132.752 183.813 132.384 183.595 132.086 183.328C131.798 183.051 131.579 182.741 131.43 182.4C131.28 182.048 131.195 181.696 131.174 181.344L132.358 181.056C132.411 181.664 132.646 182.155 133.062 182.528C133.478 182.891 134.032 183.072 134.726 183.072C135.312 183.072 135.782 182.96 136.134 182.736C136.496 182.501 136.678 182.176 136.678 181.76C136.678 181.312 136.502 180.992 136.15 180.8C135.798 180.608 135.227 180.485 134.438 180.432C133.52 180.368 132.816 180.155 132.326 179.792C131.835 179.429 131.59 178.901 131.59 178.208V178.112C131.59 177.739 131.67 177.413 131.83 177.136C131.99 176.848 132.203 176.608 132.47 176.416C132.747 176.224 133.056 176.08 133.398 175.984C133.739 175.888 134.096 175.84 134.47 175.84C134.992 175.84 135.451 175.915 135.846 176.064C136.24 176.203 136.571 176.389 136.838 176.624C137.104 176.848 137.307 177.109 137.446 177.408C137.595 177.707 137.691 178.005 137.734 178.304L136.55 178.592C136.496 178.08 136.288 177.68 135.926 177.392C135.574 177.104 135.11 176.96 134.534 176.96C134.31 176.96 134.091 176.987 133.878 177.04C133.675 177.083 133.494 177.152 133.334 177.248C133.174 177.344 133.046 177.467 132.95 177.616C132.854 177.755 132.806 177.92 132.806 178.112ZM153.215 173.696C153.215 173.387 153.322 173.125 153.535 172.912C153.759 172.688 154.026 172.576 154.335 172.576C154.645 172.576 154.906 172.688 155.119 172.912C155.343 173.125 155.455 173.387 155.455 173.696C155.455 174.005 155.343 174.272 155.119 174.496C154.906 174.709 154.645 174.816 154.335 174.816C154.026 174.816 153.759 174.709 153.535 174.496C153.322 174.272 153.215 174.005 153.215 173.696ZM150.943 182.848H153.727V177.216H151.231V176.064H154.975V182.848H157.567V184H150.943V182.848ZM168.18 184H166.932V178.304C166.932 177.931 166.847 177.627 166.676 177.392C166.506 177.147 166.234 177.024 165.86 177.024C165.508 177.024 165.22 177.157 164.996 177.424C164.783 177.68 164.676 178.08 164.676 178.624V184H163.428V178.24C163.428 177.888 163.332 177.6 163.14 177.376C162.948 177.141 162.692 177.024 162.372 177.024C161.988 177.024 161.69 177.163 161.476 177.44C161.274 177.717 161.172 178.08 161.172 178.528V184H159.924V176.064H161.172V176.928H161.364C161.503 176.555 161.706 176.283 161.972 176.112C162.239 175.931 162.554 175.84 162.916 175.84C163.3 175.84 163.615 175.941 163.86 176.144C164.116 176.347 164.292 176.608 164.388 176.928H164.58C164.943 176.203 165.519 175.84 166.308 175.84C166.906 175.84 167.364 176.032 167.684 176.416C168.015 176.789 168.18 177.28 168.18 177.888V184ZM171.305 187.2H170.057V176.064H171.305V177.312H171.497C171.774 176.832 172.158 176.469 172.649 176.224C173.14 175.968 173.673 175.84 174.249 175.84C174.74 175.84 175.204 175.931 175.641 176.112C176.078 176.293 176.462 176.555 176.793 176.896C177.134 177.237 177.401 177.659 177.593 178.16C177.796 178.661 177.897 179.232 177.897 179.872V180.192C177.897 180.843 177.801 181.419 177.609 181.92C177.417 182.421 177.15 182.843 176.809 183.184C176.478 183.525 176.089 183.787 175.641 183.968C175.193 184.139 174.718 184.224 174.217 184.224C173.961 184.224 173.7 184.192 173.433 184.128C173.166 184.075 172.91 183.989 172.665 183.872C172.43 183.744 172.212 183.595 172.009 183.424C171.806 183.243 171.636 183.029 171.497 182.784H171.305V187.2ZM173.961 183.04C174.345 183.04 174.697 182.976 175.017 182.848C175.337 182.709 175.614 182.517 175.849 182.272C176.094 182.027 176.281 181.728 176.409 181.376C176.548 181.024 176.617 180.629 176.617 180.192V179.872C176.617 179.445 176.548 179.061 176.409 178.72C176.281 178.368 176.094 178.069 175.849 177.824C175.614 177.568 175.332 177.371 175.001 177.232C174.681 177.093 174.334 177.024 173.961 177.024C173.588 177.024 173.241 177.099 172.921 177.248C172.601 177.387 172.318 177.584 172.073 177.84C171.838 178.096 171.652 178.405 171.513 178.768C171.374 179.12 171.305 179.509 171.305 179.936V180.128C171.305 180.565 171.374 180.965 171.513 181.328C171.652 181.68 171.838 181.984 172.073 182.24C172.318 182.496 172.601 182.693 172.921 182.832C173.241 182.971 173.588 183.04 173.961 183.04ZM181.054 180.416C181.086 181.205 181.331 181.84 181.79 182.32C182.249 182.8 182.889 183.04 183.71 183.04C184.083 183.04 184.409 182.997 184.686 182.912C184.963 182.827 185.198 182.709 185.39 182.56C185.593 182.411 185.753 182.24 185.87 182.048C185.998 181.845 186.099 181.632 186.174 181.408L187.358 181.728C187.134 182.464 186.718 183.067 186.11 183.536C185.513 183.995 184.702 184.224 183.678 184.224C183.113 184.224 182.59 184.128 182.11 183.936C181.641 183.733 181.235 183.451 180.894 183.088C180.553 182.725 180.286 182.293 180.094 181.792C179.902 181.291 179.806 180.736 179.806 180.128V179.744C179.806 179.189 179.902 178.672 180.094 178.192C180.297 177.712 180.574 177.301 180.926 176.96C181.278 176.608 181.689 176.336 182.158 176.144C182.638 175.941 183.155 175.84 183.71 175.84C184.361 175.84 184.921 175.963 185.39 176.208C185.87 176.443 186.259 176.736 186.558 177.088C186.867 177.44 187.091 177.824 187.23 178.24C187.379 178.656 187.454 179.04 187.454 179.392V180.416H181.054ZM183.71 177.024C183.358 177.024 183.027 177.083 182.718 177.2C182.419 177.307 182.153 177.461 181.918 177.664C181.694 177.867 181.507 178.107 181.358 178.384C181.219 178.651 181.129 178.944 181.086 179.264H186.206C186.185 178.923 186.099 178.613 185.95 178.336C185.811 178.059 185.625 177.824 185.39 177.632C185.166 177.44 184.905 177.291 184.606 177.184C184.318 177.077 184.019 177.024 183.71 177.024ZM189.491 176.064H192.371V177.12H192.563C192.766 176.683 193.054 176.363 193.427 176.16C193.8 175.947 194.227 175.84 194.707 175.84C195.507 175.84 196.152 176.101 196.643 176.624C197.134 177.147 197.395 177.909 197.427 178.912L196.115 179.104C196.115 178.368 195.939 177.84 195.587 177.52C195.235 177.189 194.803 177.024 194.291 177.024C193.96 177.024 193.672 177.088 193.427 177.216C193.192 177.344 192.995 177.52 192.835 177.744C192.675 177.968 192.558 178.229 192.483 178.528C192.408 178.827 192.371 179.147 192.371 179.488V182.848H194.387V184H189.299V182.848H191.123V177.216H189.491V176.064ZM205.88 182.784H205.688C205.56 183.029 205.394 183.243 205.192 183.424C205 183.605 204.786 183.755 204.552 183.872C204.328 183.989 204.088 184.075 203.832 184.128C203.576 184.192 203.33 184.224 203.096 184.224C202.562 184.224 202.066 184.133 201.608 183.952C201.149 183.771 200.744 183.509 200.392 183.168C200.05 182.827 199.778 182.405 199.576 181.904C199.384 181.392 199.288 180.811 199.288 180.16V179.904C199.288 179.264 199.389 178.693 199.592 178.192C199.794 177.68 200.066 177.253 200.408 176.912C200.749 176.56 201.149 176.293 201.608 176.112C202.066 175.931 202.552 175.84 203.064 175.84C203.608 175.84 204.114 175.963 204.584 176.208C205.064 176.443 205.432 176.811 205.688 177.312H205.88V172.8H207.128V184H205.88V182.784ZM203.224 183.04C203.597 183.04 203.944 182.971 204.264 182.832C204.584 182.693 204.861 182.496 205.096 182.24C205.341 181.984 205.533 181.68 205.672 181.328C205.81 180.965 205.88 180.565 205.88 180.128V179.936C205.88 179.509 205.81 179.12 205.672 178.768C205.533 178.405 205.341 178.096 205.096 177.84C204.861 177.584 204.578 177.387 204.248 177.248C203.928 177.099 203.586 177.024 203.224 177.024C202.85 177.024 202.498 177.093 202.168 177.232C201.848 177.371 201.565 177.568 201.32 177.824C201.085 178.08 200.898 178.384 200.76 178.736C200.632 179.088 200.568 179.477 200.568 179.904V180.16C200.568 180.608 200.632 181.008 200.76 181.36C200.898 181.712 201.085 182.016 201.32 182.272C201.565 182.517 201.848 182.709 202.168 182.848C202.488 182.976 202.84 183.04 203.224 183.04ZM211.997 173.696C211.997 173.387 212.103 173.125 212.317 172.912C212.541 172.688 212.807 172.576 213.117 172.576C213.426 172.576 213.687 172.688 213.901 172.912C214.125 173.125 214.237 173.387 214.237 173.696C214.237 174.005 214.125 174.272 213.901 174.496C213.687 174.709 213.426 174.816 213.117 174.816C212.807 174.816 212.541 174.709 212.317 174.496C212.103 174.272 211.997 174.005 211.997 173.696ZM209.725 182.848H212.509V177.216H210.013V176.064H213.757V182.848H216.349V184H209.725V182.848ZM220.242 180.416C220.274 181.205 220.519 181.84 220.978 182.32C221.436 182.8 222.076 183.04 222.898 183.04C223.271 183.04 223.596 182.997 223.874 182.912C224.151 182.827 224.386 182.709 224.578 182.56C224.78 182.411 224.94 182.24 225.058 182.048C225.186 181.845 225.287 181.632 225.362 181.408L226.546 181.728C226.322 182.464 225.906 183.067 225.298 183.536C224.7 183.995 223.89 184.224 222.866 184.224C222.3 184.224 221.778 184.128 221.298 183.936C220.828 183.733 220.423 183.451 220.082 183.088C219.74 182.725 219.474 182.293 219.282 181.792C219.09 181.291 218.993 180.736 218.993 180.128V179.744C218.993 179.189 219.09 178.672 219.282 178.192C219.484 177.712 219.762 177.301 220.114 176.96C220.466 176.608 220.876 176.336 221.346 176.144C221.826 175.941 222.343 175.84 222.898 175.84C223.548 175.84 224.108 175.963 224.578 176.208C225.058 176.443 225.447 176.736 225.746 177.088C226.055 177.44 226.279 177.824 226.418 178.24C226.567 178.656 226.642 179.04 226.642 179.392V180.416H220.242ZM222.898 177.024C222.546 177.024 222.215 177.083 221.906 177.2C221.607 177.307 221.34 177.461 221.106 177.664C220.882 177.867 220.695 178.107 220.546 178.384C220.407 178.651 220.316 178.944 220.274 179.264H225.394C225.372 178.923 225.287 178.613 225.138 178.336C224.999 178.059 224.812 177.824 224.578 177.632C224.354 177.44 224.092 177.291 223.794 177.184C223.506 177.077 223.207 177.024 222.898 177.024ZM228.854 176.064H231.35V172.8H232.598V176.064H235.67V177.216H232.598V182.368C232.598 182.688 232.742 182.848 233.03 182.848H235.286V184H232.582C232.22 184 231.921 183.883 231.686 183.648C231.462 183.413 231.35 183.115 231.35 182.752V177.216H228.854V176.064ZM250.368 178.112C250.368 178.496 250.528 178.789 250.848 178.992C251.179 179.195 251.776 179.328 252.64 179.392C253.568 179.467 254.272 179.691 254.752 180.064C255.243 180.427 255.488 180.96 255.488 181.664V181.76C255.488 182.144 255.408 182.491 255.248 182.8C255.099 183.099 254.885 183.355 254.608 183.568C254.341 183.781 254.011 183.941 253.616 184.048C253.232 184.165 252.811 184.224 252.352 184.224C251.733 184.224 251.2 184.144 250.752 183.984C250.315 183.813 249.947 183.595 249.648 183.328C249.36 183.051 249.141 182.741 248.992 182.4C248.843 182.048 248.757 181.696 248.736 181.344L249.92 181.056C249.973 181.664 250.208 182.155 250.624 182.528C251.04 182.891 251.595 183.072 252.288 183.072C252.875 183.072 253.344 182.96 253.696 182.736C254.059 182.501 254.24 182.176 254.24 181.76C254.24 181.312 254.064 180.992 253.712 180.8C253.36 180.608 252.789 180.485 252 180.432C251.083 180.368 250.379 180.155 249.888 179.792C249.397 179.429 249.152 178.901 249.152 178.208V178.112C249.152 177.739 249.232 177.413 249.392 177.136C249.552 176.848 249.765 176.608 250.032 176.416C250.309 176.224 250.619 176.08 250.96 175.984C251.301 175.888 251.659 175.84 252.032 175.84C252.555 175.84 253.013 175.915 253.408 176.064C253.803 176.203 254.133 176.389 254.4 176.624C254.667 176.848 254.869 177.109 255.008 177.408C255.157 177.707 255.253 178.005 255.296 178.304L254.112 178.592C254.059 178.08 253.851 177.68 253.488 177.392C253.136 177.104 252.672 176.96 252.096 176.96C251.872 176.96 251.653 176.987 251.44 177.04C251.237 177.083 251.056 177.152 250.896 177.248C250.736 177.344 250.608 177.467 250.512 177.616C250.416 177.755 250.368 177.92 250.368 178.112ZM259.429 180.416C259.461 181.205 259.706 181.84 260.165 182.32C260.624 182.8 261.264 183.04 262.085 183.04C262.458 183.04 262.784 182.997 263.061 182.912C263.338 182.827 263.573 182.709 263.765 182.56C263.968 182.411 264.128 182.24 264.245 182.048C264.373 181.845 264.474 181.632 264.549 181.408L265.733 181.728C265.509 182.464 265.093 183.067 264.485 183.536C263.888 183.995 263.077 184.224 262.053 184.224C261.488 184.224 260.965 184.128 260.485 183.936C260.016 183.733 259.61 183.451 259.269 183.088C258.928 182.725 258.661 182.293 258.469 181.792C258.277 181.291 258.181 180.736 258.181 180.128V179.744C258.181 179.189 258.277 178.672 258.469 178.192C258.672 177.712 258.949 177.301 259.301 176.96C259.653 176.608 260.064 176.336 260.533 176.144C261.013 175.941 261.53 175.84 262.085 175.84C262.736 175.84 263.296 175.963 263.765 176.208C264.245 176.443 264.634 176.736 264.933 177.088C265.242 177.44 265.466 177.824 265.605 178.24C265.754 178.656 265.829 179.04 265.829 179.392V180.416H259.429ZM262.085 177.024C261.733 177.024 261.402 177.083 261.093 177.2C260.794 177.307 260.528 177.461 260.293 177.664C260.069 177.867 259.882 178.107 259.733 178.384C259.594 178.651 259.504 178.944 259.461 179.264H264.581C264.56 178.923 264.474 178.613 264.325 178.336C264.186 178.059 264 177.824 263.765 177.632C263.541 177.44 263.28 177.291 262.981 177.184C262.693 177.077 262.394 177.024 262.085 177.024ZM274.458 182.784H274.266C274.138 183.029 273.973 183.243 273.77 183.424C273.578 183.605 273.365 183.755 273.13 183.872C272.906 183.989 272.666 184.075 272.41 184.128C272.154 184.192 271.909 184.224 271.674 184.224C271.141 184.224 270.645 184.133 270.186 183.952C269.727 183.771 269.322 183.509 268.97 183.168C268.629 182.827 268.357 182.405 268.154 181.904C267.962 181.392 267.866 180.811 267.866 180.16V179.904C267.866 179.264 267.967 178.693 268.17 178.192C268.373 177.68 268.645 177.253 268.986 176.912C269.327 176.56 269.727 176.293 270.186 176.112C270.645 175.931 271.13 175.84 271.642 175.84C272.186 175.84 272.693 175.963 273.162 176.208C273.642 176.443 274.01 176.811 274.266 177.312H274.458V172.8H275.706V184H274.458V182.784ZM271.802 183.04C272.175 183.04 272.522 182.971 272.842 182.832C273.162 182.693 273.439 182.496 273.674 182.24C273.919 181.984 274.111 181.68 274.25 181.328C274.389 180.965 274.458 180.565 274.458 180.128V179.936C274.458 179.509 274.389 179.12 274.25 178.768C274.111 178.405 273.919 178.096 273.674 177.84C273.439 177.584 273.157 177.387 272.826 177.248C272.506 177.099 272.165 177.024 271.802 177.024C271.429 177.024 271.077 177.093 270.746 177.232C270.426 177.371 270.143 177.568 269.898 177.824C269.663 178.08 269.477 178.384 269.338 178.736C269.21 179.088 269.146 179.477 269.146 179.904V180.16C269.146 180.608 269.21 181.008 269.338 181.36C269.477 181.712 269.663 182.016 269.898 182.272C270.143 182.517 270.426 182.709 270.746 182.848C271.066 182.976 271.418 183.04 271.802 183.04ZM25.856 197.696C25.856 197.387 25.9627 197.125 26.176 196.912C26.4 196.688 26.6667 196.576 26.976 196.576C27.2853 196.576 27.5467 196.688 27.76 196.912C27.984 197.125 28.096 197.387 28.096 197.696C28.096 198.005 27.984 198.272 27.76 198.496C27.5467 198.709 27.2853 198.816 26.976 198.816C26.6667 198.816 26.4 198.709 26.176 198.496C25.9627 198.272 25.856 198.005 25.856 197.696ZM23.584 206.848H26.368V201.216H23.872V200.064H27.616V206.848H30.208V208H23.584V206.848ZM39.3329 206.784H39.1409C39.0129 207.029 38.8475 207.243 38.6449 207.424C38.4529 207.605 38.2395 207.755 38.0049 207.872C37.7809 207.989 37.5409 208.075 37.2849 208.128C37.0289 208.192 36.7835 208.224 36.5489 208.224C36.0155 208.224 35.5195 208.133 35.0609 207.952C34.6022 207.771 34.1969 207.509 33.8449 207.168C33.5035 206.827 33.2315 206.405 33.0289 205.904C32.8369 205.392 32.7409 204.811 32.7409 204.16V203.904C32.7409 203.264 32.8422 202.693 33.0449 202.192C33.2475 201.68 33.5195 201.253 33.8609 200.912C34.2022 200.56 34.6022 200.293 35.0609 200.112C35.5195 199.931 36.0049 199.84 36.5169 199.84C37.0609 199.84 37.5675 199.963 38.0369 200.208C38.5169 200.443 38.8849 200.811 39.1409 201.312H39.3329V196.8H40.5809V208H39.3329V206.784ZM36.6769 207.04C37.0502 207.04 37.3969 206.971 37.7169 206.832C38.0369 206.693 38.3142 206.496 38.5489 206.24C38.7942 205.984 38.9862 205.68 39.1249 205.328C39.2635 204.965 39.3329 204.565 39.3329 204.128V203.936C39.3329 203.509 39.2635 203.12 39.1249 202.768C38.9862 202.405 38.7942 202.096 38.5489 201.84C38.3142 201.584 38.0315 201.387 37.7009 201.248C37.3809 201.099 37.0395 201.024 36.6769 201.024C36.3035 201.024 35.9515 201.093 35.6209 201.232C35.3009 201.371 35.0182 201.568 34.7729 201.824C34.5382 202.08 34.3515 202.384 34.2129 202.736C34.0849 203.088 34.0209 203.477 34.0209 203.904V204.16C34.0209 204.608 34.0849 205.008 34.2129 205.36C34.3515 205.712 34.5382 206.016 34.7729 206.272C35.0182 206.517 35.3009 206.709 35.6209 206.848C35.9409 206.976 36.2929 207.04 36.6769 207.04ZM53.6946 204.416C53.7266 205.205 53.972 205.84 54.4306 206.32C54.8893 206.8 55.5293 207.04 56.3506 207.04C56.724 207.04 57.0493 206.997 57.3266 206.912C57.604 206.827 57.8386 206.709 58.0306 206.56C58.2333 206.411 58.3933 206.24 58.5106 206.048C58.6386 205.845 58.74 205.632 58.8146 205.408L59.9986 205.728C59.7746 206.464 59.3586 207.067 58.7506 207.536C58.1533 207.995 57.3426 208.224 56.3186 208.224C55.7533 208.224 55.2306 208.128 54.7506 207.936C54.2813 207.733 53.876 207.451 53.5346 207.088C53.1933 206.725 52.9266 206.293 52.7346 205.792C52.5426 205.291 52.4466 204.736 52.4466 204.128V203.744C52.4466 203.189 52.5426 202.672 52.7346 202.192C52.9373 201.712 53.2146 201.301 53.5666 200.96C53.9186 200.608 54.3293 200.336 54.7986 200.144C55.2786 199.941 55.796 199.84 56.3506 199.84C57.0013 199.84 57.5613 199.963 58.0306 200.208C58.5106 200.443 58.9 200.736 59.1986 201.088C59.508 201.44 59.732 201.824 59.8706 202.24C60.02 202.656 60.0946 203.04 60.0946 203.392V204.416H53.6946ZM56.3506 201.024C55.9986 201.024 55.668 201.083 55.3586 201.2C55.06 201.307 54.7933 201.461 54.5586 201.664C54.3346 201.867 54.148 202.107 53.9986 202.384C53.86 202.651 53.7693 202.944 53.7266 203.264H58.8466C58.8253 202.923 58.74 202.613 58.5906 202.336C58.452 202.059 58.2653 201.824 58.0306 201.632C57.8066 201.44 57.5453 201.291 57.2466 201.184C56.9586 201.077 56.66 201.024 56.3506 201.024ZM62.5795 206.848H65.4595V197.952H62.6755V196.8H66.7075V206.848H69.5875V208H62.5795V206.848ZM73.2884 204.416C73.3204 205.205 73.5657 205.84 74.0244 206.32C74.483 206.8 75.123 207.04 75.9444 207.04C76.3177 207.04 76.643 206.997 76.9204 206.912C77.1977 206.827 77.4324 206.709 77.6244 206.56C77.827 206.411 77.987 206.24 78.1044 206.048C78.2324 205.845 78.3337 205.632 78.4084 205.408L79.5924 205.728C79.3684 206.464 78.9524 207.067 78.3444 207.536C77.747 207.995 76.9364 208.224 75.9124 208.224C75.347 208.224 74.8244 208.128 74.3444 207.936C73.875 207.733 73.4697 207.451 73.1284 207.088C72.787 206.725 72.5204 206.293 72.3284 205.792C72.1364 205.291 72.0404 204.736 72.0404 204.128V203.744C72.0404 203.189 72.1364 202.672 72.3284 202.192C72.531 201.712 72.8084 201.301 73.1604 200.96C73.5124 200.608 73.923 200.336 74.3924 200.144C74.8724 199.941 75.3897 199.84 75.9444 199.84C76.595 199.84 77.155 199.963 77.6244 200.208C78.1044 200.443 78.4937 200.736 78.7924 201.088C79.1017 201.44 79.3257 201.824 79.4644 202.24C79.6137 202.656 79.6884 203.04 79.6884 203.392V204.416H73.2884ZM75.9444 201.024C75.5924 201.024 75.2617 201.083 74.9524 201.2C74.6537 201.307 74.387 201.461 74.1524 201.664C73.9284 201.867 73.7417 202.107 73.5924 202.384C73.4537 202.651 73.363 202.944 73.3204 203.264H78.4404C78.419 202.923 78.3337 202.613 78.1844 202.336C78.0457 202.059 77.859 201.824 77.6244 201.632C77.4004 201.44 77.139 201.291 76.8404 201.184C76.5524 201.077 76.2537 201.024 75.9444 201.024ZM89.8053 208H88.5573V202.304C88.5573 201.931 88.4719 201.627 88.3013 201.392C88.1306 201.147 87.8586 201.024 87.4853 201.024C87.1333 201.024 86.8453 201.157 86.6213 201.424C86.4079 201.68 86.3013 202.08 86.3013 202.624V208H85.0533V202.24C85.0533 201.888 84.9573 201.6 84.7653 201.376C84.5733 201.141 84.3173 201.024 83.9973 201.024C83.6133 201.024 83.3146 201.163 83.1013 201.44C82.8986 201.717 82.7973 202.08 82.7973 202.528V208H81.5493V200.064H82.7973V200.928H82.9893C83.1279 200.555 83.3306 200.283 83.5973 200.112C83.8639 199.931 84.1786 199.84 84.5413 199.84C84.9253 199.84 85.2399 199.941 85.4852 200.144C85.7413 200.347 85.9173 200.608 86.0133 200.928H86.2053C86.5679 200.203 87.1439 199.84 87.9333 199.84C88.5306 199.84 88.9893 200.032 89.3093 200.416C89.6399 200.789 89.8053 201.28 89.8053 201.888V208ZM92.8821 204.416C92.9141 205.205 93.1595 205.84 93.6181 206.32C94.0768 206.8 94.7168 207.04 95.5381 207.04C95.9115 207.04 96.2368 206.997 96.5141 206.912C96.7915 206.827 97.0261 206.709 97.2181 206.56C97.4208 206.411 97.5808 206.24 97.6981 206.048C97.8261 205.845 97.9275 205.632 98.0021 205.408L99.1861 205.728C98.9621 206.464 98.5461 207.067 97.9381 207.536C97.3408 207.995 96.5301 208.224 95.5061 208.224C94.9408 208.224 94.4181 208.128 93.9381 207.936C93.4688 207.733 93.0635 207.451 92.7221 207.088C92.3808 206.725 92.1141 206.293 91.9221 205.792C91.7301 205.291 91.6341 204.736 91.6341 204.128V203.744C91.6341 203.189 91.7301 202.672 91.9221 202.192C92.1248 201.712 92.4021 201.301 92.7541 200.96C93.1061 200.608 93.5168 200.336 93.9861 200.144C94.4661 199.941 94.9835 199.84 95.5381 199.84C96.1888 199.84 96.7488 199.963 97.2181 200.208C97.6981 200.443 98.0875 200.736 98.3861 201.088C98.6955 201.44 98.9195 201.824 99.0581 202.24C99.2075 202.656 99.2821 203.04 99.2821 203.392V204.416H92.8821ZM95.5381 201.024C95.1861 201.024 94.8555 201.083 94.5461 201.2C94.2475 201.307 93.9808 201.461 93.7461 201.664C93.5221 201.867 93.3355 202.107 93.1861 202.384C93.0475 202.651 92.9568 202.944 92.9141 203.264H98.0341C98.0128 202.923 97.9275 202.613 97.7781 202.336C97.6395 202.059 97.4528 201.824 97.2181 201.632C96.9941 201.44 96.7328 201.291 96.4341 201.184C96.1461 201.077 95.8475 201.024 95.5381 201.024ZM103.015 208H101.767V200.064H103.015V201.408H103.207C103.698 200.363 104.551 199.84 105.767 199.84C106.684 199.84 107.415 200.128 107.959 200.704C108.503 201.269 108.775 202.123 108.775 203.264V208H107.527V203.52C107.527 202.688 107.34 202.064 106.967 201.648C106.594 201.232 106.087 201.024 105.447 201.024C104.69 201.024 104.092 201.285 103.655 201.808C103.228 202.32 103.015 203.008 103.015 203.872V208ZM111.292 200.064H113.788V196.8H115.036V200.064H118.108V201.216H115.036V206.368C115.036 206.688 115.18 206.848 115.468 206.848H117.724V208H115.02C114.657 208 114.359 207.883 114.124 207.648C113.9 207.413 113.788 207.115 113.788 206.752V201.216H111.292V200.064ZM127.025 200.064H128.273V208H127.025V206.56H126.833C126.577 207.072 126.241 207.477 125.825 207.776C125.409 208.075 124.881 208.224 124.241 208.224C123.803 208.224 123.398 208.149 123.025 208C122.662 207.861 122.347 207.648 122.081 207.36C121.825 207.072 121.622 206.715 121.473 206.288C121.334 205.861 121.265 205.365 121.265 204.8V200.064H122.513V204.64C122.513 205.472 122.683 206.08 123.025 206.464C123.366 206.848 123.889 207.04 124.593 207.04C125.35 207.04 125.942 206.784 126.369 206.272C126.806 205.749 127.025 205.056 127.025 204.192V200.064ZM138.79 208H137.542V202.304C137.542 201.931 137.456 201.627 137.286 201.392C137.115 201.147 136.843 201.024 136.47 201.024C136.118 201.024 135.83 201.157 135.606 201.424C135.392 201.68 135.286 202.08 135.286 202.624V208H134.038V202.24C134.038 201.888 133.942 201.6 133.75 201.376C133.558 201.141 133.302 201.024 132.982 201.024C132.598 201.024 132.299 201.163 132.086 201.44C131.883 201.717 131.782 202.08 131.782 202.528V208H130.534V200.064H131.782V200.928H131.974C132.112 200.555 132.315 200.283 132.582 200.112C132.848 199.931 133.163 199.84 133.526 199.84C133.91 199.84 134.224 199.941 134.47 200.144C134.726 200.347 134.902 200.608 134.998 200.928H135.19C135.552 200.203 136.128 199.84 136.918 199.84C137.515 199.84 137.974 200.032 138.294 200.416C138.624 200.789 138.79 201.28 138.79 201.888V208ZM143.339 207.104C143.339 206.795 143.445 206.533 143.659 206.32C143.883 206.096 144.149 205.984 144.459 205.984C144.768 205.984 145.029 206.096 145.243 206.32C145.467 206.533 145.579 206.795 145.579 207.104C145.579 207.413 145.467 207.68 145.243 207.904C145.029 208.117 144.768 208.224 144.459 208.224C144.149 208.224 143.883 208.117 143.659 207.904C143.445 207.68 143.339 207.413 143.339 207.104Z" fill="white"/>
</g>
<defs>
<filter id="filter0_ii_860_385" x="-8" y="-8" width="322" height="250" filterUnits="userSpaceOnUse" color-interpolation-filters="sRGB">
<feFlood flood-opacity="0" result="BackgroundImageFix"/>
<feBlend mode="normal" in="SourceGraphic" in2="BackgroundImageFix" result="shape"/>
<feColorMatrix in="SourceAlpha" type="matrix" values="0 0 0 0 0 0 0 0 0 0 0 0 0 0 0 0 0 0 127 0" result="hardAlpha"/>
<feOffset dx="4" dy="4"/>
<feGaussianBlur stdDeviation="12"/>
<feComposite in2="hardAlpha" operator="arithmetic" k2="-1" k3="1"/>
<feColorMatrix type="matrix" values="0 0 0 0 1 0 0 0 0 1 0 0 0 0 1 0 0 0 0.2 0"/>
<feBlend mode="normal" in2="shape" result="effect1_innerShadow_860_385"/>
<feColorMatrix in="SourceAlpha" type="matrix" values="0 0 0 0 0 0 0 0 0 0 0 0 0 0 0 0 0 0 127 0" result="hardAlpha"/>
<feOffset dx="-8" dy="-8"/>
<feGaussianBlur stdDeviation="12"/>
<feComposite in2="hardAlpha" operator="arithmetic" k2="-1" k3="1"/>
<feColorMatrix type="matrix" values="0 0 0 0 0 0 0 0 0 0 0 0 0 0 0 0 0 0 0.25 0"/>
<feBlend mode="normal" in2="effect1_innerShadow_860_385" result="effect2_innerShadow_860_385"/>
</filter>
<linearGradient id="paint0_linear_860_385" x1="155" y1="0" x2="155" y2="238" gradientUnits="userSpaceOnUse">
<stop stop-color="white"/>
<stop offset="1" stop-color="white" stop-opacity="0"/>
</linearGradient>
<linearGradient id="paint1_linear_860_385" x1="17" y1="5.2182e-06" x2="285.047" y2="237.853" gradientUnits="userSpaceOnUse">
<stop stop-color="white" stop-opacity="0.9"/>
<stop offset="1" stop-color="white" stop-opacity="0.25"/>
</linearGradient>
<clipPath id="clip0_860_385">
<rect width="32" height="32" fill="white" transform="translate(22 24)"/>
</clipPath>
</defs>
</svg>
